<?xml version="1.0" standalone="no"?>
<!DOCTYPE svg PUBLIC "-//W3C//DTD SVG 1.1//EN" "http://www.w3.org/Graphics/SVG/1.1/DTD/svg11.dtd" >
<svg xmlns="http://www.w3.org/2000/svg" xmlns:xlink="http://www.w3.org/1999/xlink" version="1.1">
<metadata>
Created by FontForge 20141024 at Mon Sep 28 10:22:15 2015
 By Jimmy Warting
Please contact us to learn more about license restrictions.
</metadata>
<defs>
<font id="SofiaProBold" horiz-adv-x="568" >
  <font-face 
    font-family="Sofia Pro Bold"
    font-weight="400"
    font-stretch="normal"
    units-per-em="1000"
    panose-1="2 11 0 0 0 0 0 0 0 0"
    ascent="750"
    descent="-250"
    x-height="467"
    cap-height="689"
    bbox="-180 -287 1157 1113"
    underline-thickness="50"
    underline-position="-50"
    unicode-range="U+0020-FB04"
  />
<missing-glyph horiz-adv-x="635" 
d="M80 0v665h475v-665h-475zM185 431h62c0 51 33 83 74 83c40 0 80 -28 80 -73c0 -22 -11 -39 -24 -50c-9 -10 -20 -18 -33 -21c-53 -16 -93 -43 -93 -110v-38h62v38c0 32 21 42 50 50c54 17 99 64 99 131c0 83 -67 135 -141 135s-136 -56 -136 -145zM237 131
c0 -25 21 -43 46 -43c24 0 45 18 45 43s-21 43 -45 43c-25 0 -46 -18 -46 -43z" />
    <glyph glyph-name="fi" unicode="fi" horiz-adv-x="695" 
d="M631 467v-467h-138v357h-242v-357h-140v357h-88v110h88v32c0 143 77 222 211 222h51v-133h-51c-48 0 -71 -34 -71 -89v-32h380zM475 640c0 46 40 81 87 81s85 -35 85 -81s-38 -82 -85 -82s-87 36 -87 82z" />
    <glyph glyph-name="fl" unicode="fl" horiz-adv-x="678" 
d="M322 721h292v-721h-139v588h-153c-48 0 -71 -34 -71 -89v-32h94v-110h-94v-357h-140v357h-88v110h88v32c0 143 77 222 211 222z" />
    <glyph glyph-name="f_f" unicode="ff" horiz-adv-x="761" 
d="M767 721v-133h-51c-48 0 -71 -34 -71 -89v-32h94v-110h-94v-357h-140v357h-254v-357h-140v357h-88v110h88v32c0 143 77 222 211 222h51v-133h-51c-48 0 -71 -34 -71 -89v-32h254v32c0 143 77 222 211 222h51z" />
    <glyph glyph-name="f_f_i" unicode="ffi" horiz-adv-x="1089" 
d="M1025 467v-467h-138v357h-242v-357h-140v357h-254v-357h-140v357h-88v110h88v32c0 143 77 222 211 222h51v-133h-51c-48 0 -71 -34 -71 -89v-32h254v32c0 143 77 222 211 222h51v-133h-51c-48 0 -71 -34 -71 -89v-32h380zM869 640c0 46 40 81 87 81s85 -35 85 -81
s-38 -82 -85 -82s-87 36 -87 82z" />
    <glyph glyph-name="f_f_l" unicode="ffl" horiz-adv-x="1072" 
d="M1008 721v-721h-139v588h-153c-48 0 -71 -34 -71 -89v-32h94v-110h-94v-357h-140v357h-254v-357h-140v357h-88v110h88v32c0 143 77 222 211 222h51v-133h-51c-48 0 -71 -34 -71 -89v-32h254v32c0 143 77 222 211 222h292z" />
    <glyph glyph-name="f_f_j" unicode="ffj" horiz-adv-x="1065" 
d="M739 -235v126h61c51 0 62 41 61 74v392h-216v-357h-140v357h-254v-357h-140v357h-88v110h88v32c0 143 77 222 211 222h51v-133h-51c-48 0 -71 -34 -71 -89v-32h254v32c0 143 77 222 211 222h51v-133h-51c-48 0 -71 -34 -71 -89v-32h356v-499c0 -124 -45 -203 -177 -203
h-85zM844 640c0 46 40 81 87 81c48 0 86 -35 86 -81s-38 -82 -86 -82c-47 0 -87 36 -87 82z" />
    <glyph glyph-name="f_j" unicode="fj" horiz-adv-x="671" 
d="M345 -235v126h61c51 0 62 41 61 74v392h-216v-357h-140v357h-88v110h88v32c0 143 77 222 211 222h51v-133h-51c-48 0 -71 -34 -71 -89v-32h356v-499c0 -124 -45 -203 -177 -203h-85zM450 640c0 46 40 81 87 81c48 0 86 -35 86 -81s-38 -82 -86 -82c-47 0 -87 36 -87 82z
" />
    <glyph glyph-name=".notdef" horiz-adv-x="635" 
d="M80 0v665h475v-665h-475zM185 431h62c0 51 33 83 74 83c40 0 80 -28 80 -73c0 -22 -11 -39 -24 -50c-9 -10 -20 -18 -33 -21c-53 -16 -93 -43 -93 -110v-38h62v38c0 32 21 42 50 50c54 17 99 64 99 131c0 83 -67 135 -141 135s-136 -56 -136 -145zM237 131
c0 -25 21 -43 46 -43c24 0 45 18 45 43s-21 43 -45 43c-25 0 -46 -18 -46 -43z" />
    <glyph glyph-name="b" unicode="b" horiz-adv-x="602" 
d="M205 235c0 -67 50 -113 108 -113c59 0 108 44 108 113c0 67 -49 111 -108 111c-57 0 -108 -41 -108 -111zM202 0h-138v721h138v-311c23 43 79 67 137 67c120 0 226 -95 226 -245c0 -147 -106 -242 -226 -242c-58 0 -114 25 -137 68v-58z" />
    <glyph glyph-name="d" unicode="d" horiz-adv-x="602" 
d="M397 235c0 70 -51 111 -108 111c-59 0 -108 -44 -108 -111c0 -69 49 -113 108 -113c58 0 108 46 108 113zM538 0h-138v58c-23 -43 -79 -68 -137 -68c-120 0 -226 95 -226 242c0 150 106 245 226 245c58 0 114 -24 137 -67v311h138v-721z" />
    <glyph glyph-name="i" unicode="i" horiz-adv-x="266" 
d="M202 467v-467h-138v467h138zM46 640c0 46 40 81 87 81s85 -35 85 -81s-38 -82 -85 -82s-87 36 -87 82z" />
    <glyph glyph-name="f" unicode="f" horiz-adv-x="367" 
d="M373 721v-133h-51c-48 0 -71 -34 -71 -89v-32h94v-110h-94v-357h-140v357h-88v110h88v32c0 143 77 222 211 222h51z" />
    <glyph glyph-name="o" unicode="o" horiz-adv-x="557" 
d="M278 128c58 0 106 42 106 107c0 63 -48 106 -106 106c-57 0 -105 -43 -105 -106c0 -65 48 -107 105 -107zM278 -8c-132 0 -242 96 -242 243s110 242 242 242s243 -95 243 -242s-111 -243 -243 -243z" />
    <glyph glyph-name="l" unicode="l" horiz-adv-x="267" 
d="M64 721h139v-721h-139v721z" />
    <glyph glyph-name="c" unicode="c" horiz-adv-x="525" 
d="M36 235c0 147 120 242 254 242c83 0 158 -36 203 -99l-113 -81c-19 30 -54 47 -90 47c-59 0 -116 -42 -116 -109s57 -112 116 -112c36 0 71 17 90 47l113 -80c-44 -63 -119 -100 -203 -100c-134 0 -254 98 -254 245z" />
    <glyph glyph-name="e" unicode="e" horiz-adv-x="550" 
d="M392 154l101 -69c-47 -70 -134 -95 -213 -95c-134 0 -244 98 -244 245s110 242 244 242c133 0 239 -99 239 -246c0 -12 -1 -31 -2 -43h-342c7 -54 66 -78 115 -78c38 0 79 14 102 44zM177 275h202c-7 57 -59 80 -98 80s-92 -21 -104 -80z" />
    <glyph glyph-name="j" unicode="j" horiz-adv-x="268" 
d="M-58 -235v126h61c51 0 62 41 61 74v502h140v-499c0 -124 -45 -203 -177 -203h-85zM47 640c0 46 40 81 87 81c48 0 86 -35 86 -81s-38 -82 -86 -82c-47 0 -87 36 -87 82z" />
    <glyph glyph-name="p" unicode="p" horiz-adv-x="602" 
d="M205 232c0 -70 51 -111 108 -111c59 0 108 44 108 111c0 69 -49 113 -108 113c-58 0 -108 -46 -108 -113zM64 467h138v-58c23 43 79 68 137 68c120 0 226 -95 226 -242c0 -150 -106 -245 -226 -245c-58 0 -114 24 -137 67v-286h-138v696z" />
    <glyph glyph-name="q" unicode="q" horiz-adv-x="602" 
d="M399 409v58h139v-696h-139v286c-22 -43 -78 -67 -137 -67c-119 0 -225 95 -225 245c0 147 106 242 225 242c59 0 115 -25 137 -68zM396 232c0 67 -50 113 -108 113s-107 -44 -107 -113c0 -67 49 -111 107 -111c57 0 108 41 108 111z" />
    <glyph glyph-name="h" unicode="h" horiz-adv-x="579" 
d="M203 247v-247h-139v721h139v-327c19 58 87 83 131 83c123 0 187 -82 187 -223v-254h-139v249c0 61 -44 93 -86 93c-44 0 -93 -24 -93 -95z" />
    <glyph glyph-name="g" unicode="g" horiz-adv-x="608" 
d="M406 235c0 70 -55 110 -113 110c-59 0 -112 -44 -112 -110c0 -70 53 -114 112 -114c57 0 113 46 113 114zM162 -33c16 -43 71 -75 118 -75c106 0 135 73 129 166c-22 -43 -82 -68 -140 -68c-120 0 -233 95 -233 242c0 150 113 245 233 245c58 0 117 -25 140 -68v58h135
v-402c0 -201 -98 -298 -264 -298c-103 0 -191 58 -230 145c35 17 77 38 112 55z" />
    <glyph glyph-name="k" unicode="k" horiz-adv-x="526" 
d="M202 185v-185h-138v721h138v-382l111 128h177l-194 -206l233 -261h-171z" />
    <glyph glyph-name="s" unicode="s" horiz-adv-x="467" 
d="M246 176l-61 16c-140 38 -141 109 -140 152c1 69 84 133 182 133c93 0 191 -41 192 -155h-131c-1 35 -31 41 -53 41c-30 0 -50 -14 -49 -35c1 -14 13 -28 41 -35l79 -21c113 -31 127 -106 127 -136c0 -99 -104 -146 -202 -146c-95 0 -194 57 -195 161h130
c1 -27 31 -54 69 -54c31 1 57 15 57 39c0 20 -12 31 -46 40z" />
    <glyph glyph-name="n" unicode="n" 
d="M203 247v-247h-139v467h139v-68c25 47 80 78 135 78c105 0 171 -65 171 -198v-279h-139v249c0 62 -34 93 -81 93c-49 0 -86 -24 -86 -95z" />
    <glyph glyph-name="space" unicode=" " horiz-adv-x="244" 
 />
    <glyph glyph-name="t" unicode="t" horiz-adv-x="365" 
d="M246 467h98v-110h-98v-357h-138v357h-85v110h85v179h138v-179z" />
    <glyph glyph-name="S" unicode="S" horiz-adv-x="582" 
d="M44 202h147c2 -44 37 -83 103 -83c59 0 100 28 101 73c1 31 -13 58 -83 78l-83 23c-152 47 -178 136 -178 198c0 123 105 206 237 206c133 0 233 -79 233 -211h-146c0 46 -31 78 -89 78c-51 0 -89 -28 -89 -69c0 -18 7 -51 74 -70l82 -26c167 -48 191 -142 189 -208
c-2 -137 -126 -202 -248 -202c-150 0 -250 89 -250 213z" />
    <glyph glyph-name="m" unicode="m" horiz-adv-x="854" 
d="M580 342c-44 0 -80 -27 -80 -95v-247h-139v252c-1 59 -37 90 -77 90c-42 0 -81 -24 -81 -95v-247h-139v467h139v-68c22 49 72 77 122 77c74 0 124 -28 150 -82c45 73 107 83 140 83c111 0 180 -71 180 -212v-265h-138v249c0 61 -36 93 -77 93z" />
    <glyph glyph-name="u" unicode="u" 
d="M365 220v247h139v-467h-139v64c-25 -47 -76 -74 -121 -74c-105 0 -185 65 -185 198v279h139v-249c0 -74 51 -93 83 -93c43 0 84 24 84 95z" />
    <glyph glyph-name="r" unicode="r" horiz-adv-x="423" 
d="M203 163v-163h-139v467h139v-113c24 87 84 123 132 123c33 0 58 -6 80 -17l-25 -125c-25 12 -49 14 -71 14c-80 0 -116 -63 -116 -186z" />
    <glyph glyph-name="v" unicode="v" horiz-adv-x="520" 
d="M200 0l-197 467h148l109 -290l108 290h149l-198 -467h-119z" />
    <glyph glyph-name="z" unicode="z" horiz-adv-x="510" 
d="M55 467h407v-104l-224 -235h224v-128h-421v103l220 236h-206v128z" />
    <glyph glyph-name="y" unicode="y" horiz-adv-x="510" 
d="M506 467l-288 -696h-147l112 277l-180 419h148l103 -265l104 265h148z" />
    <glyph glyph-name="w" unicode="w" horiz-adv-x="763" 
d="M753 467l-164 -467h-116l-92 297l-88 -297h-116l-169 467h148l83 -278l82 278h119l82 -278l83 278h148z" />
    <glyph glyph-name="x" unicode="x" horiz-adv-x="530" 
d="M188 253l-154 214h162l70 -103l69 103h161l-154 -214l183 -253h-161l-99 143l-100 -143h-161z" />
    <glyph glyph-name="A" unicode="A" horiz-adv-x="659" 
d="M259 290h143l-73 240zM449 163h-238l-61 -163h-156l256 689h159l255 -689h-154z" />
    <glyph glyph-name="O" unicode="O" horiz-adv-x="781" 
d="M187 343c0 -115 89 -208 203 -208s204 93 204 208s-90 209 -204 209s-203 -94 -203 -209zM41 343c0 196 154 354 349 354c196 0 350 -158 350 -354c0 -194 -154 -353 -350 -353c-195 0 -349 159 -349 353z" />
    <glyph glyph-name="E" unicode="E" horiz-adv-x="576" 
d="M81 0v689h436v-129h-290v-157h254v-127h-254v-147h299v-129h-445z" />
    <glyph glyph-name="I" unicode="I" horiz-adv-x="308" 
d="M81 689h146v-689h-146v689z" />
    <glyph glyph-name="L" unicode="L" horiz-adv-x="511" 
d="M81 0v689h147v-560h258v-129h-405z" />
    <glyph glyph-name="H" unicode="H" horiz-adv-x="701" 
d="M472 689h148v-689h-148v277h-245v-277h-146v689h146v-281h245v281z" />
    <glyph glyph-name="C" unicode="C" horiz-adv-x="699" 
d="M559 223l118 -82c-60 -91 -165 -151 -290 -151c-197 0 -346 159 -346 353c0 196 149 354 346 354c123 0 227 -58 287 -146l-119 -82c-37 54 -97 90 -168 90c-115 0 -199 -96 -199 -216c0 -119 84 -215 199 -215c72 0 135 39 172 95z" />
    <glyph glyph-name="F" unicode="F" horiz-adv-x="538" 
d="M81 0v689h431v-129h-284v-157h225v-128h-225v-275h-147z" />
    <glyph glyph-name="D" unicode="D" horiz-adv-x="707" 
d="M227 556v-423h124c110 0 165 97 165 210c0 114 -55 213 -165 213h-124zM351 0h-270v689h270c198 0 311 -150 311 -346c0 -195 -113 -343 -311 -343z" />
    <glyph glyph-name="B" unicode="B" horiz-adv-x="637" 
d="M561 497c0 -45 -23 -102 -94 -129c91 -23 130 -101 130 -157c0 -114 -83 -211 -220 -211h-296v689h276c124 0 204 -74 204 -192zM228 417h115c38 0 64 30 64 71c0 43 -22 72 -65 72h-114v-143zM366 296h-138v-167h141c49 0 74 44 74 85c0 39 -25 82 -77 82z" />
    <glyph glyph-name="a" unicode="a" horiz-adv-x="612" 
d="M410 0v53c-30 -45 -100 -62 -136 -62c-119 0 -238 93 -238 243s119 243 238 243c30 0 100 -10 136 -62v52h138v-467h-138zM180 234c0 -67 59 -111 117 -111c57 0 113 41 113 111s-56 111 -113 111c-58 0 -117 -44 -117 -111z" />
    <glyph glyph-name="P" unicode="P" horiz-adv-x="614" 
d="M361 560h-133v-194h129c57 0 87 52 87 97c0 43 -28 97 -83 97zM81 0v689h283c157 0 227 -113 227 -226c0 -114 -70 -225 -227 -225h-136v-238h-147z" />
    <glyph glyph-name="R" unicode="R" horiz-adv-x="637" 
d="M356 560h-128v-194h124c57 0 87 52 87 97c0 43 -28 97 -83 97zM420 244l171 -244h-176l-154 238h-33v-238h-147v689h282c156 0 229 -113 229 -226c0 -98 -54 -194 -172 -219z" />
    <glyph glyph-name="T" unicode="T" horiz-adv-x="576" 
d="M28 557v132h520v-132h-186v-557h-148v557h-186z" />
    <glyph glyph-name="Z" unicode="Z" horiz-adv-x="595" 
d="M42 111l315 449h-302v129h492v-111l-318 -449h318v-129h-505v111z" />
    <glyph glyph-name="N" unicode="N" horiz-adv-x="679" 
d="M598 689v-689h-131l-240 417v-417h-146v689h134l236 -412v412h147z" />
    <glyph glyph-name="Q" unicode="Q" horiz-adv-x="788" 
d="M598 54l66 -110l-103 -62l-74 120c-30 -8 -61 -12 -93 -12c-198 0 -353 159 -353 353c0 196 155 354 353 354c199 0 354 -158 354 -354c0 -118 -59 -224 -150 -289zM457 284l66 -107c48 38 78 97 78 166c0 120 -92 216 -207 216c-116 0 -206 -96 -206 -216
c0 -102 67 -186 162 -206c19 -5 38 -6 59 -6l-55 92z" />
    <glyph glyph-name="G" unicode="G" horiz-adv-x="756" 
d="M653 584l-108 -93c-38 43 -91 70 -151 70c-116 0 -206 -98 -206 -218c0 -119 90 -219 206 -219c74 0 166 46 167 119h-185v119h354c0 -258 -138 -372 -336 -372s-353 159 -353 353c0 196 155 354 353 354c106 0 199 -44 259 -113z" />
    <glyph glyph-name="J" unicode="J" horiz-adv-x="309" 
d="M-99 -219l13 132c29 -10 82 -11 88 -11c57 0 79 43 79 95v692h147v-692c0 -126 -61 -233 -226 -233c-19 0 -64 8 -101 17z" />
    <glyph glyph-name="U" unicode="U" horiz-adv-x="682" 
d="M342 128c61 0 119 47 119 118v443h147v-443c0 -156 -125 -256 -266 -256c-142 0 -268 100 -268 256v443h149v-443c0 -71 57 -118 119 -118z" />
    <glyph glyph-name="K" unicode="K" horiz-adv-x="609" 
d="M303 348l323 -348h-190l-207 234v-234h-148v689h148v-226l163 226h172z" />
    <glyph glyph-name="M" unicode="M" horiz-adv-x="913" 
d="M457 245l206 444h123l84 -689h-147l-48 413l-161 -334h-113l-162 334l-49 -413h-147l85 689h121z" />
    <glyph glyph-name="V" unicode="V" horiz-adv-x="582" 
d="M16 689h152l123 -452l122 452h153l-210 -689h-130z" />
    <glyph glyph-name="X" unicode="X" horiz-adv-x="658" 
d="M633 689l-217 -322l239 -367h-173l-153 250l-153 -250h-172l238 367l-217 322h176l128 -206l129 206h175z" />
    <glyph glyph-name="Y" unicode="Y" horiz-adv-x="651" 
d="M400 0h-149v312l-266 377h174l166 -258l168 258h174l-267 -379v-310z" />
    <glyph glyph-name="W" unicode="W" horiz-adv-x="886" 
d="M594 255l135 434h159l-234 -689h-115l-97 362l-95 -362h-116l-232 689h158l134 -434c31 109 62 226 92 337h120z" />
    <glyph glyph-name="period" unicode="." horiz-adv-x="279" 
d="M53 74c0 48 39 83 86 83s87 -35 87 -83c0 -49 -40 -84 -87 -84s-86 35 -86 84z" />
    <glyph glyph-name="colon" unicode=":" horiz-adv-x="308" 
d="M68 74c0 48 39 83 86 83s86 -35 86 -83c0 -49 -39 -84 -86 -84s-86 35 -86 84zM68 393c0 49 39 84 86 84s86 -35 86 -84c0 -48 -39 -83 -86 -83s-86 35 -86 83z" />
    <glyph glyph-name="ellipsis" unicode="&#x2026;" horiz-adv-x="865" 
d="M53 74c0 48 39 83 86 83s87 -35 87 -83c0 -49 -40 -84 -87 -84s-86 35 -86 84zM346 74c0 48 39 83 86 83s87 -35 87 -83c0 -49 -40 -84 -87 -84s-86 35 -86 84zM639 74c0 48 39 83 86 83s87 -35 87 -83c0 -49 -40 -84 -87 -84s-86 35 -86 84z" />
    <glyph glyph-name="dieresis" unicode="&#xa8;" horiz-adv-x="561" 
d="M120 638c0 38 33 68 73 68c39 0 71 -30 71 -68c0 -39 -32 -69 -71 -69c-40 0 -73 30 -73 69zM297 638c0 38 33 68 73 68c39 0 71 -30 71 -68c0 -39 -32 -69 -71 -69c-40 0 -73 30 -73 69z" />
    <glyph glyph-name="grave" unicode="`" horiz-adv-x="554" 
d="M129 707h138l110 -168h-100z" />
    <glyph glyph-name="acute" unicode="&#xb4;" horiz-adv-x="554" 
d="M239 707h138l-148 -168h-100z" />
    <glyph glyph-name="circumflex" unicode="&#x2c6;" horiz-adv-x="567" 
d="M214 711h138l110 -168h-100l-79 89l-78 -89h-100z" />
    <glyph glyph-name="caron" unicode="&#x2c7;" horiz-adv-x="567" 
d="M352 538h-138l-109 168h100l78 -89l79 89h100z" />
    <glyph glyph-name="exclam" unicode="!" horiz-adv-x="283" 
d="M65 689h154l-20 -481h-114zM55 74c0 48 39 83 86 83s87 -35 87 -83c0 -49 -40 -84 -87 -84s-86 35 -86 84z" />
    <glyph glyph-name="hungarumlaut" unicode="&#x2dd;" horiz-adv-x="544" 
d="M190 706h111l-121 -168h-100zM350 706h114l-132 -168h-105z" />
    <glyph glyph-name="ring" unicode="&#x2da;" horiz-adv-x="562" 
d="M160 659c0 69 53 123 120 123c68 0 122 -54 122 -123c0 -67 -54 -120 -122 -120c-67 0 -120 53 -120 120zM225 659c0 -31 24 -55 55 -55c32 0 57 24 57 55c0 33 -25 58 -57 58c-31 0 -55 -25 -55 -58z" />
    <glyph glyph-name="dotlessi" unicode="&#x131;" horiz-adv-x="266" 
d="M202 467v-467h-138v467h138z" />
    <glyph glyph-name="cedilla" unicode="&#xb8;" horiz-adv-x="531" 
d="M239 -124c6 -16 23 -23 39 -19c16 7 22 25 15 42l-47 128h65l50 -93c10 -16 10 -35 10 -49c0 -56 -49 -103 -107 -103c-39 0 -77 24 -95 65c-7 16 -9 26 -8 59l77 -4s-2 -13 1 -26z" />
    <glyph glyph-name="ogonek" unicode="&#x2db;" horiz-adv-x="531" 
d="M292 -124c3 13 1 26 1 26l77 4c1 -33 -1 -43 -8 -59c-18 -41 -56 -65 -95 -65c-58 0 -107 47 -107 103c0 14 1 30 10 49l50 93h65l-47 -128c-7 -17 -1 -35 15 -42c16 -4 33 3 39 19z" />
    <glyph glyph-name="quotedbl" unicode="&#x22;" horiz-adv-x="365" 
d="M74 392l-11 297h98l-11 -297h-76zM215 392l-11 297h98l-11 -297h-76z" />
    <glyph glyph-name="quotesingle" unicode="'" horiz-adv-x="224" 
d="M74 392l-11 297h98l-11 -297h-76z" />
    <glyph glyph-name="exclamdown" unicode="&#xa1;" horiz-adv-x="267" 
d="M211 -229h-154l20 488h114zM47 393c0 49 39 84 86 84s87 -35 87 -84c0 -48 -40 -83 -87 -83s-86 35 -86 83z" />
    <glyph glyph-name="breve" unicode="&#x2d8;" horiz-adv-x="509" 
d="M120 689h85c0 -34 14 -53 49 -53s48 25 48 53h87c0 -79 -56 -131 -135 -131c-92 0 -134 65 -134 131z" />
    <glyph glyph-name="dotaccent" unicode="&#x2d9;" horiz-adv-x="386" 
d="M116 645c0 42 34 74 77 74s77 -32 77 -74c0 -44 -34 -75 -77 -75s-77 31 -77 75z" />
    <glyph glyph-name="comma" unicode="," horiz-adv-x="283" 
d="M91 -135l-90 34c44 61 79 161 78 259h141c-1 -157 -81 -253 -129 -293z" />
    <glyph glyph-name="semicolon" unicode=";" horiz-adv-x="306" 
d="M100 -135l-90 34c44 61 79 161 78 259h141c-1 -157 -81 -253 -129 -293zM76 393c0 49 39 84 86 84s86 -35 86 -84c0 -48 -39 -83 -86 -83s-86 35 -86 83z" />
    <glyph glyph-name="tilde" unicode="&#x2dc;" horiz-adv-x="449" 
d="M179 606c-7 0 -25 -11 -26 -43h-75c5 98 59 130 101 130s63 -41 87 -41c7 0 25 9 26 41h75c-4 -98 -61 -128 -101 -128c-39 0 -64 41 -87 41z" />
    <glyph glyph-name="Agrave" unicode="&#xc0;" horiz-adv-x="659" 
d="M259 290h143l-73 240zM449 163h-238l-61 -163h-156l256 689h159l255 -689h-154zM155 929h138l110 -168h-100z" />
    <glyph glyph-name="Aacute" unicode="&#xc1;" horiz-adv-x="659" 
d="M259 290h143l-73 240zM449 163h-238l-61 -163h-156l256 689h159l255 -689h-154zM371 929h138l-148 -168h-100z" />
    <glyph glyph-name="Acircumflex" unicode="&#xc2;" horiz-adv-x="659" 
d="M259 290h143l-73 240zM449 163h-238l-61 -163h-156l256 689h159l255 -689h-154zM259 933h138l110 -168h-100l-79 89l-78 -89h-100z" />
    <glyph glyph-name="Atilde" unicode="&#xc3;" horiz-adv-x="659" 
d="M259 290h143l-73 240zM449 163h-238l-61 -163h-156l256 689h159l255 -689h-154zM285 828c-7 0 -25 -11 -26 -43h-75c5 98 59 130 101 130s63 -41 87 -41c7 0 25 9 26 41h75c-4 -98 -61 -128 -101 -128c-39 0 -64 41 -87 41z" />
    <glyph glyph-name="Adieresis" unicode="&#xc4;" horiz-adv-x="659" 
d="M259 290h143l-73 240zM449 163h-238l-61 -163h-156l256 689h159l255 -689h-154zM156 860c0 38 33 68 73 68c39 0 71 -30 71 -68c0 -39 -32 -69 -71 -69c-40 0 -73 30 -73 69zM333 860c0 38 33 68 73 68c39 0 71 -30 71 -68c0 -39 -32 -69 -71 -69c-40 0 -73 30 -73 69z
" />
    <glyph glyph-name="Aring" unicode="&#xc5;" horiz-adv-x="659" 
d="M259 290h143l-73 240zM449 163h-238l-61 -163h-156l256 689h159l255 -689h-154zM208 881c0 69 53 123 120 123c68 0 122 -54 122 -123c0 -67 -54 -120 -122 -120c-67 0 -120 53 -120 120zM273 881c0 -31 24 -55 55 -55c32 0 57 24 57 55c0 33 -25 58 -57 58
c-31 0 -55 -25 -55 -58z" />
    <glyph glyph-name="Ccedilla" unicode="&#xc7;" horiz-adv-x="701" 
d="M331 -124c6 -16 23 -23 39 -19c16 7 22 25 15 42l-34 93c-179 18 -309 169 -309 351c0 196 149 354 346 354c123 0 227 -58 287 -146l-119 -82c-37 54 -97 90 -168 90c-115 0 -199 -96 -199 -216c0 -119 84 -215 199 -215c72 0 135 39 172 95l118 -82
c-55 -83 -146 -140 -256 -149l31 -58c9 -17 10 -35 10 -49c0 -56 -49 -103 -107 -103c-39 0 -77 24 -95 65c-7 16 -9 26 -8 59l77 -4s-2 -13 1 -26z" />
    <glyph glyph-name="Egrave" unicode="&#xc8;" horiz-adv-x="576" 
d="M81 0v689h436v-129h-290v-157h254v-127h-254v-147h299v-129h-445zM134 929h138l110 -168h-100z" />
    <glyph glyph-name="Eacute" unicode="&#xc9;" horiz-adv-x="576" 
d="M81 689v-689h445v129h-299v147h254v127h-254v157h290v129h-436zM323 929h138l-148 -168h-100z" />
    <glyph glyph-name="Ecircumflex" unicode="&#xca;" horiz-adv-x="576" 
d="M81 0v689h436v-129h-290v-157h254v-127h-254v-147h299v-129h-445zM214 933h138l110 -168h-100l-79 89l-78 -89h-100z" />
    <glyph glyph-name="Igrave" unicode="&#xcc;" horiz-adv-x="308" 
d="M81 689h146v-689h-146v689zM-22 929h138l110 -168h-100z" />
    <glyph glyph-name="Iacute" unicode="&#xcd;" horiz-adv-x="308" 
d="M81 689h146v-689h-146v689zM190 929h138l-148 -168h-100z" />
    <glyph glyph-name="Icircumflex" unicode="&#xce;" horiz-adv-x="308" 
d="M81 689h146v-689h-146v689zM85 933h138l110 -168h-100l-79 89l-78 -89h-100z" />
    <glyph glyph-name="Idieresis" unicode="&#xcf;" horiz-adv-x="308" 
d="M81 689h146v-689h-146v689zM-6 860c0 38 33 68 73 68c39 0 71 -30 71 -68c0 -39 -32 -69 -71 -69c-40 0 -73 30 -73 69zM171 860c0 38 33 68 73 68c39 0 71 -30 71 -68c0 -39 -32 -69 -71 -69c-40 0 -73 30 -73 69z" />
    <glyph glyph-name="Ntilde" unicode="&#xd1;" horiz-adv-x="679" 
d="M296 828c-7 0 -25 -11 -26 -43h-75c5 98 59 130 101 130s63 -41 87 -41c7 0 25 9 26 41h75c-4 -98 -61 -128 -101 -128c-39 0 -64 41 -87 41zM598 689v-689h-131l-240 417v-417h-146v689h134l236 -412v412h147z" />
    <glyph glyph-name="Ograve" unicode="&#xd2;" horiz-adv-x="781" 
d="M187 343c0 -115 89 -208 203 -208s204 93 204 208s-90 209 -204 209s-203 -94 -203 -209zM41 343c0 196 154 354 349 354c196 0 350 -158 350 -354c0 -194 -154 -353 -350 -353c-195 0 -349 159 -349 353zM213 929h138l110 -168h-100z" />
    <glyph glyph-name="Oacute" unicode="&#xd3;" horiz-adv-x="781" 
d="M187 343c0 115 89 209 203 209s204 -94 204 -209s-90 -208 -204 -208s-203 93 -203 208zM41 343c0 -194 154 -353 349 -353c196 0 350 159 350 353c0 196 -154 354 -350 354c-195 0 -349 -158 -349 -354zM435 929h138l-148 -168h-100z" />
    <glyph glyph-name="Ocircumflex" unicode="&#xd4;" horiz-adv-x="781" 
d="M187 343c0 -115 89 -208 203 -208s204 93 204 208s-90 209 -204 209s-203 -94 -203 -209zM41 343c0 196 154 354 349 354c196 0 350 -158 350 -354c0 -194 -154 -353 -350 -353c-195 0 -349 159 -349 353zM321 933h138l110 -168h-100l-79 89l-78 -89h-100z" />
    <glyph glyph-name="Otilde" unicode="&#xd5;" horiz-adv-x="781" 
d="M187 343c0 -115 89 -208 203 -208s204 93 204 208s-90 209 -204 209s-203 -94 -203 -209zM41 343c0 196 154 354 349 354c196 0 350 -158 350 -354c0 -194 -154 -353 -350 -353c-195 0 -349 159 -349 353zM347 828c-7 0 -25 -11 -26 -43h-75c5 98 59 130 101 130
s63 -41 87 -41c7 0 25 9 26 41h75c-4 -98 -61 -128 -101 -128c-39 0 -64 41 -87 41z" />
    <glyph glyph-name="Odieresis" unicode="&#xd6;" horiz-adv-x="781" 
d="M187 343c0 115 89 209 203 209s204 -94 204 -209s-90 -208 -204 -208s-203 93 -203 208zM41 343c0 -194 154 -353 349 -353c196 0 350 159 350 353c0 196 -154 354 -350 354c-195 0 -349 -158 -349 -354zM230 860c0 38 33 68 73 68c39 0 71 -30 71 -68
c0 -39 -32 -69 -71 -69c-40 0 -73 30 -73 69zM407 860c0 38 33 68 73 68c39 0 71 -30 71 -68c0 -39 -32 -69 -71 -69c-40 0 -73 30 -73 69z" />
    <glyph glyph-name="Ugrave" unicode="&#xd9;" horiz-adv-x="682" 
d="M342 128c61 0 119 47 119 118v443h147v-443c0 -156 -125 -256 -266 -256c-142 0 -268 100 -268 256v443h149v-443c0 -71 57 -118 119 -118zM172 929h138l110 -168h-100z" />
    <glyph glyph-name="Uacute" unicode="&#xda;" horiz-adv-x="682" 
d="M342 128c61 0 119 47 119 118v443h147v-443c0 -156 -125 -256 -266 -256c-142 0 -268 100 -268 256v443h149v-443c0 -71 57 -118 119 -118zM371 929h138l-148 -168h-100z" />
    <glyph glyph-name="Ucircumflex" unicode="&#xdb;" horiz-adv-x="682" 
d="M342 128c61 0 119 47 119 118v443h147v-443c0 -156 -125 -256 -266 -256c-142 0 -268 100 -268 256v443h149v-443c0 -71 57 -118 119 -118zM271 933h138l110 -168h-100l-79 89l-78 -89h-100z" />
    <glyph glyph-name="Udieresis" unicode="&#xdc;" horiz-adv-x="682" 
d="M342 128c61 0 119 47 119 118v443h147v-443c0 -156 -125 -256 -266 -256c-142 0 -268 100 -268 256v443h149v-443c0 -71 57 -118 119 -118zM180 860c0 38 33 68 73 68c39 0 71 -30 71 -68c0 -39 -32 -69 -71 -69c-40 0 -73 30 -73 69zM357 860c0 38 33 68 73 68
c39 0 71 -30 71 -68c0 -39 -32 -69 -71 -69c-40 0 -73 30 -73 69z" />
    <glyph glyph-name="Yacute" unicode="&#xdd;" horiz-adv-x="651" 
d="M400 0h-149v312l-266 377h174l166 -258l168 258h174l-267 -379v-310zM360 929h138l-148 -168h-100z" />
    <glyph glyph-name="agrave" unicode="&#xe0;" horiz-adv-x="612" 
d="M410 0v53c-30 -45 -100 -62 -136 -62c-119 0 -238 93 -238 243s119 243 238 243c30 0 100 -10 136 -62v52h138v-467h-138zM180 234c0 -67 59 -111 117 -111c57 0 113 41 113 111s-56 111 -113 111c-58 0 -117 -44 -117 -111zM135 707h138l110 -168h-100z" />
    <glyph glyph-name="aacute" unicode="&#xe1;" horiz-adv-x="612" 
d="M410 0v53c-30 -45 -100 -62 -136 -62c-119 0 -238 93 -238 243s119 243 238 243c30 0 100 -10 136 -62v52h138v-467h-138zM180 234c0 -67 59 -111 117 -111c57 0 113 41 113 111s-56 111 -113 111c-58 0 -117 -44 -117 -111zM321 707h138l-148 -168h-100z" />
    <glyph glyph-name="acircumflex" unicode="&#xe2;" horiz-adv-x="612" 
d="M410 0v53c-30 -45 -100 -62 -136 -62c-119 0 -238 93 -238 243s119 243 238 243c30 0 100 -10 136 -62v52h138v-467h-138zM180 234c0 -67 59 -111 117 -111c57 0 113 41 113 111s-56 111 -113 111c-58 0 -117 -44 -117 -111zM237 711h138l110 -168h-100l-79 89l-78 -89
h-100z" />
    <glyph glyph-name="atilde" unicode="&#xe3;" horiz-adv-x="612" 
d="M410 0v53c-30 -45 -100 -62 -136 -62c-119 0 -238 93 -238 243s119 243 238 243c30 0 100 -10 136 -62v52h138v-467h-138zM180 234c0 -67 59 -111 117 -111c57 0 113 41 113 111s-56 111 -113 111c-58 0 -117 -44 -117 -111zM263 606c-7 0 -25 -11 -26 -43h-75
c5 98 59 130 101 130s63 -41 87 -41c7 0 25 9 26 41h75c-4 -98 -61 -128 -101 -128c-39 0 -64 41 -87 41z" />
    <glyph glyph-name="adieresis" unicode="&#xe4;" horiz-adv-x="612" 
d="M410 0v53c-30 -45 -100 -62 -136 -62c-119 0 -238 93 -238 243s119 243 238 243c30 0 100 -10 136 -62v52h138v-467h-138zM180 234c0 -67 59 -111 117 -111c57 0 113 41 113 111s-56 111 -113 111c-58 0 -117 -44 -117 -111zM146 638c0 38 33 68 73 68
c39 0 71 -30 71 -68c0 -39 -32 -69 -71 -69c-40 0 -73 30 -73 69zM323 638c0 38 33 68 73 68c39 0 71 -30 71 -68c0 -39 -32 -69 -71 -69c-40 0 -73 30 -73 69z" />
    <glyph glyph-name="aring" unicode="&#xe5;" horiz-adv-x="612" 
d="M410 0v53c-30 -45 -100 -62 -136 -62c-119 0 -238 93 -238 243s119 243 238 243c30 0 100 -10 136 -62v52h138v-467h-138zM180 234c0 -67 59 -111 117 -111c57 0 113 41 113 111s-56 111 -113 111c-58 0 -117 -44 -117 -111zM186 659c0 69 53 123 120 123
c68 0 122 -54 122 -123c0 -67 -54 -120 -122 -120c-67 0 -120 53 -120 120zM251 659c0 -31 24 -55 55 -55c32 0 57 24 57 55c0 33 -25 58 -57 58c-31 0 -55 -25 -55 -58z" />
    <glyph glyph-name="ccedilla" unicode="&#xe7;" horiz-adv-x="525" 
d="M322 -8l31 -58c10 -18 10 -35 10 -49c0 -56 -49 -103 -107 -103c-39 0 -77 24 -95 65c-7 16 -9 26 -8 59l77 -4s-2 -13 1 -26c6 -16 23 -23 39 -19c16 7 21 25 15 42l-35 94c-117 17 -214 109 -214 242c0 147 120 242 254 242c83 0 158 -36 203 -99l-113 -81
c-19 30 -54 47 -90 47c-59 0 -116 -42 -116 -109s57 -112 116 -112c36 0 71 17 90 47l113 -80c-39 -55 -100 -90 -171 -98z" />
    <glyph glyph-name="egrave" unicode="&#xe8;" horiz-adv-x="550" 
d="M100 707h138l110 -168h-100zM392 154l101 -69c-47 -70 -134 -95 -213 -95c-134 0 -244 98 -244 245s110 242 244 242c133 0 239 -99 239 -246c0 -12 -1 -31 -2 -43h-342c7 -54 66 -78 115 -78c38 0 79 14 102 44zM177 275h202c-7 57 -59 80 -98 80s-92 -21 -104 -80z" />
    <glyph glyph-name="eacute" unicode="&#xe9;" horiz-adv-x="550" 
d="M323 707h138l-148 -168h-100zM392 154l101 -69c-47 -70 -134 -95 -213 -95c-134 0 -244 98 -244 245s110 242 244 242c133 0 239 -99 239 -246c0 -12 -1 -31 -2 -43h-342c7 -54 66 -78 115 -78c38 0 79 14 102 44zM177 275h202c-7 57 -59 80 -98 80s-92 -21 -104 -80z
" />
    <glyph glyph-name="ecircumflex" unicode="&#xea;" horiz-adv-x="550" 
d="M208 711h138l110 -168h-100l-79 89l-78 -89h-100zM392 154l101 -69c-47 -70 -134 -95 -213 -95c-134 0 -244 98 -244 245s110 242 244 242c133 0 239 -99 239 -246c0 -12 -1 -31 -2 -43h-342c7 -54 66 -78 115 -78c38 0 79 14 102 44zM177 275h202c-7 57 -59 80 -98 80
s-92 -21 -104 -80z" />
    <glyph glyph-name="edieresis" unicode="&#xeb;" horiz-adv-x="550" 
d="M117 638c0 38 33 68 73 68c39 0 71 -30 71 -68c0 -39 -32 -69 -71 -69c-40 0 -73 30 -73 69zM294 638c0 38 33 68 73 68c39 0 71 -30 71 -68c0 -39 -32 -69 -71 -69c-40 0 -73 30 -73 69zM392 154l101 -69c-47 -70 -134 -95 -213 -95c-134 0 -244 98 -244 245
s110 242 244 242c133 0 239 -99 239 -246c0 -12 -1 -31 -2 -43h-342c7 -54 66 -78 115 -78c38 0 79 14 102 44zM177 275h202c-7 57 -59 80 -98 80s-92 -21 -104 -80z" />
    <glyph glyph-name="igrave" unicode="&#xec;" horiz-adv-x="265" 
d="M64 467h137v-467h-137v467zM-45 707h138l110 -168h-100z" />
    <glyph glyph-name="iacute" unicode="&#xed;" horiz-adv-x="265" 
d="M201 467h-137v-467h137v467zM174 707h138l-148 -168h-100z" />
    <glyph glyph-name="icircumflex" unicode="&#xee;" horiz-adv-x="265" 
d="M64 467h137v-467h-137v467zM63 711h138l110 -168h-100l-79 89l-78 -89h-100z" />
    <glyph glyph-name="idieresis" unicode="&#xef;" horiz-adv-x="265" 
d="M201 467h-137v-467h137v467zM-30 638c0 38 33 68 73 68c39 0 71 -30 71 -68c0 -39 -32 -69 -71 -69c-40 0 -73 30 -73 69zM147 638c0 38 33 68 73 68c39 0 71 -30 71 -68c0 -39 -32 -69 -71 -69c-40 0 -73 30 -73 69z" />
    <glyph glyph-name="ntilde" unicode="&#xf1;" 
d="M203 247v-247h-139v467h139v-68c25 47 80 78 135 78c105 0 171 -65 171 -198v-279h-139v249c0 62 -34 93 -81 93c-49 0 -86 -24 -86 -95zM240 606c-7 0 -25 -11 -26 -43h-75c5 98 59 130 101 130s63 -41 87 -41c7 0 25 9 26 41h75c-4 -98 -61 -128 -101 -128
c-39 0 -64 41 -87 41z" />
    <glyph glyph-name="ograve" unicode="&#xf2;" horiz-adv-x="557" 
d="M278 128c58 0 106 42 106 107c0 63 -48 104 -106 104c-57 0 -105 -41 -105 -104c0 -65 48 -107 105 -107zM278 -8c-132 0 -242 96 -242 243s110 240 242 240s243 -93 243 -240s-111 -243 -243 -243zM78 707h138l110 -168h-100z" />
    <glyph glyph-name="oacute" unicode="&#xf3;" horiz-adv-x="557" 
d="M278 128c-57 0 -105 42 -105 107c0 63 48 104 105 104c58 0 106 -41 106 -104c0 -65 -48 -107 -106 -107zM278 -8c132 0 243 96 243 243s-111 240 -243 240s-242 -93 -242 -240s110 -243 242 -243zM329 707h138l-148 -168h-100z" />
    <glyph glyph-name="ocircumflex" unicode="&#xf4;" horiz-adv-x="557" 
d="M278 128c58 0 106 42 106 107c0 63 -48 104 -106 104c-57 0 -105 -41 -105 -104c0 -65 48 -107 105 -107zM278 -8c-132 0 -242 96 -242 243s110 240 242 240s243 -93 243 -240s-111 -243 -243 -243zM209 711h138l110 -168h-100l-79 89l-78 -89h-100z" />
    <glyph glyph-name="otilde" unicode="&#xf5;" horiz-adv-x="557" 
d="M278 128c58 0 106 42 106 107c0 63 -48 104 -106 104c-57 0 -105 -41 -105 -104c0 -65 48 -107 105 -107zM278 -8c-132 0 -242 96 -242 243s110 240 242 240s243 -93 243 -240s-111 -243 -243 -243zM235 606c-7 0 -25 -11 -26 -43h-75c5 98 59 130 101 130s63 -41 87 -41
c7 0 25 9 26 41h75c-4 -98 -61 -128 -101 -128c-39 0 -64 41 -87 41z" />
    <glyph glyph-name="odieresis" unicode="&#xf6;" horiz-adv-x="557" 
d="M278 128c-57 0 -105 42 -105 107c0 63 48 104 105 104c58 0 106 -41 106 -104c0 -65 -48 -107 -106 -107zM278 -8c132 0 243 96 243 243s-111 240 -243 240s-242 -93 -242 -240s110 -243 242 -243zM118 638c0 38 33 68 73 68c39 0 71 -30 71 -68c0 -39 -32 -69 -71 -69
c-40 0 -73 30 -73 69zM295 638c0 38 33 68 73 68c39 0 71 -30 71 -68c0 -39 -32 -69 -71 -69c-40 0 -73 30 -73 69z" />
    <glyph glyph-name="ugrave" unicode="&#xf9;" 
d="M131 707h138l110 -168h-100zM365 220v247h139v-467h-139v64c-25 -47 -76 -74 -121 -74c-105 0 -185 65 -185 198v279h139v-249c0 -74 51 -93 83 -93c43 0 84 24 84 95z" />
    <glyph glyph-name="uacute" unicode="&#xfa;" 
d="M304 707h138l-148 -168h-100zM365 220v247h139v-467h-139v64c-25 -47 -76 -74 -121 -74c-105 0 -185 65 -185 198v279h139v-249c0 -74 51 -93 83 -93c43 0 84 24 84 95z" />
    <glyph glyph-name="ucircumflex" unicode="&#xfb;" 
d="M211 711h138l110 -168h-100l-79 89l-78 -89h-100zM365 220v247h139v-467h-139v64c-25 -47 -76 -74 -121 -74c-105 0 -185 65 -185 198v279h139v-249c0 -74 51 -93 83 -93c43 0 84 24 84 95z" />
    <glyph glyph-name="udieresis" unicode="&#xfc;" 
d="M115 638c0 38 33 68 73 68c39 0 71 -30 71 -68c0 -39 -32 -69 -71 -69c-40 0 -73 30 -73 69zM292 638c0 38 33 68 73 68c39 0 71 -30 71 -68c0 -39 -32 -69 -71 -69c-40 0 -73 30 -73 69zM365 220v247h139v-467h-139v64c-25 -47 -76 -74 -121 -74
c-105 0 -185 65 -185 198v279h139v-249c0 -74 51 -93 83 -93c43 0 84 24 84 95z" />
    <glyph glyph-name="yacute" unicode="&#xfd;" horiz-adv-x="510" 
d="M218 -229l288 696h-148l-104 -265l-103 265h-148l180 -419l-112 -277h147zM277 707h138l-148 -168h-100z" />
    <glyph glyph-name="ydieresis" unicode="&#xff;" horiz-adv-x="510" 
d="M218 -229l288 696h-148l-104 -265l-103 265h-148l180 -419l-112 -277h147zM97 638c0 38 33 68 73 68c39 0 71 -30 71 -68c0 -39 -32 -69 -71 -69c-40 0 -73 30 -73 69zM274 638c0 38 33 68 73 68c39 0 71 -30 71 -68c0 -39 -32 -69 -71 -69c-40 0 -73 30 -73 69z" />
    <glyph glyph-name="Zcaron" unicode="&#x17d;" horiz-adv-x="595" 
d="M42 111l315 449h-302v129h492v-111l-318 -449h318v-129h-505v111zM363 760h-138l-109 168h100l78 -89l79 89h100z" />
    <glyph glyph-name="zcaron" unicode="&#x17e;" horiz-adv-x="510" 
d="M55 467h407v-104l-224 -235h224v-128h-421v103l220 236h-206v128zM320 538h-138l-109 168h100l78 -89l79 89h100z" />
    <glyph glyph-name="Ydieresis" unicode="&#x178;" horiz-adv-x="651" 
d="M400 0h-149v312l-266 377h174l166 -258l168 258h174l-267 -379v-310zM165 860c0 38 33 68 73 68c39 0 71 -30 71 -68c0 -39 -32 -69 -71 -69c-40 0 -73 30 -73 69zM342 860c0 38 33 68 73 68c39 0 71 -30 71 -68c0 -39 -32 -69 -71 -69c-40 0 -73 30 -73 69z" />
    <glyph glyph-name="OE" unicode="&#x152;" horiz-adv-x="1091" 
d="M596 620v69h436v-129h-290v-157h254v-127h-254v-147h299v-129h-445v67c-56 -50 -129 -77 -206 -77c-195 0 -349 159 -349 353c0 196 154 354 349 354c77 0 150 -24 206 -77zM187 343c0 -115 89 -208 203 -208s204 93 204 208s-90 209 -204 209s-203 -94 -203 -209z" />
    <glyph glyph-name="AE" unicode="&#xc6;" horiz-adv-x="934" 
d="M414 689h461v-129h-290v-157h254v-127h-254v-147h299v-129h-445v1l-1 -1v158h-184l-100 -158h-175zM438 493l-101 -194h101v194z" />
    <glyph glyph-name="zero" unicode="0" horiz-adv-x="604" 
d="M58 328c0 189 54 340 245 340s243 -151 243 -340c0 -187 -52 -338 -243 -338s-245 151 -245 338zM198 328c0 -110 25 -202 105 -202c79 0 103 92 103 202c0 111 -24 204 -103 204c-80 0 -105 -93 -105 -204z" />
    <glyph glyph-name="one" unicode="1" horiz-adv-x="377" 
d="M291 664v-664h-140v469l-112 -48v123z" />
    <glyph glyph-name="eight" unicode="8" horiz-adv-x="596" 
d="M96 485c0 101 91 183 202 183s203 -82 203 -183c0 -46 -18 -83 -48 -110c57 -33 94 -94 94 -165c0 -125 -112 -220 -249 -220s-249 95 -249 220c0 72 37 132 94 165c-29 28 -47 65 -47 110zM189 217c0 -55 51 -97 109 -97s109 42 109 97c0 50 -37 98 -110 98
c-71 0 -108 -48 -108 -98zM231 481c0 -33 22 -63 67 -63s67 30 67 63c0 32 -24 61 -67 61s-67 -29 -67 -61z" />
    <glyph glyph-name="seven" unicode="7" horiz-adv-x="550" 
d="M43 655h494l-289 -655h-159l231 526h-277v129z" />
    <glyph glyph-name="four" unicode="4" horiz-adv-x="602" 
d="M210 265h122v204zM556 147h-83v-147h-141v147h-313l306 508h148v-390h83v-118z" />
    <glyph glyph-name="five" unicode="5" horiz-adv-x="592" 
d="M405 231c0 73 -53 107 -121 107c-39 0 -107 -14 -144 -72l-77 40l54 349h384v-128h-273l-17 -106c26 23 77 34 120 34c118 0 214 -78 214 -224c0 -139 -105 -241 -270 -241c-91 0 -182 54 -232 132l118 76c26 -40 73 -68 114 -68c76 0 130 48 130 101z" />
    <glyph glyph-name="three" unicode="3" horiz-adv-x="552" 
d="M258 284h-69v120h69c69 0 64 68 64 71c0 20 -17 63 -66 63c-34 0 -57 -16 -69 -36l-113 69c39 62 116 102 204 97c114 -6 197 -90 194 -184c0 -54 -36 -101 -84 -128c72 -26 118 -108 112 -178c-11 -112 -127 -195 -258 -186c-92 6 -173 61 -209 137l123 61
c14 -31 60 -61 97 -63c50 -3 90 36 94 70c1 12 10 91 -89 87z" />
    <glyph glyph-name="two" unicode="2" horiz-adv-x="548" 
d="M477 0h-426v76l269 319c20 23 35 49 35 74c0 35 -30 65 -82 65c-50 0 -85 -39 -93 -91l-128 22c20 125 105 203 229 203c116 0 214 -81 214 -199c0 -63 -29 -121 -69 -166l-151 -171h202v-132z" />
    <glyph glyph-name="six" unicode="6" horiz-adv-x="586" 
d="M332 422c93 0 201 -70 201 -221c0 -126 -95 -211 -238 -211c-124 0 -223 89 -235 228c-16 202 19 458 265 450c78 -3 154 -27 202 -127l-131 -56c-18 38 -46 52 -76 52c-96 0 -123 -101 -120 -189c8 23 50 74 132 74zM388 209c0 47 -39 86 -86 86s-86 -39 -86 -86
s39 -86 86 -86s86 39 86 86z" />
    <glyph glyph-name="nine" unicode="9" horiz-adv-x="585" 
d="M253 236c-93 0 -201 70 -201 221c0 126 95 211 238 211c124 0 223 -89 235 -228c16 -202 -19 -458 -265 -450c-78 3 -154 27 -202 127l131 56c18 -38 46 -52 76 -52c96 0 123 101 120 189c-8 -23 -34 -74 -132 -74zM197 449c0 -47 39 -86 86 -86s86 39 86 86
s-39 86 -86 86s-86 -39 -86 -86z" />
    <glyph glyph-name="thorn" unicode="&#xfe;" horiz-adv-x="602" 
d="M205 235c0 -67 50 -113 108 -113c59 0 108 44 108 113c0 67 -49 111 -108 111c-57 0 -108 -41 -108 -111zM202 -229h-138v950h138v-311c23 43 79 67 137 67c120 0 226 -95 226 -245c0 -147 -106 -242 -226 -242c-58 0 -114 25 -137 68v-287z" />
    <glyph glyph-name="bracketleft" unicode="[" horiz-adv-x="338" 
d="M73 -229v918h231v-101h-113v-714h113v-103h-231z" />
    <glyph glyph-name="bracketright" unicode="]" horiz-adv-x="338" 
d="M265 689v-918h-231v103h113v714h-113v101h231z" />
    <glyph glyph-name="at" unicode="@" horiz-adv-x="964" 
d="M583 136v126c0 66 -52 117 -116 117c-63 0 -116 -51 -116 -117c0 -63 53 -115 116 -115c21 0 54 7 79 25v-94c-23 -10 -56 -19 -79 -19c-113 0 -205 90 -205 203c0 115 92 205 205 205c55 0 105 -21 142 -56c39 -35 62 -85 64 -139v-142c0 -47 32 -60 60 -60
c87 0 105 129 105 205c0 192 -166 333 -361 333c-193 0 -343 -158 -343 -351s150 -346 343 -346h33v-89h-33c-243 0 -432 192 -432 435s189 440 432 440s451 -180 451 -422c0 -119 -50 -293 -195 -293c-76 0 -150 39 -150 154z" />
    <glyph glyph-name="Euro" unicode="&#x20ac;" horiz-adv-x="829" 
d="M309 435h230v-63h-493v63h109c38 151 170 262 335 262c123 0 227 -58 287 -146l-119 -82c-37 54 -97 90 -168 90c-84 0 -151 -51 -181 -124zM539 256h-232c29 -76 98 -128 183 -128c72 0 135 39 172 95l118 -82c-60 -91 -165 -151 -290 -151c-167 0 -299 113 -336 266
h-108v63h493v-63z" />
    <glyph glyph-name="slash" unicode="/" horiz-adv-x="500" 
d="M360 689h111l-331 -689h-111z" />
    <glyph glyph-name="backslash" unicode="\" horiz-adv-x="500" 
d="M29 689h111l331 -689h-111z" />
    <glyph glyph-name="Eth" unicode="&#xd0;" horiz-adv-x="722" 
d="M2 284v98h94v307h270c198 0 311 -150 311 -346c0 -195 -113 -343 -311 -343h-270v284h-94zM242 284v-151h124c110 0 165 97 165 210c0 114 -55 213 -165 213h-124v-174h123v-98h-123z" />
    <glyph glyph-name="percent" unicode="%" horiz-adv-x="692" 
d="M539 655h-69l-322 -655h69zM36 528c0 74 58 134 133 134c74 0 134 -60 134 -134c0 -75 -60 -133 -134 -133c-75 0 -133 58 -133 133zM117 528c0 -30 22 -52 52 -52c29 0 53 22 53 52c0 29 -24 53 -53 53c-30 0 -52 -24 -52 -53zM390 123c0 74 58 134 133 134
c74 0 134 -60 134 -134c0 -75 -60 -133 -134 -133c-75 0 -133 58 -133 133zM471 123c0 -30 22 -52 52 -52c29 0 53 22 53 52c0 29 -24 53 -53 53c-30 0 -52 -24 -52 -53z" />
    <glyph glyph-name="perthousand" unicode="&#x2030;" horiz-adv-x="1013" 
d="M540 655h-69l-322 -655h69zM37 528c0 74 58 134 133 134c74 0 134 -60 134 -134c0 -75 -60 -133 -134 -133c-75 0 -133 58 -133 133zM118 528c0 -30 22 -52 52 -52c29 0 53 22 53 52c0 29 -24 53 -53 53c-30 0 -52 -24 -52 -53zM391 123c0 74 58 134 133 134
c74 0 134 -60 134 -134c0 -75 -60 -133 -134 -133c-75 0 -133 58 -133 133zM472 123c0 -30 22 -52 52 -52c29 0 53 22 53 52c0 29 -24 53 -53 53c-30 0 -52 -24 -52 -53zM712 123c0 74 58 134 133 134c74 0 134 -60 134 -134c0 -75 -60 -133 -134 -133
c-75 0 -133 58 -133 133zM793 123c0 -30 22 -52 52 -52c29 0 53 22 53 52c0 29 -24 53 -53 53c-30 0 -52 -24 -52 -53z" />
    <glyph glyph-name="periodcentered" unicode="&#xb7;" horiz-adv-x="281" 
d="M54 347c0 48 39 83 86 83s87 -35 87 -83c0 -49 -40 -84 -87 -84s-86 35 -86 84z" />
    <glyph glyph-name="Thorn" unicode="&#xde;" horiz-adv-x="572" 
d="M402 349c0 65 -42 104 -85 104h-90v-203h90c43 0 85 37 85 99zM324 126h-97v-126h-146v689h146v-112h97c124 0 223 -87 223 -224s-99 -227 -223 -227z" />
    <glyph glyph-name="mu" unicode="&#xb5;" horiz-adv-x="574" 
d="M72 -191v658h139v-249c0 -74 51 -93 83 -93c43 0 84 24 84 95v247h139v-467h-139v64c-25 -47 -76 -74 -121 -74c-25 0 -52 10 -72 27l14 -132v-76h-127z" />
    <glyph glyph-name="bullet" unicode="&#x2022;" horiz-adv-x="488" 
d="M84 238c0 89 73 154 160 154s160 -65 160 -154s-73 -154 -160 -154s-160 65 -160 154z" />
    <glyph glyph-name="yen" unicode="&#xa5;" horiz-adv-x="742" 
d="M712 689l-257 -365h146v-68h-156v-93h156v-68h-156v-95h-149v95h-155v68h155v93h-155v68h146l-257 365h174l166 -258l168 258h174z" />
    <glyph glyph-name="emdash" unicode="&#x2014;" horiz-adv-x="847" 
d="M60 173v124h727v-124h-727z" />
    <glyph glyph-name="endash" unicode="&#x2013;" horiz-adv-x="634" 
d="M60 173v124h514v-124h-514z" />
    <glyph glyph-name="daggerdbl" unicode="&#x2021;" horiz-adv-x="442" 
d="M283 689v-163h105v-98h-105v-200h105v-97h-105v-224h-124v224h-105v97h105v200h-105v98h105v163h124z" />
    <glyph glyph-name="dagger" unicode="&#x2020;" horiz-adv-x="410" 
d="M267 689v-163h105v-98h-105v-521h-124v521h-105v98h105v163h124z" />
    <glyph glyph-name="Lslash" unicode="&#x141;" horiz-adv-x="519" 
d="M89 291l-72 -45v95l72 45v303h147v-211l93 58v-95l-93 -58v-254h258v-129h-405v291z" />
    <glyph glyph-name="lslash" unicode="&#x142;" horiz-adv-x="316" 
d="M240 721v-255l86 54v-95l-86 -54v-371h-139v284l-87 -54v95l87 54v342h139z" />
    <glyph glyph-name="bar" unicode="|" horiz-adv-x="219" 
d="M73 802h73v-926h-73v926z" />
    <glyph glyph-name="Oslash" unicode="&#xd8;" horiz-adv-x="779" 
d="M171 67l-1 -1l-80 -82l-47 47l80 82c-52 62 -83 142 -83 230c0 196 154 354 349 354c85 0 163 -30 223 -81l79 81l47 -46l-80 -82c50 -61 81 -140 81 -226c0 -194 -154 -353 -350 -353c-83 0 -159 29 -218 77zM186 343c0 -47 14 -90 39 -125l285 293
c-33 26 -76 41 -121 41c-114 0 -203 -94 -203 -209zM389 135c114 0 204 93 204 208c0 45 -14 86 -38 120l-283 -291c33 -24 73 -37 117 -37z" />
    <glyph glyph-name="oslash" unicode="&#xf8;" horiz-adv-x="557" 
d="M278 -8c-53 0 -101 15 -141 42l-58 -59l-47 47l56 58c-33 40 -52 93 -52 155c0 147 110 242 242 242c56 0 108 -19 150 -50l52 54l47 -46l-53 -54c29 -39 47 -88 47 -146c0 -147 -111 -243 -243 -243zM278 341c-57 0 -105 -43 -105 -106c0 -21 4 -39 13 -54l143 146
c-15 8 -33 14 -51 14zM278 128c58 0 106 42 106 107c0 16 -4 31 -9 44l-139 -143c13 -6 27 -8 42 -8z" />
    <glyph glyph-name="equal" unicode="=" horiz-adv-x="596" 
d="M528 350h-460v98h460v-98zM68 247h460v-98h-460v98z" />
    <glyph glyph-name="plus" unicode="+" horiz-adv-x="509" 
d="M305 210v-155h-102v155h-154v102h154v154h102v-154h155v-102h-155z" />
    <glyph glyph-name="minus" unicode="&#x2212;" horiz-adv-x="505" 
d="M437 210h-369v102h369v-102z" />
    <glyph glyph-name="plusminus" unicode="&#xb1;" horiz-adv-x="547" 
d="M324 292v-143h-102v143h-154v102h154v141h102v-141h155v-102h-155zM479 -1h-411v102h411v-102z" />
    <glyph glyph-name="multiply" unicode="&#xd7;" horiz-adv-x="491" 
d="M316 259l117 -116l-72 -73l-117 117l-115 -114l-72 72l115 114l-116 116l72 72l116 -116l117 117l72 -72z" />
    <glyph glyph-name="divide" unicode="&#xf7;" horiz-adv-x="583" 
d="M214 65c0 44 35 75 78 75s79 -31 79 -75s-36 -76 -79 -76s-78 32 -78 76zM214 424c0 43 35 75 78 75s79 -32 79 -75c0 -45 -36 -76 -79 -76s-78 31 -78 76zM52 195h479v96h-479v-96z" />
    <glyph glyph-name="less" unicode="&#x3c;" horiz-adv-x="624" 
d="M46 244v112l502 192l1 -110l-362 -138l362 -138l-1 -110z" />
    <glyph glyph-name="greater" unicode="&#x3e;" horiz-adv-x="624" 
d="M578 356v-112l-502 -192l-1 110l362 138l-362 138l1 110z" />
    <glyph glyph-name="hyphen" unicode="-" horiz-adv-x="475" 
d="M61 191v110h353v-110h-353z" />
    <glyph glyph-name="underscore" unicode="_" horiz-adv-x="743" 
d="M60 -132v100h623v-100h-623z" />
    <glyph glyph-name="logicalnot" unicode="&#xac;" horiz-adv-x="628" 
d="M68 373h486v-269h-121v149h-365v120z" />
    <glyph glyph-name="paragraph" unicode="&#xb6;" horiz-adv-x="713" 
d="M343 689v-703c0 -16 -6 -24 -24 -24h-79v293c-114 7 -207 101 -207 217c0 120 96 217 217 217h93zM539 588h-34v-637c0 -69 -65 -137 -137 -137h-129v91h121c27 0 45 21 45 46v738h136c78 0 137 -65 137 -137v-85h-93v76c0 27 -21 45 -46 45z" />
    <glyph glyph-name="brokenbar" unicode="&#xa6;" horiz-adv-x="221" 
d="M147 420h-73v382h73v-382zM147 260v-384h-73v384h73z" />
    <glyph glyph-name="florin" unicode="&#x192;" horiz-adv-x="627" 
d="M30 -192l27 133h51c48 0 77 34 88 89l66 327h-88l22 110h88l7 32c28 143 121 222 255 222h51l-26 -133h-51c-48 0 -78 -34 -89 -89l-7 -32h94l-22 -110h-94l-73 -365c-24 -117 -127 -184 -248 -184h-51z" />
    <glyph glyph-name="copyright" unicode="&#xa9;" horiz-adv-x="797" 
d="M545 245l-67 45c-20 -27 -48 -46 -81 -46c-52 0 -89 43 -89 96c0 56 37 98 89 98c33 0 60 -20 80 -46l66 46c-32 48 -86 79 -146 79c-98 0 -173 -79 -173 -177c0 -96 75 -177 173 -177c60 0 116 33 148 82zM49 343c0 195 154 354 349 354s350 -159 350 -354
s-155 -353 -350 -353s-349 158 -349 353zM127 343c0 -151 120 -274 271 -274s271 123 271 274s-120 275 -271 275s-271 -124 -271 -275z" />
    <glyph glyph-name="registered" unicode="&#xae;" horiz-adv-x="797" 
d="M360 438h56c20 0 33 -23 33 -39c0 -20 -13 -42 -36 -42h-53v81zM541 174l-84 113c51 17 78 62 78 112c0 57 -37 114 -117 114h-142v-339h84v109h7l73 -109h101zM49 343c0 195 154 354 349 354s350 -159 350 -354s-155 -353 -350 -353s-349 158 -349 353zM127 343
c0 -151 120 -274 271 -274s271 123 271 274s-120 275 -271 275s-271 -124 -271 -275z" />
    <glyph glyph-name="degree" unicode="&#xb0;" horiz-adv-x="376" 
d="M44 529c0 79 65 144 143 144c80 0 145 -65 145 -144c0 -80 -65 -145 -145 -145c-78 0 -143 65 -143 145zM116 529c0 -41 32 -73 71 -73c41 0 73 32 73 73c0 40 -32 72 -73 72c-39 0 -71 -32 -71 -72z" />
    <glyph glyph-name="cent" unicode="&#xa2;" horiz-adv-x="538" 
d="M319 581v-105c72 -7 137 -42 177 -98l-113 -81c-19 30 -54 47 -90 47c-59 0 -116 -42 -116 -109s57 -112 116 -112c36 0 71 17 90 47l113 -80c-40 -57 -104 -92 -177 -99v-115h-73v118c-114 20 -207 111 -207 241c0 129 93 218 207 238v108h73z" />
    <glyph glyph-name="dollar" unicode="$" horiz-adv-x="575" 
d="M253 802h73v-108c111 -15 191 -91 191 -208h-146c0 46 -31 78 -89 78c-51 0 -89 -28 -89 -69c0 -18 7 -51 74 -70l82 -26c167 -48 191 -142 189 -208c-2 -124 -103 -189 -212 -200v-115h-73v115c-130 13 -213 97 -213 211h147c2 -44 37 -83 103 -83c59 0 100 28 101 73
c1 31 -13 58 -83 78l-83 23c-152 47 -178 136 -178 198c0 113 89 192 206 204v107z" />
    <glyph glyph-name="numbersign" unicode="#" horiz-adv-x="723" 
d="M574 515h115l-26 -92h-115l-52 -168h115l-27 -92h-114l-53 -163h-109l51 163h-102l-52 -163h-108l52 163h-114l26 92h113l51 168h-112l26 92h113l52 174h111l-52 -174h101l53 174h110zM335 423l-51 -168h101l52 168h-102z" />
    <glyph glyph-name="currency" unicode="&#xa4;" horiz-adv-x="621" 
d="M227 339c0 -46 37 -83 83 -83c47 0 84 37 84 83c0 47 -37 84 -84 84c-46 0 -83 -37 -83 -84zM203 164l-71 -72l-69 69l71 72c-20 32 -29 66 -29 106s10 75 30 107l-72 72l69 69l72 -72c30 18 68 30 106 30c39 0 75 -10 107 -30l71 72l69 -69l-72 -73
c19 -32 31 -66 31 -106s-10 -75 -30 -106l71 -72l-69 -69l-71 72c-32 -20 -67 -30 -107 -30s-75 10 -107 30z" />
    <glyph glyph-name="ampersand" unicode="&#x26;" horiz-adv-x="694" 
d="M286 -10c-133 0 -235 83 -235 201c0 87 39 149 114 176c-49 16 -87 67 -87 137c0 98 83 187 201 193c85 4 154 -33 197 -89l-118 -72c-14 14 -29 26 -56 26c-51 0 -71 -38 -71 -68c0 -3 0 -78 80 -78h114v78h129v-78h80v-112h-80v-102c0 -79 16 -91 93 -91v-121
c-107 1 -170 10 -194 86c-26 -56 -109 -86 -167 -86zM425 304h-118c-96 0 -110 -73 -104 -102c10 -49 45 -76 104 -76c38 0 118 26 118 123v55z" />
    <glyph glyph-name="quotesinglbase" unicode="&#x201a;" horiz-adv-x="256" 
d="M42 -124l-54 31c42 59 94 125 94 260h114c0 -127 -108 -254 -154 -291z" />
    <glyph glyph-name="quotedblbase" unicode="&#x201e;" horiz-adv-x="427" 
d="M42 -124l-54 31c42 59 94 125 94 260h114c0 -127 -108 -254 -154 -291zM213 -124l-54 31c42 59 94 125 94 260h114c0 -127 -108 -254 -154 -291z" />
    <glyph glyph-name="quoteright" unicode="&#x2019;" horiz-adv-x="272" 
d="M88 406l-54 31c42 59 94 125 94 260h114c0 -127 -108 -254 -154 -291z" />
    <glyph glyph-name="quotedblright" unicode="&#x201d;" horiz-adv-x="443" 
d="M88 406l-54 31c42 59 94 125 94 260h114c0 -127 -108 -254 -154 -291zM259 406l-54 31c42 59 94 125 94 260h114c0 -127 -108 -254 -154 -291z" />
    <glyph glyph-name="quotedblleft" unicode="&#x201c;" horiz-adv-x="452" 
d="M373 697l54 -31c-42 -59 -94 -125 -94 -260h-114c0 127 108 254 154 291zM202 697l54 -31c-42 -59 -94 -125 -94 -260h-114c0 127 108 254 154 291z" />
    <glyph glyph-name="quoteleft" unicode="&#x2018;" horiz-adv-x="281" 
d="M202 697l54 -31c-42 -59 -94 -125 -94 -260h-114c0 127 108 254 154 291z" />
    <glyph glyph-name="trademark" unicode="&#x2122;" horiz-adv-x="851" 
d="M336 325l36 289h-108v-289h-84v289h-118v75h388l111 -226l108 226h72l44 -364h-84l-25 222l-85 -181h-60l-85 181l-27 -222h-83z" />
    <glyph glyph-name="germandbls" unicode="&#xdf;" horiz-adv-x="566" 
d="M231 1l27 131c24 -4 34 -4 47 -4c58 0 93 50 93 100c0 34 -20 99 -100 99h-27v121h17c35 0 52 28 52 62c0 36 -27 59 -71 59c-34 0 -67 -24 -67 -68v-501h-138v490c0 132 87 207 202 207c128 0 209 -76 209 -166c0 -59 -19 -96 -63 -124c66 -32 117 -95 117 -189
c0 -127 -72 -228 -224 -228c-26 0 -44 2 -74 11z" />
    <glyph glyph-name="Scaron" unicode="&#x160;" horiz-adv-x="582" 
d="M44 202h147c2 -44 37 -83 103 -83c59 0 100 28 101 73c1 31 -13 58 -83 78l-83 23c-152 47 -178 136 -178 198c0 123 105 206 237 206c133 0 233 -79 233 -211h-146c0 46 -31 78 -89 78c-51 0 -89 -28 -89 -69c0 -18 7 -51 74 -70l82 -26c167 -48 191 -142 189 -208
c-2 -137 -126 -202 -248 -202c-150 0 -250 89 -250 213zM362 760h-138l-109 168h100l78 -89l79 89h100z" />
    <glyph glyph-name="scaron" unicode="&#x161;" horiz-adv-x="467" 
d="M246 176l-61 16c-140 38 -141 109 -140 152c1 69 84 133 182 133c93 0 191 -41 192 -155h-131c-1 35 -31 41 -53 41c-30 0 -50 -14 -49 -35c1 -14 13 -28 41 -35l79 -21c113 -31 127 -106 127 -136c0 -99 -104 -146 -202 -146c-95 0 -194 57 -195 161h130
c1 -27 31 -54 69 -54c31 1 57 15 57 39c0 20 -12 31 -46 40zM303 538h-138l-109 168h100l78 -89l79 89h100z" />
    <glyph glyph-name="fraction" unicode="&#x2044;" horiz-adv-x="180" 
d="M354 668l-451 -678h-83l452 678h82z" />
    <glyph glyph-name="section" unicode="&#xa7;" horiz-adv-x="541" 
d="M322 228v-122c-21 -5 -36 -6 -50 -6c-116 0 -213 82 -213 210v176c0 128 97 210 213 210c90 0 188 -52 210 -165l-117 -35c-16 57 -57 77 -93 77c-48 0 -89 -34 -89 -87v-176c0 -54 41 -86 89 -86h6c10 0 23 0 44 4zM219 301v122c21 5 36 6 50 6c116 0 213 -82 213 -210
v-176c0 -128 -97 -210 -213 -210c-90 0 -188 52 -210 165l117 35c16 -57 57 -77 93 -77c48 0 89 34 89 87v176c0 54 -41 86 -89 86h-6c-10 0 -23 0 -44 -4z" />
    <glyph glyph-name="braceleft" unicode="{" horiz-adv-x="412" 
d="M31 188v84c29 0 61 21 61 58v159c-1 122 91 200 202 200h85v-101h-88c-45 0 -82 -37 -82 -86v-164c0 -62 -46 -99 -79 -108c33 -9 79 -46 79 -108v-153c0 -49 37 -93 82 -93h88v-105h-85c-111 0 -203 78 -202 200v159c0 37 -32 58 -61 58z" />
    <glyph glyph-name="braceright" unicode="}" horiz-adv-x="412" 
d="M381 272v-84c-29 0 -61 -21 -61 -58v-159c1 -122 -91 -200 -202 -200h-85v105h88c45 0 82 44 82 93v153c0 62 46 99 79 108c-33 9 -79 46 -79 108v164c0 49 -37 86 -82 86h-88v101h85c111 0 203 -78 202 -200v-159c0 -37 32 -58 61 -58z" />
    <glyph glyph-name="guilsinglleft" unicode="&#x2039;" horiz-adv-x="328" 
d="M39 233l138 207h108l-138 -207l138 -207h-108z" />
    <glyph glyph-name="guilsinglright" unicode="&#x203a;" horiz-adv-x="328" 
d="M289 233l-138 -207h-108l138 207l-138 207h108z" />
    <glyph glyph-name="guillemotleft" unicode="&#xab;" horiz-adv-x="505" 
d="M39 233l138 207h108l-138 -207l138 -207h-108zM216 233l138 207h108l-138 -207l138 -207h-108z" />
    <glyph glyph-name="guillemotright" unicode="&#xbb;" horiz-adv-x="505" 
d="M466 233l-138 -207h-108l138 207l-138 207h108zM289 233l-138 -207h-108l138 207l-138 207h108z" />
    <glyph glyph-name="oe" unicode="&#x153;" horiz-adv-x="901" 
d="M453 63c-44 -45 -107 -71 -175 -71c-132 0 -242 96 -242 243s110 242 242 242c68 0 131 -26 176 -71c44 45 107 71 177 71c133 0 239 -99 239 -246c0 -12 -1 -31 -2 -43h-342c7 -54 66 -78 115 -78c38 0 79 14 102 44l101 -69c-47 -70 -134 -95 -213 -95
c-70 0 -133 27 -178 73zM278 128c58 0 106 42 106 107c0 63 -48 106 -106 106c-57 0 -105 -43 -105 -106c0 -65 48 -107 105 -107zM528 275h202c-7 57 -59 80 -98 80s-92 -21 -104 -80z" />
    <glyph glyph-name="question" unicode="?" horiz-adv-x="496" 
d="M274 230l-2 -22h-136l-2 22c0 107 2 155 109 201l40 17c35 19 37 33 37 55c0 30 -29 54 -71 54s-71 -27 -71 -69h-140c0 128 86 209 211 209s211 -75 211 -195c0 -97 -56 -165 -134 -189c-41 -12 -52 -36 -52 -83zM120 74c0 48 39 83 86 83s87 -35 87 -83
c0 -49 -40 -84 -87 -84s-86 35 -86 84z" />
    <glyph glyph-name="questiondown" unicode="&#xbf;" horiz-adv-x="487" 
d="M218 237l2 22h136l2 -22c0 -107 -2 -155 -109 -201l-40 -17c-35 -19 -37 -33 -37 -55c0 -30 29 -54 71 -54s71 27 71 69h140c0 -128 -86 -209 -211 -209s-211 75 -211 195c0 97 56 165 134 189c41 12 52 36 52 83zM372 393c0 -48 -39 -83 -86 -83s-87 35 -87 83
c0 49 40 84 87 84s86 -35 86 -84z" />
    <glyph glyph-name="sterling" unicode="&#xa3;" horiz-adv-x="680" 
d="M287 279v-155h184c18 0 30 16 30 36v29h137v-56c0 -76 -55 -133 -126 -133h-471v124h106v155h-83v63h83v131c0 137 90 224 213 224s227 -72 227 -230h-145c0 64 -37 82 -79 82c-46 0 -76 -30 -76 -76v-131h115v-63h-115z" />
    <glyph glyph-name="eth" unicode="&#xf0;" horiz-adv-x="559" 
d="M327 585l149 -205c29 -39 46 -88 46 -145c0 -147 -111 -243 -243 -243s-242 96 -242 243c0 145 112 241 247 232l-58 73l-85 -39l-29 49l81 36l-74 103h133l42 -58l86 39l35 -45zM279 128c58 0 106 42 106 107c0 63 -48 104 -106 104c-57 0 -105 -41 -105 -104
c0 -65 48 -107 105 -107z" />
    <glyph glyph-name="asterisk" unicode="*" horiz-adv-x="476" 
d="M164 336l-76 58l82 101l-126 36l31 93l121 -48l-8 131h100l-9 -130l123 47l29 -93l-125 -34l83 -104l-78 -55l-71 108z" />
    <glyph glyph-name="parenleft" unicode="(" horiz-adv-x="388" 
d="M39 228c0 271 137 469 317 469v-109c-99 0 -200 -176 -200 -360s101 -353 200 -353v-108c-180 0 -317 190 -317 461z" />
    <glyph glyph-name="parenright" unicode=")" horiz-adv-x="388" 
d="M349 228c0 -271 -137 -461 -317 -461v108c99 0 200 169 200 353s-101 360 -200 360v109c180 0 317 -198 317 -469z" />
    <glyph glyph-name="ae" unicode="&#xe6;" horiz-adv-x="970" 
d="M812 154l101 -69c-47 -70 -134 -95 -213 -95c-58 0 -110 18 -152 50v-40h-138v53c-30 -45 -100 -62 -136 -62c-119 0 -238 93 -238 243s119 243 238 243c30 0 100 -10 136 -62v52h138v-39c42 31 94 49 152 49c133 0 239 -99 239 -246c0 -12 -1 -31 -2 -43h-342
c7 -54 66 -78 115 -78c38 0 79 14 102 44zM180 234c0 -67 59 -111 117 -111c57 0 113 41 113 111s-56 111 -113 111c-58 0 -117 -44 -117 -111zM597 275h202c-7 57 -59 80 -98 80s-92 -21 -104 -80z" />
    <glyph glyph-name="macron" unicode="&#xaf;" horiz-adv-x="518" 
d="M120 587v85h278v-85h-278z" />
    <glyph glyph-name="Amacron" unicode="&#x100;" horiz-adv-x="659" 
d="M259 290h143l-73 240zM449 163h-238l-61 -163h-156l256 689h159l255 -689h-154zM190 809v85h278v-85h-278z" />
    <glyph glyph-name="amacron" unicode="&#x101;" horiz-adv-x="612" 
d="M410 0v53c-30 -45 -100 -62 -136 -62c-119 0 -238 93 -238 243s119 243 238 243c30 0 100 -10 136 -62v52h138v-467h-138zM180 234c0 -67 59 -111 117 -111c57 0 113 41 113 111s-56 111 -113 111c-58 0 -117 -44 -117 -111zM168 587v85h278v-85h-278z" />
    <glyph glyph-name="Abreve" unicode="&#x102;" horiz-adv-x="659" 
d="M259 290h143l-73 240zM449 163h-238l-61 -163h-156l256 689h159l255 -689h-154zM194 911h85c0 -34 14 -53 49 -53s48 25 48 53h87c0 -79 -56 -131 -135 -131c-92 0 -134 65 -134 131z" />
    <glyph glyph-name="abreve" unicode="&#x103;" horiz-adv-x="612" 
d="M410 0v53c-30 -45 -100 -62 -136 -62c-119 0 -238 93 -238 243s119 243 238 243c30 0 100 -10 136 -62v52h138v-467h-138zM180 234c0 -67 59 -111 117 -111c57 0 113 41 113 111s-56 111 -113 111c-58 0 -117 -44 -117 -111zM172 689h85c0 -34 14 -53 49 -53s48 25 48 53
h87c0 -79 -56 -131 -135 -131c-92 0 -134 65 -134 131z" />
    <glyph glyph-name="Cacute" unicode="&#x106;" horiz-adv-x="699" 
d="M559 223c-37 -56 -100 -95 -172 -95c-115 0 -199 96 -199 215c0 120 84 216 199 216c71 0 131 -36 168 -90l119 82c-60 88 -164 146 -287 146c-197 0 -346 -158 -346 -354c0 -194 149 -353 346 -353c125 0 230 60 290 151zM441 929h138l-148 -168h-100z" />
    <glyph glyph-name="cacute" unicode="&#x107;" horiz-adv-x="525" 
d="M36 235c0 147 120 242 254 242c83 0 158 -36 203 -99l-113 -81c-19 30 -54 47 -90 47c-59 0 -116 -42 -116 -109s57 -112 116 -112c36 0 71 17 90 47l113 -80c-44 -63 -119 -100 -203 -100c-134 0 -254 98 -254 245zM322 707h138l-148 -168h-100z" />
    <glyph glyph-name="Ccircumflex" unicode="&#x108;" horiz-adv-x="699" 
d="M559 223l118 -82c-60 -91 -165 -151 -290 -151c-197 0 -346 159 -346 353c0 196 149 354 346 354c123 0 227 -58 287 -146l-119 -82c-37 54 -97 90 -168 90c-115 0 -199 -96 -199 -216c0 -119 84 -215 199 -215c72 0 135 39 172 95zM314 933h138l110 -168h-100l-79 89
l-78 -89h-100z" />
    <glyph glyph-name="ccircumflex" unicode="&#x109;" horiz-adv-x="525" 
d="M36 235c0 147 120 242 254 242c83 0 158 -36 203 -99l-113 -81c-19 30 -54 47 -90 47c-59 0 -116 -42 -116 -109s57 -112 116 -112c36 0 71 17 90 47l113 -80c-44 -63 -119 -100 -203 -100c-134 0 -254 98 -254 245zM213 711h138l110 -168h-100l-79 89l-78 -89h-100z" />
    <glyph glyph-name="Cdotaccent" unicode="&#x10a;" horiz-adv-x="699" 
d="M559 223c-37 -56 -100 -95 -172 -95c-115 0 -199 96 -199 215c0 120 84 216 199 216c71 0 131 -36 168 -90l119 82c-60 88 -164 146 -287 146c-197 0 -346 -158 -346 -354c0 -194 149 -353 346 -353c125 0 230 60 290 151zM306 867c0 42 34 74 77 74s77 -32 77 -74
c0 -44 -34 -75 -77 -75s-77 31 -77 75z" />
    <glyph glyph-name="cdotaccent" unicode="&#x10b;" horiz-adv-x="525" 
d="M36 235c0 147 120 242 254 242c83 0 158 -36 203 -99l-113 -81c-19 30 -54 47 -90 47c-59 0 -116 -42 -116 -109s57 -112 116 -112c36 0 71 17 90 47l113 -80c-44 -63 -119 -100 -203 -100c-134 0 -254 98 -254 245zM202 645c0 42 34 74 77 74s77 -32 77 -74
c0 -44 -34 -75 -77 -75s-77 31 -77 75z" />
    <glyph glyph-name="Ccaron" unicode="&#x10c;" horiz-adv-x="699" 
d="M559 223l118 -82c-60 -91 -165 -151 -290 -151c-197 0 -346 159 -346 353c0 196 149 354 346 354c123 0 227 -58 287 -146l-119 -82c-37 54 -97 90 -168 90c-115 0 -199 -96 -199 -216c0 -119 84 -215 199 -215c72 0 135 39 172 95zM444 760h-138l-109 168h100l78 -89
l79 89h100z" />
    <glyph glyph-name="ccaron" unicode="&#x10d;" horiz-adv-x="525" 
d="M36 235c0 147 120 242 254 242c83 0 158 -36 203 -99l-113 -81c-19 30 -54 47 -90 47c-59 0 -116 -42 -116 -109s57 -112 116 -112c36 0 71 17 90 47l113 -80c-44 -63 -119 -100 -203 -100c-134 0 -254 98 -254 245zM344 538h-138l-109 168h100l78 -89l79 89h100z" />
    <glyph glyph-name="Dcaron" unicode="&#x10e;" horiz-adv-x="707" 
d="M227 556v-423h124c110 0 165 97 165 210c0 114 -55 213 -165 213h-124zM351 0h-270v689h270c198 0 311 -150 311 -346c0 -195 -113 -343 -311 -343zM410 760h-138l-109 168h100l78 -89l79 89h100z" />
    <glyph glyph-name="Aogonek" unicode="&#x104;" horiz-adv-x="659" 
d="M664 0h-84l-37 -101c-6 -17 -1 -35 15 -42c16 -4 33 3 39 19c3 13 1 26 1 26l77 4c1 -33 -1 -43 -8 -59c-18 -41 -56 -65 -95 -65c-58 0 -107 47 -107 103c0 14 0 30 10 49l35 66l-61 163h-238l-61 -163h-156l256 689h159zM259 290h143l-73 240z" />
    <glyph glyph-name="aogonek" unicode="&#x105;" horiz-adv-x="612" 
d="M180 234c0 -67 59 -111 117 -111c57 0 113 41 113 111s-56 111 -113 111c-58 0 -117 -44 -117 -111zM548 0h-68l-37 -101c-6 -17 -1 -35 15 -42c16 -4 33 3 39 19c3 13 1 26 1 26l77 4c1 -33 -1 -43 -8 -59c-18 -41 -56 -65 -95 -65c-58 0 -107 47 -107 103
c0 14 0 30 10 49l35 66v53c-30 -45 -100 -62 -136 -62c-119 0 -238 93 -238 243s119 243 238 243c30 0 100 -10 136 -62v52h138v-467z" />
    <glyph glyph-name="Emacron" unicode="&#x112;" horiz-adv-x="576" 
d="M81 0v689h436v-129h-290v-157h254v-127h-254v-147h299v-129h-445zM144 809v85h278v-85h-278z" />
    <glyph glyph-name="emacron" unicode="&#x113;" horiz-adv-x="550" 
d="M138 587v85h278v-85h-278zM392 154l101 -69c-47 -70 -134 -95 -213 -95c-134 0 -244 98 -244 245s110 242 244 242c133 0 239 -99 239 -246c0 -12 -1 -31 -2 -43h-342c7 -54 66 -78 115 -78c38 0 79 14 102 44zM177 275h202c-7 57 -59 80 -98 80s-92 -21 -104 -80z" />
    <glyph glyph-name="Ebreve" unicode="&#x114;" horiz-adv-x="576" 
d="M81 689v-689h445v129h-299v147h254v127h-254v157h290v129h-436zM149 911h85c0 -34 14 -53 49 -53s48 25 48 53h87c0 -79 -56 -131 -135 -131c-92 0 -134 65 -134 131z" />
    <glyph glyph-name="ebreve" unicode="&#x115;" horiz-adv-x="550" 
d="M143 689h85c0 -34 14 -53 49 -53s48 25 48 53h87c0 -79 -56 -131 -135 -131c-92 0 -134 65 -134 131zM392 154l101 -69c-47 -70 -134 -95 -213 -95c-134 0 -244 98 -244 245s110 242 244 242c133 0 239 -99 239 -246c0 -12 -1 -31 -2 -43h-342c7 -54 66 -78 115 -78
c38 0 79 14 102 44zM177 275h202c-7 57 -59 80 -98 80s-92 -21 -104 -80z" />
    <glyph glyph-name="Edotaccent" unicode="&#x116;" horiz-adv-x="576" 
d="M81 689v-689h445v129h-299v147h254v127h-254v157h290v129h-436zM216 867c0 42 34 74 77 74s77 -32 77 -74c0 -44 -34 -75 -77 -75s-77 31 -77 75z" />
    <glyph glyph-name="edotaccent" unicode="&#x117;" horiz-adv-x="550" 
d="M200 645c0 42 34 74 77 74s77 -32 77 -74c0 -44 -34 -75 -77 -75s-77 31 -77 75zM392 154l101 -69c-47 -70 -134 -95 -213 -95c-134 0 -244 98 -244 245s110 242 244 242c133 0 239 -99 239 -246c0 -12 -1 -31 -2 -43h-342c7 -54 66 -78 115 -78c38 0 79 14 102 44z
M177 275h202c-7 57 -59 80 -98 80s-92 -21 -104 -80z" />
    <glyph glyph-name="Ecaron" unicode="&#x11a;" horiz-adv-x="576" 
d="M81 0v689h436v-129h-290v-157h254v-127h-254v-147h299v-129h-445zM352 760h-138l-109 168h100l78 -89l79 89h100z" />
    <glyph glyph-name="ecaron" unicode="&#x11b;" horiz-adv-x="550" 
d="M346 538h-138l-109 168h100l78 -89l79 89h100zM392 154l101 -69c-47 -70 -134 -95 -213 -95c-134 0 -244 98 -244 245s110 242 244 242c133 0 239 -99 239 -246c0 -12 -1 -31 -2 -43h-342c7 -54 66 -78 115 -78c38 0 79 14 102 44zM177 275h202c-7 57 -59 80 -98 80
s-92 -21 -104 -80z" />
    <glyph glyph-name="Gcircumflex" unicode="&#x11c;" horiz-adv-x="756" 
d="M653 584l-108 -93c-38 43 -91 70 -151 70c-116 0 -206 -98 -206 -218c0 -119 90 -219 206 -219c74 0 166 46 167 119h-185v119h354c0 -258 -138 -372 -336 -372s-353 159 -353 353c0 196 155 354 353 354c106 0 199 -44 259 -113zM312 933h138l110 -168h-100l-79 89
l-78 -89h-100z" />
    <glyph glyph-name="gcircumflex" unicode="&#x11d;" horiz-adv-x="608" 
d="M406 235c0 70 -55 110 -113 110c-59 0 -112 -44 -112 -110c0 -70 53 -114 112 -114c57 0 113 46 113 114zM162 -33c16 -43 71 -75 118 -75c106 0 135 73 129 166c-22 -43 -82 -68 -140 -68c-120 0 -233 95 -233 242c0 150 113 245 233 245c58 0 117 -25 140 -68v58h135
v-402c0 -201 -98 -298 -264 -298c-103 0 -191 58 -230 145c35 17 77 38 112 55zM235 711h138l110 -168h-100l-79 89l-78 -89h-100z" />
    <glyph glyph-name="Gbreve" unicode="&#x11e;" horiz-adv-x="756" 
d="M653 584l-108 -93c-38 43 -91 70 -151 70c-116 0 -206 -98 -206 -218c0 -119 90 -219 206 -219c74 0 166 46 167 119h-185v119h354c0 -258 -138 -372 -336 -372s-353 159 -353 353c0 196 155 354 353 354c106 0 199 -44 259 -113zM247 911h85c0 -34 14 -53 49 -53
s48 25 48 53h87c0 -79 -56 -131 -135 -131c-92 0 -134 65 -134 131z" />
    <glyph glyph-name="gbreve" unicode="&#x11f;" horiz-adv-x="608" 
d="M406 235c0 -68 -56 -114 -113 -114c-59 0 -112 44 -112 114c0 66 53 110 112 110c58 0 113 -40 113 -110zM162 -33c-35 -17 -77 -38 -112 -55c39 -87 127 -145 230 -145c166 0 264 97 264 298v402h-135v-58c-23 43 -82 68 -140 68c-120 0 -233 -95 -233 -245
c0 -147 113 -242 233 -242c58 0 118 25 140 68c6 -93 -23 -166 -129 -166c-47 0 -102 32 -118 75zM170 689h85c0 -34 14 -53 49 -53s48 25 48 53h87c0 -79 -56 -131 -135 -131c-92 0 -134 65 -134 131z" />
    <glyph glyph-name="Eogonek" unicode="&#x118;" horiz-adv-x="576" 
d="M542 -124c3 13 1 26 1 26l77 4c1 -33 -1 -43 -8 -59c-18 -41 -56 -65 -95 -65c-58 0 -107 47 -107 103c0 14 1 30 10 49l35 66h-374v689h436v-129h-290v-157h254v-127h-254v-147h299v-129l-38 -101c-7 -17 -1 -35 15 -42c16 -4 33 3 39 19z" />
    <glyph glyph-name="eogonek" unicode="&#x119;" horiz-adv-x="551" 
d="M392 154l101 -69c-19 -27 -77 -65 -104 -186c-4 -25 -1 -35 15 -42c16 -4 33 3 39 19c3 13 1 26 1 26l77 4c1 -33 -1 -43 -8 -59c-18 -41 -56 -65 -95 -65c-58 0 -107 47 -107 103c0 14 0 30 10 49l34 64c-24 -5 -47 -8 -75 -8c-134 0 -244 98 -244 245s110 242 244 242
c133 0 239 -99 239 -246c0 -12 -1 -31 -2 -43h-342c7 -54 66 -78 115 -78c38 0 79 14 102 44zM177 275h202c-7 57 -59 80 -98 80s-92 -21 -104 -80z" />
    <glyph glyph-name="dcaron" unicode="&#x10f;" horiz-adv-x="635" 
d="M397 235c0 70 -51 111 -108 111c-59 0 -108 -44 -108 -111c0 -69 49 -113 108 -113c58 0 108 46 108 113zM538 0h-138v58c-23 -43 -79 -68 -137 -68c-120 0 -226 95 -226 242c0 150 106 245 226 245c58 0 114 -24 137 -67v311h138v-721zM636 458l-68 35
c42 59 59 105 58 196h117c-10 -129 -61 -193 -107 -231z" />
    <glyph glyph-name="Dcroat" unicode="&#x110;" horiz-adv-x="722" 
d="M2 284v98h94v307h270c198 0 311 -150 311 -346c0 -195 -113 -343 -311 -343h-270v284h-94zM242 284v-151h124c110 0 165 97 165 210c0 114 -55 213 -165 213h-124v-174h123v-98h-123z" />
    <glyph glyph-name="dcroat" unicode="&#x111;" horiz-adv-x="602" 
d="M251 557v86h149v78h138v-78h76v-86h-76v-557h-138v58c-23 -43 -79 -68 -137 -68c-120 0 -226 95 -226 242c0 150 106 245 226 245c58 0 114 -24 137 -67v147h-149zM397 235c0 70 -51 111 -108 111c-59 0 -108 -44 -108 -111c0 -69 49 -113 108 -113c58 0 108 46 108 113z
" />
    <glyph glyph-name="Gdotaccent" unicode="&#x120;" horiz-adv-x="756" 
d="M653 584l-108 -93c-38 43 -91 70 -151 70c-116 0 -206 -98 -206 -218c0 -119 90 -219 206 -219c74 0 166 46 167 119h-185v119h354c0 -258 -138 -372 -336 -372s-353 159 -353 353c0 196 155 354 353 354c106 0 199 -44 259 -113zM304 867c0 42 34 74 77 74
s77 -32 77 -74c0 -44 -34 -75 -77 -75s-77 31 -77 75z" />
    <glyph glyph-name="gdotaccent" unicode="&#x121;" horiz-adv-x="608" 
d="M406 235c0 -68 -56 -114 -113 -114c-59 0 -112 44 -112 114c0 66 53 110 112 110c58 0 113 -40 113 -110zM162 -33c-35 -17 -77 -38 -112 -55c39 -87 127 -145 230 -145c166 0 264 97 264 298v402h-135v-58c-23 43 -82 68 -140 68c-120 0 -233 -95 -233 -245
c0 -147 113 -242 233 -242c58 0 118 25 140 68c6 -93 -23 -166 -129 -166c-47 0 -102 32 -118 75zM228 645c0 42 34 74 77 74s77 -32 77 -74c0 -44 -34 -75 -77 -75s-77 31 -77 75z" />
    <glyph glyph-name="Hcircumflex" unicode="&#x124;" horiz-adv-x="701" 
d="M472 689h148v-689h-148v277h-245v-277h-146v689h146v-281h245v281zM281 933h138l110 -168h-100l-79 89l-78 -89h-100z" />
    <glyph glyph-name="hcircumflex" unicode="&#x125;" horiz-adv-x="579" 
d="M203 247v-247h-139v721h139v-327c19 58 87 83 131 83c123 0 187 -82 187 -223v-254h-139v249c0 61 -44 93 -86 93c-44 0 -93 -24 -93 -95zM63 940h138l110 -168h-100l-79 89l-78 -89h-100z" />
    <glyph glyph-name="Hbar" unicode="&#x126;" horiz-adv-x="715" 
d="M88 512h-72v81h72v96h146v-96h245v96h148v-96h72v-81h-72v-512h-148v277h-245v-277h-146v512zM234 408h245v104h-245v-104z" />
    <glyph glyph-name="hbar" unicode="&#x127;" horiz-adv-x="579" 
d="M203 247v-247h-139v557h-76v86h76v78h139v-78h148v-86h-148v-163c19 58 87 83 131 83c123 0 187 -82 187 -223v-254h-139v249c0 61 -44 93 -86 93c-44 0 -93 -24 -93 -95z" />
    <glyph glyph-name="Itilde" unicode="&#x128;" horiz-adv-x="308" 
d="M81 689h146v-689h-146v689zM111 828c-7 0 -25 -11 -26 -43h-75c5 98 59 130 101 130s63 -41 87 -41c7 0 25 9 26 41h75c-4 -98 -61 -128 -101 -128c-39 0 -64 41 -87 41z" />
    <glyph glyph-name="itilde" unicode="&#x129;" horiz-adv-x="265" 
d="M64 467h137v-467h-137v467zM100 606c-7 0 -25 -11 -26 -43h-75c5 98 59 130 101 130s63 -41 87 -41c7 0 25 9 26 41h75c-4 -98 -61 -128 -101 -128c-39 0 -64 41 -87 41z" />
    <glyph glyph-name="Imacron" unicode="&#x12a;" horiz-adv-x="308" 
d="M81 689h146v-689h-146v689zM15 809v85h278v-85h-278z" />
    <glyph glyph-name="imacron" unicode="&#x12b;" horiz-adv-x="265" 
d="M64 467h137v-467h-137v467zM-8 587v85h278v-85h-278z" />
    <glyph glyph-name="Iogonek" unicode="&#x12e;" horiz-adv-x="308" 
d="M226 0h-76l-37 -101c-6 -17 -1 -35 15 -42c16 -4 33 3 39 19c3 13 1 26 1 26l77 4c1 -33 -1 -43 -8 -59c-18 -41 -56 -65 -95 -65c-58 0 -107 47 -107 103c0 14 0 30 10 49l35 66v689h146v-689z" />
    <glyph glyph-name="iogonek" unicode="&#x12f;" horiz-adv-x="266" 
d="M134 0h68v467h-138v-467l-35 -66c-11 -20 -10 -35 -10 -49c0 -56 49 -103 107 -103c39 0 77 24 95 65c7 16 9 26 8 59l-77 -4s2 -13 -1 -26c-6 -16 -23 -23 -39 -19c-16 7 -21 25 -15 42zM46 640c0 46 40 81 87 81s85 -35 85 -81s-38 -82 -85 -82s-87 36 -87 82z" />
    <glyph glyph-name="Idotaccent" unicode="&#x130;" horiz-adv-x="308" 
d="M81 689h146v-689h-146v689zM77 867c0 42 34 74 77 74s77 -32 77 -74c0 -44 -34 -75 -77 -75s-77 31 -77 75z" />
    <glyph glyph-name="IJ" unicode="&#x132;" horiz-adv-x="617" 
d="M81 689h146v-689h-146v689zM209 -219l13 132c29 -10 82 -11 88 -11c57 0 79 43 79 95v692h147v-692c0 -126 -61 -233 -226 -233c-19 0 -64 8 -101 17z" />
    <glyph glyph-name="ij" unicode="&#x133;" horiz-adv-x="534" 
d="M202 467v-467h-138v467h138zM46 640c0 46 40 81 87 81s85 -35 85 -81s-38 -82 -85 -82s-87 36 -87 82zM208 -235v126h61c51 0 62 41 61 74v502h140v-499c0 -124 -45 -203 -177 -203h-85zM313 640c0 46 40 81 87 81c48 0 86 -35 86 -81s-38 -82 -86 -82
c-47 0 -87 36 -87 82z" />
    <glyph glyph-name="Jcircumflex" unicode="&#x134;" horiz-adv-x="309" 
d="M-99 -219l13 132c29 -10 82 -11 88 -11c57 0 79 43 79 95v692h147v-692c0 -126 -61 -233 -226 -233c-19 0 -64 8 -101 17zM85 933h138l110 -168h-100l-79 89l-78 -89h-100z" />
    <glyph glyph-name="jcircumflex" unicode="&#x135;" horiz-adv-x="268" 
d="M-58 -235v126h61c51 0 62 41 61 74v502h140v-499c0 -124 -45 -203 -177 -203h-85zM77 711h138l110 -168h-100l-79 89l-78 -89h-100z" />
    <glyph glyph-name="kgreenlandic" unicode="&#x138;" horiz-adv-x="511" 
d="M328 0l-127 144v-144h-137v467h137v-136l114 136h173l-205 -230l226 -237h-181z" />
    <glyph glyph-name="Lacute" unicode="&#x139;" horiz-adv-x="511" 
d="M81 689v-689h405v129h-258v560h-147zM193 929h138l-148 -168h-100z" />
    <glyph glyph-name="lacute" unicode="&#x13a;" horiz-adv-x="267" 
d="M64 721h139v-721h-139v721zM175 939h138l-148 -168h-100z" />
    <glyph glyph-name="Lcaron" unicode="&#x13d;" horiz-adv-x="516" 
d="M81 0v689h147v-560h258v-129h-405zM380 428l-84 29c42 59 75 141 74 232h117c-10 -129 -61 -223 -107 -261z" />
    <glyph glyph-name="lcaron" unicode="&#x13e;" horiz-adv-x="311" 
d="M64 721h139v-721h-139v721zM317 460l-84 29c42 59 75 141 74 232h117c-10 -129 -61 -223 -107 -261z" />
    <glyph glyph-name="Ldot" unicode="&#x13f;" horiz-adv-x="511" 
d="M81 0v689h147v-560h258v-129h-405zM299 307c0 42 34 74 77 74s77 -32 77 -74c0 -44 -34 -75 -77 -75s-77 31 -77 75z" />
    <glyph glyph-name="ldot" unicode="&#x140;" horiz-adv-x="380" 
d="M64 721h139v-721h-139v721zM246 307c0 42 34 74 77 74s77 -32 77 -74c0 -44 -34 -75 -77 -75s-77 31 -77 75z" />
    <glyph glyph-name="Nacute" unicode="&#x143;" horiz-adv-x="679" 
d="M388 929h138l-148 -168h-100zM598 0v689h-147v-412l-236 412h-134v-689h146v417l240 -417h131z" />
    <glyph glyph-name="nacute" unicode="&#x144;" 
d="M203 247v-247h-139v467h139v-68c25 47 80 78 135 78c105 0 171 -65 171 -198v-279h-139v249c0 62 -34 93 -81 93c-49 0 -86 -24 -86 -95zM316 707h138l-148 -168h-100z" />
    <glyph glyph-name="Ncaron" unicode="&#x147;" horiz-adv-x="679" 
d="M408 760h-138l-109 168h100l78 -89l79 89h100zM598 689v-689h-131l-240 417v-417h-146v689h134l236 -412v412h147z" />
    <glyph glyph-name="ncaron" unicode="&#x148;" 
d="M203 247v-247h-139v467h139v-68c25 47 80 78 135 78c105 0 171 -65 171 -198v-279h-139v249c0 62 -34 93 -81 93c-49 0 -86 -24 -86 -95zM352 538h-138l-109 168h100l78 -89l79 89h100z" />
    <glyph glyph-name="napostrophe" unicode="&#x149;" 
d="M203 247v-247h-139v467h139v-68c25 47 80 78 135 78c105 0 171 -65 171 -198v-279h-139v249c0 62 -34 93 -81 93c-49 0 -86 -24 -86 -95zM-16 469l-75 22c40 54 45 102 35 170h118c1 -105 -38 -159 -78 -192z" />
    <glyph glyph-name="Omacron" unicode="&#x14c;" horiz-adv-x="781" 
d="M187 343c0 -115 89 -208 203 -208s204 93 204 208s-90 209 -204 209s-203 -94 -203 -209zM41 343c0 196 154 354 349 354c196 0 350 -158 350 -354c0 -194 -154 -353 -350 -353c-195 0 -349 159 -349 353zM251 809v85h278v-85h-278z" />
    <glyph glyph-name="omacron" unicode="&#x14d;" horiz-adv-x="557" 
d="M278 128c58 0 106 42 106 107c0 63 -48 106 -106 106c-57 0 -105 -43 -105 -106c0 -65 48 -107 105 -107zM278 -8c-132 0 -242 96 -242 243s110 242 242 242s243 -95 243 -242s-111 -243 -243 -243zM139 587v85h278v-85h-278z" />
    <glyph glyph-name="Obreve" unicode="&#x14e;" horiz-adv-x="781" 
d="M187 343c0 115 89 209 203 209s204 -94 204 -209s-90 -208 -204 -208s-203 93 -203 208zM41 343c0 -194 154 -353 349 -353c196 0 350 159 350 353c0 196 -154 354 -350 354c-195 0 -349 -158 -349 -354zM256 911h85c0 -34 14 -53 49 -53s48 25 48 53h87
c0 -79 -56 -131 -135 -131c-92 0 -134 65 -134 131z" />
    <glyph glyph-name="obreve" unicode="&#x14f;" horiz-adv-x="557" 
d="M278 128c-57 0 -105 42 -105 107c0 63 48 106 105 106c58 0 106 -43 106 -106c0 -65 -48 -107 -106 -107zM278 -8c132 0 243 96 243 243s-111 242 -243 242s-242 -95 -242 -242s110 -243 242 -243zM144 689h85c0 -34 14 -53 49 -53s48 25 48 53h87
c0 -79 -56 -131 -135 -131c-92 0 -134 65 -134 131z" />
    <glyph glyph-name="Ohungarumlaut" unicode="&#x150;" horiz-adv-x="781" 
d="M187 343c0 -115 89 -208 203 -208s204 93 204 208s-90 209 -204 209s-203 -94 -203 -209zM41 343c0 196 154 354 349 354c196 0 350 -158 350 -354c0 -194 -154 -353 -350 -353c-195 0 -349 159 -349 353zM378 928h111l-121 -168h-100zM538 928h114l-132 -168h-105z" />
    <glyph glyph-name="ohungarumlaut" unicode="&#x151;" horiz-adv-x="557" 
d="M278 128c58 0 106 42 106 107c0 63 -48 106 -106 106c-57 0 -105 -43 -105 -106c0 -65 48 -107 105 -107zM278 -8c-132 0 -242 96 -242 243s110 242 242 242s243 -95 243 -242s-111 -243 -243 -243zM264 706h111l-121 -168h-100zM424 706h114l-132 -168h-105z" />
    <glyph glyph-name="Racute" unicode="&#x154;" horiz-adv-x="637" 
d="M356 560c55 0 83 -54 83 -97c0 -45 -30 -97 -87 -97h-124v194h128zM420 244c118 25 172 121 172 219c0 113 -73 226 -229 226h-282v-689h147v238h33l154 -238h176zM341 929h138l-148 -168h-100z" />
    <glyph glyph-name="racute" unicode="&#x155;" horiz-adv-x="423" 
d="M182 707h138l-148 -168h-100zM203 163v-163h-139v467h139v-113c24 87 84 123 132 123c33 0 58 -6 80 -17l-25 -125c-25 12 -49 14 -71 14c-80 0 -116 -63 -116 -186z" />
    <glyph glyph-name="Rcaron" unicode="&#x158;" horiz-adv-x="637" 
d="M356 560h-128v-194h124c57 0 87 52 87 97c0 43 -28 97 -83 97zM420 244l171 -244h-176l-154 238h-33v-238h-147v689h282c156 0 229 -113 229 -226c0 -98 -54 -194 -172 -219zM383 760h-138l-109 168h100l78 -89l79 89h100z" />
    <glyph glyph-name="rcaron" unicode="&#x159;" horiz-adv-x="423" 
d="M288 538h-138l-109 168h100l78 -89l79 89h100zM203 163v-163h-139v467h139v-113c24 87 84 123 132 123c33 0 58 -6 80 -17l-25 -125c-25 12 -49 14 -71 14c-80 0 -116 -63 -116 -186z" />
    <glyph glyph-name="Sacute" unicode="&#x15a;" horiz-adv-x="582" 
d="M191 202h-147c0 -124 100 -213 250 -213c122 0 246 65 248 202c2 66 -22 160 -189 208l-82 26c-67 19 -74 52 -74 70c0 41 38 69 89 69c58 0 89 -32 89 -78h146c0 132 -100 211 -233 211c-132 0 -237 -83 -237 -206c0 -62 26 -151 178 -198l83 -23c70 -20 84 -47 83 -78
c-1 -45 -42 -73 -101 -73c-66 0 -101 39 -103 83zM337 929h138l-148 -168h-100z" />
    <glyph glyph-name="sacute" unicode="&#x15b;" horiz-adv-x="467" 
d="M185 192l61 -16c34 -9 46 -20 46 -40c0 -24 -26 -38 -57 -39c-38 0 -68 27 -69 54h-130c1 -104 100 -161 195 -161c98 0 202 47 202 146c0 30 -14 105 -127 136l-79 21c-28 7 -40 21 -41 35c-1 21 19 35 49 35c22 0 52 -6 53 -41h131c-1 114 -99 155 -192 155
c-98 0 -181 -64 -182 -133c-1 -43 0 -114 140 -152zM279 707h138l-148 -168h-100z" />
    <glyph glyph-name="Scircumflex" unicode="&#x15c;" horiz-adv-x="582" 
d="M44 202h147c2 -44 37 -83 103 -83c59 0 100 28 101 73c1 31 -13 58 -83 78l-83 23c-152 47 -178 136 -178 198c0 123 105 206 237 206c133 0 233 -79 233 -211h-146c0 46 -31 78 -89 78c-51 0 -89 -28 -89 -69c0 -18 7 -51 74 -70l82 -26c167 -48 191 -142 189 -208
c-2 -137 -126 -202 -248 -202c-150 0 -250 89 -250 213zM224 933h138l110 -168h-100l-79 89l-78 -89h-100z" />
    <glyph glyph-name="scircumflex" unicode="&#x15d;" horiz-adv-x="467" 
d="M246 176l-61 16c-140 38 -141 109 -140 152c1 69 84 133 182 133c93 0 191 -41 192 -155h-131c-1 35 -31 41 -53 41c-30 0 -50 -14 -49 -35c1 -14 13 -28 41 -35l79 -21c113 -31 127 -106 127 -136c0 -99 -104 -146 -202 -146c-95 0 -194 57 -195 161h130
c1 -27 31 -54 69 -54c31 1 57 15 57 39c0 20 -12 31 -46 40zM165 711h138l110 -168h-100l-79 89l-78 -89h-100z" />
    <glyph glyph-name="scedilla" unicode="&#x15f;" horiz-adv-x="468" 
d="M208 -124c6 -16 23 -23 39 -19c16 7 22 25 15 42l-34 91c-94 1 -191 58 -192 161h130c1 -27 31 -54 69 -54c31 1 57 15 57 39c0 20 -12 31 -46 40l-61 16c-140 38 -141 109 -140 152c1 69 84 133 182 133c93 0 191 -41 192 -155h-131c-1 35 -31 41 -53 41
c-30 0 -50 -14 -49 -35c1 -14 13 -28 41 -35l79 -21c113 -31 127 -106 127 -136c0 -77 -63 -123 -137 -139l34 -63c10 -16 10 -35 10 -49c0 -56 -49 -103 -107 -103c-39 0 -77 24 -95 65c-7 16 -9 26 -8 59l77 -4s-2 -13 1 -26z" />
    <glyph glyph-name="Scedilla" unicode="&#x15e;" horiz-adv-x="581" 
d="M266 -124c6 -16 23 -23 39 -19c16 7 22 25 15 42l-33 90c-147 3 -244 90 -244 213h147c2 -44 37 -83 103 -83c59 0 100 28 101 73c1 31 -13 58 -83 78l-83 23c-152 47 -178 136 -178 198c0 123 105 206 237 206c133 0 233 -79 233 -211h-146c0 46 -31 78 -89 78
c-51 0 -89 -28 -89 -69c0 -18 7 -51 74 -70l82 -26c167 -48 191 -142 189 -208c-2 -114 -87 -178 -186 -196l33 -61c10 -16 10 -35 10 -49c0 -56 -49 -103 -107 -103c-39 0 -77 24 -95 65c-7 16 -9 26 -8 59l77 -4s-2 -13 1 -26z" />
    <glyph glyph-name="Utilde" unicode="&#x168;" horiz-adv-x="682" 
d="M342 128c61 0 119 47 119 118v443h147v-443c0 -156 -125 -256 -266 -256c-142 0 -268 100 -268 256v443h149v-443c0 -71 57 -118 119 -118zM297 828c-7 0 -25 -11 -26 -43h-75c5 98 59 130 101 130s63 -41 87 -41c7 0 25 9 26 41h75c-4 -98 -61 -128 -101 -128
c-39 0 -64 41 -87 41z" />
    <glyph glyph-name="utilde" unicode="&#x169;" 
d="M365 220v247h139v-467h-139v64c-25 -47 -76 -74 -121 -74c-105 0 -185 65 -185 198v279h139v-249c0 -74 51 -93 83 -93c43 0 84 24 84 95zM248 606c-7 0 -25 -11 -26 -43h-75c5 98 59 130 101 130s63 -41 87 -41c7 0 25 9 26 41h75c-4 -98 -61 -128 -101 -128
c-39 0 -64 41 -87 41z" />
    <glyph glyph-name="Umacron" unicode="&#x16a;" horiz-adv-x="682" 
d="M342 128c61 0 119 47 119 118v443h147v-443c0 -156 -125 -256 -266 -256c-142 0 -268 100 -268 256v443h149v-443c0 -71 57 -118 119 -118zM202 809v85h278v-85h-278z" />
    <glyph glyph-name="umacron" unicode="&#x16b;" 
d="M365 220v247h139v-467h-139v64c-25 -47 -76 -74 -121 -74c-105 0 -185 65 -185 198v279h139v-249c0 -74 51 -93 83 -93c43 0 84 24 84 95zM152 587v85h278v-85h-278z" />
    <glyph glyph-name="Ubreve" unicode="&#x16c;" horiz-adv-x="682" 
d="M342 128c61 0 119 47 119 118v443h147v-443c0 -156 -125 -256 -266 -256c-142 0 -268 100 -268 256v443h149v-443c0 -71 57 -118 119 -118zM206 911h85c0 -34 14 -53 49 -53s48 25 48 53h87c0 -79 -56 -131 -135 -131c-92 0 -134 65 -134 131z" />
    <glyph glyph-name="ubreve" unicode="&#x16d;" 
d="M365 220v247h139v-467h-139v64c-25 -47 -76 -74 -121 -74c-105 0 -185 65 -185 198v279h139v-249c0 -74 51 -93 83 -93c43 0 84 24 84 95zM157 689h85c0 -34 14 -53 49 -53s48 25 48 53h87c0 -79 -56 -131 -135 -131c-92 0 -134 65 -134 131z" />
    <glyph glyph-name="Uring" unicode="&#x16e;" horiz-adv-x="682" 
d="M342 128c61 0 119 47 119 118v443h147v-443c0 -156 -125 -256 -266 -256c-142 0 -268 100 -268 256v443h149v-443c0 -71 57 -118 119 -118zM220 881c0 69 53 123 120 123c68 0 122 -54 122 -123c0 -67 -54 -120 -122 -120c-67 0 -120 53 -120 120zM285 881
c0 -31 24 -55 55 -55c32 0 57 24 57 55c0 33 -25 58 -57 58c-31 0 -55 -25 -55 -58z" />
    <glyph glyph-name="uring" unicode="&#x16f;" 
d="M365 220v247h139v-467h-139v64c-25 -47 -76 -74 -121 -74c-105 0 -185 65 -185 198v279h139v-249c0 -74 51 -93 83 -93c43 0 84 24 84 95zM170 659c0 69 53 123 120 123c68 0 122 -54 122 -123c0 -67 -54 -120 -122 -120c-67 0 -120 53 -120 120zM235 659
c0 -31 24 -55 55 -55c32 0 57 24 57 55c0 33 -25 58 -57 58c-31 0 -55 -25 -55 -58z" />
    <glyph glyph-name="Uhungarumlaut" unicode="&#x170;" horiz-adv-x="682" 
d="M342 128c61 0 119 47 119 118v443h147v-443c0 -156 -125 -256 -266 -256c-142 0 -268 100 -268 256v443h149v-443c0 -71 57 -118 119 -118zM295 928h111l-121 -168h-100zM455 928h114l-132 -168h-105z" />
    <glyph glyph-name="uhungarumlaut" unicode="&#x171;" 
d="M365 220v247h139v-467h-139v64c-25 -47 -76 -74 -121 -74c-105 0 -185 65 -185 198v279h139v-249c0 -74 51 -93 83 -93c43 0 84 24 84 95zM247 706h111l-121 -168h-100zM407 706h114l-132 -168h-105z" />
    <glyph glyph-name="Uogonek" unicode="&#x172;" horiz-adv-x="684" 
d="M369 -9l-34 -92c-6 -17 -1 -35 15 -42c16 -4 33 3 39 19c3 13 1 26 1 26l77 4c1 -33 -1 -43 -8 -59c-18 -41 -56 -65 -95 -65c-58 0 -107 47 -107 103c0 14 1 30 10 49l32 60c-123 18 -224 112 -224 252v443h149v-443c0 -71 57 -118 119 -118c61 0 119 47 119 118v443
h147v-443c0 -147 -110 -244 -240 -255z" />
    <glyph glyph-name="uogonek" unicode="&#x173;" 
d="M329 -66l36 66v64c-25 -47 -76 -74 -121 -74c-105 0 -185 65 -185 198v279h139v-249c0 -74 51 -93 83 -93c43 0 84 24 84 95v247h139v-467h-70l-37 -101c-6 -17 -1 -35 15 -42c16 -4 33 3 39 19c3 13 1 26 1 26l77 4c1 -33 -1 -43 -8 -59c-18 -41 -56 -65 -95 -65
c-58 0 -107 47 -107 103c0 14 1 30 10 49z" />
    <glyph glyph-name="Wcircumflex" unicode="&#x174;" horiz-adv-x="886" 
d="M594 255l135 434h159l-234 -689h-115l-97 362l-95 -362h-116l-232 689h158l134 -434l92 337h120zM374 933h138l110 -168h-100l-79 89l-78 -89h-100z" />
    <glyph glyph-name="wcircumflex" unicode="&#x175;" horiz-adv-x="763" 
d="M753 467l-164 -467h-116l-92 297l-88 -297h-116l-169 467h148l83 -278l82 278h119l82 -278l83 278h148zM311 711h138l110 -168h-100l-79 89l-78 -89h-100z" />
    <glyph glyph-name="Ycircumflex" unicode="&#x176;" horiz-adv-x="651" 
d="M400 0h-149v312l-266 377h174l166 -258l168 258h174l-267 -379v-310zM256 933h138l110 -168h-100l-79 89l-78 -89h-100z" />
    <glyph glyph-name="ycircumflex" unicode="&#x177;" horiz-adv-x="510" 
d="M506 467l-288 -696h-147l112 277l-180 419h148l103 -265l104 265h148zM188 711h138l110 -168h-100l-79 89l-78 -89h-100z" />
    <glyph glyph-name="Tcaron" unicode="&#x164;" horiz-adv-x="576" 
d="M28 557v132h520v-132h-186v-557h-148v557h-186zM357 760h-138l-109 168h100l78 -89l79 89h100z" />
    <glyph glyph-name="tcaron" unicode="&#x165;" horiz-adv-x="365" 
d="M246 467h98v-110h-98v-357h-138v357h-85v110h85v179h138v-179zM357 522l-68 35c42 59 59 105 58 196h117c-10 -129 -61 -193 -107 -231z" />
    <glyph glyph-name="Tbar" unicode="&#x166;" horiz-adv-x="576" 
d="M28 557v132h520v-132h-186v-557h-148v557h-186zM149 809v85h278v-85h-278z" />
    <glyph glyph-name="tbar" unicode="&#x167;" horiz-adv-x="366" 
d="M108 0v183h-53v77h53v97h-85v110h85v179h138v-179h98v-110h-98v-97h70v-77h-70v-183h-138z" />
    <glyph glyph-name="Zacute" unicode="&#x179;" horiz-adv-x="595" 
d="M42 111l315 449h-302v129h492v-111l-318 -449h318v-129h-505v111zM335 929h138l-148 -168h-100z" />
    <glyph glyph-name="zacute" unicode="&#x17a;" horiz-adv-x="510" 
d="M462 467h-407v-128h206l-220 -236v-103h421v128h-224l224 235v104zM297 707h138l-148 -168h-100z" />
    <glyph glyph-name="Zdotaccent" unicode="&#x17b;" horiz-adv-x="595" 
d="M42 111l315 449h-302v129h492v-111l-318 -449h318v-129h-505v111zM217 867c0 42 34 74 77 74s77 -32 77 -74c0 -44 -34 -75 -77 -75s-77 31 -77 75z" />
    <glyph glyph-name="zdotaccent" unicode="&#x17c;" horiz-adv-x="510" 
d="M462 467h-407v-128h206l-220 -236v-103h421v128h-224l224 235v104zM174 645c0 42 34 74 77 74s77 -32 77 -74c0 -44 -34 -75 -77 -75s-77 31 -77 75z" />
    <glyph glyph-name="longs" unicode="&#x17f;" horiz-adv-x="335" 
d="M373 721v-133h-51c-48 0 -71 -34 -71 -89v-499h-140v357h-88v110h88v32c0 143 77 222 211 222h51z" />
    <glyph glyph-name="Wgrave" unicode="&#x1e80;" horiz-adv-x="886" 
d="M594 255l135 434h159l-234 -689h-115l-97 362l-95 -362h-116l-232 689h158l134 -434l92 337h120zM259 929h138l110 -168h-100z" />
    <glyph glyph-name="wgrave" unicode="&#x1e81;" horiz-adv-x="763" 
d="M753 467l-164 -467h-116l-92 297l-88 -297h-116l-169 467h148l83 -278l82 278h119l82 -278l83 278h148zM188 707h138l110 -168h-100z" />
    <glyph glyph-name="Wacute" unicode="&#x1e82;" horiz-adv-x="886" 
d="M729 689l-135 -434l-91 337h-120l-92 -337l-134 434h-158l232 -689h116l95 362l97 -362h115l234 689h-159zM488 929h138l-148 -168h-100z" />
    <glyph glyph-name="wacute" unicode="&#x1e83;" horiz-adv-x="763" 
d="M589 0l164 467h-148l-83 -278l-82 278h-119l-82 -278l-83 278h-148l169 -467h116l88 297l92 -297h116zM429 707h138l-148 -168h-100z" />
    <glyph glyph-name="Wdieresis" unicode="&#x1e84;" horiz-adv-x="886" 
d="M729 689l-135 -434l-91 337h-120l-92 -337l-134 434h-158l232 -689h116l95 362l97 -362h115l234 689h-159zM283 860c0 38 33 68 73 68c39 0 71 -30 71 -68c0 -39 -32 -69 -71 -69c-40 0 -73 30 -73 69zM460 860c0 38 33 68 73 68c39 0 71 -30 71 -68
c0 -39 -32 -69 -71 -69c-40 0 -73 30 -73 69z" />
    <glyph glyph-name="wdieresis" unicode="&#x1e85;" horiz-adv-x="763" 
d="M589 0l164 467h-148l-83 -278l-82 278h-119l-82 -278l-83 278h-148l169 -467h116l88 297l92 -297h116zM220 638c0 38 33 68 73 68c39 0 71 -30 71 -68c0 -39 -32 -69 -71 -69c-40 0 -73 30 -73 69zM397 638c0 38 33 68 73 68c39 0 71 -30 71 -68c0 -39 -32 -69 -71 -69
c-40 0 -73 30 -73 69z" />
    <glyph glyph-name="estimated" unicode="&#x212e;" horiz-adv-x="646" 
d="M604 279h-429v-193c42 -40 92 -63 152 -63c112 0 165 59 210 127l31 -19c-52 -81 -116 -141 -241 -141c-163 0 -271 133 -271 290c0 159 104 290 275 290c170 0 273 -134 273 -291zM484 312v163c-36 33 -95 62 -153 62c-60 0 -116 -21 -156 -62v-163h309z" />
    <glyph glyph-name="greaterequal" unicode="&#x2265;" horiz-adv-x="639" 
d="M577 443v-112l-502 -192l-1 110l362 138l-362 138l1 110zM75 0v86h497v-86h-497z" />
    <glyph glyph-name="lessequal" unicode="&#x2264;" horiz-adv-x="639" 
d="M62 331v112l502 192l1 -110l-362 -138l362 -138l-1 -110zM564 86v-86h-497v86h497z" />
    <glyph glyph-name="notequal" unicode="&#x2260;" horiz-adv-x="602" 
d="M265 149l-51 -105h-70l51 105h-125v98h173l50 103h-223v98h271l47 96h71l-47 -96h118v-98h-166l-51 -103h217v-98h-265z" />
    <glyph glyph-name="Aringacute" unicode="&#x1fa;" horiz-adv-x="659" 
d="M259 290h143l-73 240zM449 163h-238l-61 -163h-156l256 689h159l255 -689h-154zM376 1113h138l-120 -136c35 -22 58 -60 58 -105c0 -67 -54 -120 -122 -120c-67 0 -120 53 -120 120c0 56 36 103 85 118zM275 872c0 -31 24 -55 55 -55c32 0 57 24 57 55
c0 33 -25 58 -57 58c-31 0 -55 -25 -55 -58z" />
    <glyph glyph-name="aringacute" unicode="&#x1fb;" horiz-adv-x="612" 
d="M410 0v53c-30 -45 -100 -62 -136 -62c-119 0 -238 93 -238 243s119 243 238 243c30 0 100 -10 136 -62v52h138v-467h-138zM352 900h138l-120 -136c35 -22 58 -60 58 -105c0 -67 -54 -120 -122 -120c-67 0 -120 53 -120 120c0 56 36 103 85 118zM180 234
c0 -67 59 -111 117 -111c57 0 113 41 113 111s-56 111 -113 111c-58 0 -117 -44 -117 -111zM251 659c0 -31 24 -55 55 -55c32 0 57 24 57 55c0 33 -25 58 -57 58c-31 0 -55 -25 -55 -58z" />
    <glyph glyph-name="AEacute" unicode="&#x1fc;" horiz-adv-x="934" 
d="M875 689h-461l-435 -689h175l100 158h184v-158l1 1v-1h445v129h-299v147h254v127h-254v157h290v129zM337 299l101 194v-194h-101zM556 929h138l-148 -168h-100z" />
    <glyph glyph-name="aeacute" unicode="&#x1fd;" horiz-adv-x="970" 
d="M541 707h138l-148 -168h-100zM812 154l101 -69c-47 -70 -134 -95 -213 -95c-58 0 -110 18 -152 50v-40h-138v53c-30 -45 -100 -62 -136 -62c-119 0 -238 93 -238 243s119 243 238 243c30 0 100 -10 136 -62v52h138v-39c42 31 94 49 152 49c133 0 239 -99 239 -246
c0 -12 -1 -31 -2 -43h-342c7 -54 66 -78 115 -78c38 0 79 14 102 44zM180 234c0 -67 59 -111 117 -111c57 0 113 41 113 111s-56 111 -113 111c-58 0 -117 -44 -117 -111zM597 275h202c-7 57 -59 80 -98 80s-92 -21 -104 -80z" />
    <glyph glyph-name="Oslashacute" unicode="&#x1fe;" horiz-adv-x="779" 
d="M452 929h138l-148 -168h-100zM170 66l1 1c59 -48 135 -77 218 -77c196 0 350 159 350 353c0 86 -31 165 -81 226l80 82l-47 46l-79 -81c-60 51 -138 81 -223 81c-195 0 -349 -158 -349 -354c0 -88 31 -168 83 -230l-80 -82l47 -47zM186 343c0 115 89 209 203 209
c45 0 88 -15 121 -41l-285 -293c-25 35 -39 78 -39 125zM389 135c-44 0 -84 13 -117 37l283 291c24 -34 38 -75 38 -120c0 -115 -90 -208 -204 -208z" />
    <glyph glyph-name="oslashacute" unicode="&#x1ff;" horiz-adv-x="557" 
d="M314 707h138l-148 -168h-100zM278 -8c132 0 243 96 243 243c0 58 -18 107 -47 146l53 54l-47 46l-52 -54c-42 31 -94 50 -150 50c-132 0 -242 -95 -242 -242c0 -62 19 -115 52 -155l-56 -58l47 -47l58 59c40 -27 88 -42 141 -42zM278 341c18 0 36 -6 51 -14l-143 -146
c-9 15 -13 33 -13 54c0 63 48 106 105 106zM278 128c-15 0 -29 2 -42 8l139 143c5 -13 9 -28 9 -44c0 -65 -48 -107 -106 -107z" />
    <glyph glyph-name="Ibreve" unicode="&#x12c;" horiz-adv-x="308" 
d="M81 689h146v-689h-146v689zM20 911h85c0 -34 14 -53 49 -53s48 25 48 53h87c0 -79 -56 -131 -135 -131c-92 0 -134 65 -134 131z" />
    <glyph glyph-name="ibreve" unicode="&#x12d;" horiz-adv-x="265" 
d="M201 467h-137v-467h137v467zM-2 689h85c0 -34 14 -53 49 -53s48 25 48 53h87c0 -79 -56 -131 -135 -131c-92 0 -134 65 -134 131z" />
    <glyph glyph-name="Eng" unicode="&#x14a;" horiz-adv-x="679" 
d="M459 16l-232 401v-417h-146v689h134l236 -412v412h147v-676c0 -128 -59 -238 -224 -238c-21 0 -67 8 -102 17l15 144c20 -7 68 -14 95 -14c50 3 77 49 77 94z" />
    <glyph glyph-name="eng" unicode="&#x14b;" 
d="M509 279v-247c0 -122 -55 -224 -210 -224c-19 0 -30 2 -63 10l13 128c26 -8 44 -8 50 -8c53 0 71 46 71 92v219c0 62 -34 93 -81 93c-49 0 -86 -24 -86 -95v-247h-139v467h139v-68c25 47 80 78 135 78c105 0 171 -65 171 -198z" />
    <glyph glyph-name="Ygrave" unicode="&#x1ef2;" horiz-adv-x="651" 
d="M400 0h-149v312l-266 377h174l166 -258l168 258h174l-267 -379v-310zM152 929h138l110 -168h-100z" />
    <glyph glyph-name="ygrave" unicode="&#x1ef3;" horiz-adv-x="510" 
d="M506 467l-288 -696h-147l112 277l-180 419h148l103 -265l104 265h148zM102 707h138l110 -168h-100z" />
    <glyph glyph-name="commaaccent" unicode="&#xf6c3;" horiz-adv-x="315" 
d="M138 -287l-68 35c42 59 59 105 58 196h117c-10 -129 -61 -193 -107 -231z" />
    <glyph glyph-name="apple" unicode="&#xf8ff;" horiz-adv-x="847" 
d="M767 687v-687h-687v687h687zM164 595v-377h81l-74 75v178l255 -253l256 253v-178l-74 -75h84v377l-266 -263zM179 132h-15v-53h9v37l13 -37h10l11 37v-37h9v53h-14l-9 -36zM248 132c-17 0 -25 -13 -25 -27c0 -13 8 -26 25 -26c15 0 23 13 23 26c0 14 -8 27 -23 27z
M248 89c-10 0 -17 10 -17 16c0 7 7 17 17 17c9 0 12 -10 12 -17c0 -6 -3 -16 -12 -16zM284 99h-13c0 -13 10 -20 22 -20c17 0 22 7 22 17c0 9 -5 12 -15 14c-12 2 -16 2 -16 6c0 6 6 6 9 6c4 0 10 0 10 -6h9c0 13 -9 16 -19 16c-9 0 -19 -6 -19 -16c0 -8 7 -11 16 -15
c10 0 13 -2 13 -5c0 -7 -3 -7 -10 -7c-5 0 -9 3 -9 10zM315 122h17v-43h8v43h15v10h-40v-10zM377 132h-9l-22 -53h12l4 13h22l3 -13h11zM374 119l7 -18h-16l6 18h3zM426 132h-28v-53h9v22h13c6 0 9 -5 9 -9v-13h13c-3 3 -3 7 -3 13c0 4 0 9 -7 13c7 3 7 5 7 11
c0 10 -3 16 -13 16zM420 108h-13v14h13c6 0 9 -3 9 -6c0 -6 -3 -8 -9 -8zM466 132h-20v-53h20c16 0 25 13 25 29c0 14 -9 24 -25 24zM466 89h-8v33h4c14 0 17 -6 17 -17c0 -9 -7 -16 -13 -16zM531 132h-37v-53h40v10h-28v12h25v9h-25v12h25v10zM543 99h-9
c0 -13 9 -20 22 -20c12 0 22 7 22 17c0 9 -6 12 -15 14c-13 2 -17 2 -17 6c0 6 4 6 7 6c6 0 12 0 12 -6h10c0 13 -10 16 -19 16c-10 0 -22 -6 -22 -16c0 -8 9 -11 19 -15c10 0 12 -2 12 -5c0 -7 -6 -7 -9 -7c-6 0 -13 3 -13 10zM589 132h-7v-53h7v53zM633 86l4 -7h6v29h-22
v-9h12c-3 -7 -6 -10 -12 -10c-10 0 -16 10 -16 16c0 7 6 17 16 17c3 0 9 -3 9 -10h13c-3 14 -13 20 -22 20c-16 0 -25 -13 -25 -27c0 -13 9 -26 25 -26c3 0 9 0 12 7zM657 132h-8v-53h8v33l22 -33h13v53h-13v-33z" />
    <glyph glyph-name="Gcommaaccent" unicode="&#x122;" horiz-adv-x="756" 
d="M653 584l-108 -93c-38 43 -91 70 -151 70c-116 0 -206 -98 -206 -218c0 -119 90 -219 206 -219c74 0 166 46 167 119h-185v119h354c0 -258 -138 -372 -336 -372s-353 159 -353 353c0 196 155 354 353 354c106 0 199 -44 259 -113zM362 -287l-68 35c42 59 59 105 58 196
h117c-10 -129 -61 -193 -107 -231z" />
    <glyph glyph-name="Kcommaaccent" unicode="&#x136;" horiz-adv-x="609" 
d="M303 348l323 -348h-190l-207 234v-234h-148v689h148v-226l163 226h172zM288 -287l-68 35c42 59 59 105 58 196h117c-10 -129 -61 -193 -107 -231z" />
    <glyph glyph-name="kcommaaccent" unicode="&#x137;" horiz-adv-x="526" 
d="M202 185v-185h-138v721h138v-382l111 128h177l-194 -206l233 -261h-171zM231 -287l-68 35c42 59 59 105 58 196h117c-10 -129 -61 -193 -107 -231z" />
    <glyph glyph-name="Lcommaaccent" unicode="&#x13b;" horiz-adv-x="511" 
d="M81 0v689h147v-560h258v-129h-405zM234 -287l-68 35c42 59 59 105 58 196h117c-10 -129 -61 -193 -107 -231z" />
    <glyph glyph-name="lcommaaccent" unicode="&#x13c;" horiz-adv-x="267" 
d="M64 721h139v-721h-139v721zM89 -287l-68 35c42 59 59 105 58 196h117c-10 -129 -61 -193 -107 -231z" />
    <glyph glyph-name="Ncommaaccent" unicode="&#x145;" horiz-adv-x="679" 
d="M598 689v-689h-131l-240 411v-411h-146v689h134l236 -406v406h147zM304 -287l-68 35c42 59 59 105 58 196h117c-10 -129 -61 -193 -107 -231z" />
    <glyph glyph-name="ncommaaccent" unicode="&#x146;" 
d="M203 247v-247h-139v467h139v-68c25 47 80 78 135 78c105 0 171 -65 171 -198v-279h-139v249c0 62 -34 93 -81 93c-49 0 -86 -24 -86 -95zM254 -287l-68 35c42 59 59 105 58 196h117c-10 -129 -61 -193 -107 -231z" />
    <glyph glyph-name="Rcommaaccent" unicode="&#x156;" horiz-adv-x="637" 
d="M356 560h-128v-194h124c57 0 87 52 87 97c0 43 -28 97 -83 97zM420 244l171 -244h-176l-154 238h-33v-238h-147v689h282c156 0 229 -113 229 -226c0 -98 -54 -194 -172 -219zM286 -287l-68 35c42 59 59 105 58 196h117c-10 -129 -61 -193 -107 -231z" />
    <glyph glyph-name="rcommaaccent" unicode="&#x157;" horiz-adv-x="423" 
d="M87 -287l-68 35c42 59 59 105 58 196h117c-10 -129 -61 -193 -107 -231zM203 163v-163h-139v467h139v-113c24 87 84 123 132 123c33 0 58 -6 80 -17l-25 -125c-25 12 -49 14 -71 14c-80 0 -116 -63 -116 -186z" />
    <glyph glyph-name="Tcommaaccent" unicode="&#x162;" horiz-adv-x="576" 
d="M28 557v132h520v-132h-186v-557h-148v557h-186zM242 -287l-68 35c42 59 59 105 58 196h117c-10 -129 -61 -193 -107 -231z" />
    <glyph glyph-name="tcommaaccent" unicode="&#x163;" horiz-adv-x="365" 
d="M246 467h98v-110h-98v-357h-138v357h-85v110h85v179h138v-179zM130 -287l-68 35c42 59 59 105 58 196h117c-10 -129 -61 -193 -107 -231z" />
    <glyph glyph-name="Scommaaccent" unicode="&#x218;" horiz-adv-x="582" 
d="M44 202h147c2 -44 37 -83 103 -83c59 0 100 28 101 73c1 31 -13 58 -83 78l-83 23c-152 47 -178 136 -178 198c0 123 105 206 237 206c133 0 233 -79 233 -211h-146c0 46 -31 78 -89 78c-51 0 -89 -28 -89 -69c0 -18 7 -51 74 -70l82 -26c167 -48 191 -142 189 -208
c-2 -137 -126 -202 -248 -202c-150 0 -250 89 -250 213zM243 -287l-68 35c42 59 59 105 58 196h117c-10 -129 -61 -193 -107 -231z" />
    <glyph glyph-name="scommaaccent" unicode="&#x219;" horiz-adv-x="467" 
d="M246 176l-61 16c-140 38 -141 109 -140 152c1 69 84 133 182 133c93 0 191 -41 192 -155h-131c-1 35 -31 41 -53 41c-30 0 -50 -14 -49 -35c1 -14 13 -28 41 -35l79 -21c113 -31 127 -106 127 -136c0 -99 -104 -146 -202 -146c-95 0 -194 57 -195 161h130
c1 -27 31 -54 69 -54c31 1 57 15 57 39c0 20 -12 31 -46 40zM195 -287l-68 35c42 59 59 105 58 196h117c-10 -129 -61 -193 -107 -231z" />
    <glyph glyph-name="uni2113" unicode="&#x2113;" horiz-adv-x="401" 
d="M183 521v-240l27 3c18 0 23 19 23 38v200c0 29 -5 58 -23 58c-27 0 -27 -31 -27 -59zM234 113l98 -7v-106h-123c-116 0 -149 76 -149 170v357c0 95 33 170 149 170c112 0 147 -79 147 -177v-186c0 -98 -27 -169 -173 -169c0 -23 3 -49 51 -52z" />
    <glyph glyph-name="gcommaaccent" unicode="&#x123;" horiz-adv-x="608" 
d="M406 235c0 -68 -56 -114 -113 -114c-59 0 -112 44 -112 114c0 66 53 110 112 110c58 0 113 -40 113 -110zM162 -33c-35 -17 -77 -38 -112 -55c39 -87 127 -145 230 -145c166 0 264 97 264 298v402h-135v-58c-23 43 -82 68 -140 68c-120 0 -233 -95 -233 -245
c0 -147 113 -242 233 -242c58 0 118 25 140 68c6 -93 -23 -166 -129 -166c-47 0 -102 32 -118 75zM321 785l68 -35c-42 -59 -59 -105 -58 -196h-117c10 129 61 193 107 231z" />
    <glyph glyph-name="published" horiz-adv-x="797" 
d="M368 428h57c23 0 35 -22 35 -40s-13 -41 -37 -41h-55v81zM284 503v-336h84v106h58c81 0 117 58 117 115c0 58 -36 115 -117 115h-142zM49 343c0 195 154 354 349 354s350 -159 350 -354s-155 -353 -350 -353s-349 158 -349 353zM127 343c0 -151 120 -274 271 -274
s271 123 271 274s-120 275 -271 275s-271 -124 -271 -275z" />
    <glyph glyph-name="rupiah" unicode="&#xf6dd;" horiz-adv-x="1191" 
d="M344 560h-128v-194h124c57 0 87 52 87 97c0 43 -28 97 -83 97zM408 244l171 -244h-176l-154 238h-33v-238h-147v689h282c156 0 229 -113 229 -226c0 -98 -54 -194 -172 -219zM797 232c0 -70 51 -111 108 -111c59 0 108 44 108 111c0 69 -49 113 -108 113
c-58 0 -108 -46 -108 -113zM656 467h138v-58c23 43 79 68 137 68c120 0 226 -95 226 -242c0 -150 -106 -245 -226 -245c-58 0 -114 24 -137 67v-286h-138v696z" />
    <glyph glyph-name="rupee" unicode="&#x20a8;" horiz-adv-x="717" 
d="M376 445h-315v59h309c-12 30 -37 56 -75 56h-234l-1 129h613v-59h-210c36 -34 57 -79 64 -126h146v-59h-143c-6 -92 -60 -178 -171 -201l171 -244h-176l-154 238h-139v128h230c49 0 78 39 85 79z" />
    <glyph glyph-name="colonmonetary" unicode="&#x20a1;" horiz-adv-x="710" 
d="M333 -6l-37 -106l-58 21l35 99c-22 7 -43 16 -62 27l-40 -112l-58 21l46 129c-75 65 -121 162 -121 270c0 195 148 352 343 354l39 108l58 -22l-33 -91c23 -4 45 -10 66 -18l34 96l58 -22l-36 -100c42 -25 77 -58 104 -97l-119 -82c-10 14 -22 28 -35 39l-136 -380h3
c72 0 135 39 172 95l118 -82c-60 -91 -165 -151 -290 -151c-17 0 -34 1 -51 4zM398 558l-138 -385c17 -15 37 -27 59 -34l145 403c-21 9 -43 15 -66 16zM185 343c0 -43 10 -82 29 -115l115 323c-86 -25 -144 -108 -144 -208z" />
    <glyph glyph-name="uni20A9" unicode="&#x20a9;" horiz-adv-x="1007" 
d="M240 155h-178v68h155l-51 151h-104v68h81l-83 247h158l76 -247h109l41 150h120l40 -150h109l77 247h159l-84 -247h79v-68h-102l-52 -151h154v-68h-177l-52 -155h-115l-42 155h-110l-40 -155h-116zM503 362l-37 -139h74zM315 374l37 -119l32 119h-69zM623 374l32 -119
l37 119h-69z" />
    <glyph glyph-name="lira" unicode="&#x20a4;" horiz-adv-x="683" 
d="M290 228v-104h184c18 0 30 16 30 36v29h137v-56c0 -76 -55 -133 -126 -133h-471v124h106v104h-83v63h83v47h-83v63h83v72c0 137 90 224 213 224s227 -72 227 -230h-145c0 64 -37 82 -79 82c-46 0 -76 -30 -76 -76v-72h115v-63h-115v-47h115v-63h-115z" />
    <glyph glyph-name="afii57636" unicode="&#x20aa;" horiz-adv-x="953" 
d="M658 332v-119h-140v93c0 50 -39 92 -102 92h-190v-398h-140v538h361c128 0 211 -91 211 -206zM295 206v119h140v-93c0 -50 39 -92 102 -92h190v398h140v-538h-361c-128 0 -211 91 -211 206z" />
    <glyph glyph-name="frenchfranc" horiz-adv-x="746" 
d="M367 0v299h-130v-299h-147v689h431v-129h-284v-137h262v-108c24 87 74 123 122 123c33 0 68 -6 90 -17l-25 -127c-31 16 -49 16 -71 16c-80 0 -116 -63 -116 -186v-124h-132z" />
    <glyph glyph-name="uni20A6" unicode="&#x20a6;" horiz-adv-x="782" 
d="M131 212h-76v68h76v157h-76v68h76v184h134l105 -184h131v184h147v-184h81v-68h-81v-157h81v-68h-81v-212h-131l-122 212h-118v-212h-146v212zM409 437l90 -157h2v157h-92zM277 417v-137h79z" />
    <glyph glyph-name="peseta" unicode="&#x20a7;" horiz-adv-x="755" 
d="M483 438h-213v-72h129c46 0 75 34 84 72zM270 497h211c-11 33 -37 63 -78 63h-133v-63zM720 438h-88c-10 -105 -81 -200 -226 -200h-136v-238h-147v438h-78v59h78v192h283c141 0 212 -92 225 -192h89v-59z" />
    <glyph glyph-name="afii61352" unicode="&#x2116;" horiz-adv-x="984" 
d="M603 0v689h-147v-412l-236 412h-134v-689h146v417l240 -417h131zM672 563c0 74 58 134 133 134c74 0 134 -60 134 -134c0 -75 -60 -133 -134 -133c-75 0 -133 58 -133 133zM747 563c0 -33 25 -58 58 -58c32 0 59 25 59 58c0 32 -27 59 -59 59c-33 0 -58 -27 -58 -59z
M678 318v67h254v-67h-254z" />
    <glyph glyph-name="thinspace" unicode="&#x2009;" horiz-adv-x="14" 
 />
    <glyph glyph-name="parenleft.case" horiz-adv-x="388" 
d="M39 340c0 271 137 469 317 469v-109c-99 0 -200 -176 -200 -360s101 -353 200 -353v-108c-180 0 -317 190 -317 461z" />
    <glyph glyph-name="parenright.case" horiz-adv-x="388" 
d="M349 340c0 -271 -137 -461 -317 -461v108c99 0 200 169 200 353s-101 360 -200 360v109c180 0 317 -198 317 -469z" />
    <glyph glyph-name="hyphen.case" horiz-adv-x="475" 
d="M61 281v132h353v-132h-353z" />
    <glyph glyph-name="at.case" horiz-adv-x="964" 
d="M583 217v126c0 66 -52 117 -116 117c-63 0 -116 -51 -116 -117c0 -63 53 -115 116 -115c21 0 54 7 79 25v-94c-23 -10 -56 -19 -79 -19c-113 0 -205 90 -205 203c0 115 92 205 205 205c55 0 105 -21 142 -56c39 -35 62 -85 64 -139v-142c0 -47 32 -60 60 -60
c87 0 105 129 105 205c0 192 -166 333 -361 333c-193 0 -343 -158 -343 -351s150 -346 343 -346h33v-89h-33c-243 0 -432 192 -432 435s189 440 432 440s451 -180 451 -422c0 -119 -50 -293 -195 -293c-76 0 -150 39 -150 154z" />
    <glyph glyph-name="bracketleft.case" horiz-adv-x="338" 
d="M73 -116v918h231v-101h-113v-714h113v-103h-231z" />
    <glyph glyph-name="bracketright.case" horiz-adv-x="338" 
d="M265 802v-918h-231v103h113v714h-113v101h231z" />
    <glyph glyph-name="braceleft.case" horiz-adv-x="412" 
d="M31 300v84c29 0 61 21 61 58v159c-1 122 91 200 202 200h85v-101h-88c-45 0 -82 -37 -82 -86v-164c0 -62 -46 -99 -79 -108c33 -9 79 -46 79 -108v-153c0 -49 37 -93 82 -93h88v-105h-85c-111 0 -203 78 -202 200v159c0 37 -32 58 -61 58z" />
    <glyph glyph-name="braceright.case" horiz-adv-x="412" 
d="M381 384v-84c-29 0 -61 -21 -61 -58v-159c1 -122 -91 -200 -202 -200h-85v105h88c45 0 82 44 82 93v153c0 62 46 99 79 108c-33 9 -79 46 -79 108v164c0 49 -37 86 -82 86h-88v101h85c111 0 203 -78 202 -200v-159c0 -37 32 -58 61 -58z" />
    <glyph glyph-name="exclamdown.case" horiz-adv-x="284" 
d="M219 -10h-154l20 487h114zM55 613c0 49 39 84 86 84s87 -35 87 -84c0 -48 -40 -83 -87 -83s-86 35 -86 83z" />
    <glyph glyph-name="guillemotleft.case" horiz-adv-x="527" 
d="M48 345l138 207h108l-138 -207l138 -207h-108zM225 345l138 207h108l-138 -207l138 -207h-108z" />
    <glyph glyph-name="periodcentered.case" horiz-adv-x="279" 
d="M53 368c0 49 39 84 86 84s87 -35 87 -84c0 -48 -40 -83 -87 -83s-86 35 -86 83z" />
    <glyph glyph-name="guillemotright.case" horiz-adv-x="527" 
d="M479 345l-138 -207h-108l138 207l-138 207h108zM302 345l-138 -207h-108l138 207l-138 207h108z" />
    <glyph glyph-name="questiondown.case" horiz-adv-x="496" 
d="M222 457l2 22h136l2 -22c0 -107 -2 -155 -109 -201l-40 -17c-35 -19 -37 -33 -37 -55c0 -30 29 -54 71 -54s71 27 71 69h140c0 -128 -86 -209 -211 -209s-211 75 -211 195c0 97 56 165 134 189c41 12 52 36 52 83zM376 613c0 -48 -39 -83 -86 -83s-87 35 -87 83
c0 49 40 84 87 84s86 -35 86 -84z" />
    <glyph glyph-name="endash.case" horiz-adv-x="642" 
d="M64 285v124h514v-124h-514z" />
    <glyph glyph-name="emdash.case" horiz-adv-x="855" 
d="M64 285v124h727v-124h-727z" />
    <glyph glyph-name="bullet.case" horiz-adv-x="470" 
d="M75 350c0 89 73 154 160 154s160 -65 160 -154s-73 -154 -160 -154s-160 65 -160 154z" />
    <glyph glyph-name="guilsinglleft.case" horiz-adv-x="350" 
d="M48 345l138 207h108l-138 -207l138 -207h-108z" />
    <glyph glyph-name="guilsinglright.case" horiz-adv-x="350" 
d="M302 345l-138 -207h-108l138 207l-138 207h108z" />
    <glyph glyph-name="cent.case" horiz-adv-x="539" 
d="M319 697v-106c72 -7 137 -42 177 -98l-113 -81c-19 30 -54 47 -90 47c-59 0 -116 -42 -116 -109s57 -112 116 -112c36 0 71 17 90 47l113 -80c-40 -57 -104 -92 -177 -99v-115h-73v118c-114 20 -207 111 -207 241c0 129 93 218 207 238v109h73z" />
    <glyph glyph-name="zero.tnum" horiz-adv-x="580" 
d="M46 328c0 189 54 340 245 340s243 -151 243 -340c0 -187 -52 -338 -243 -338s-245 151 -245 338zM186 328c0 -110 25 -202 105 -202c79 0 103 92 103 202c0 111 -24 204 -103 204c-80 0 -105 -93 -105 -204z" />
    <glyph glyph-name="one.tnum" horiz-adv-x="580" 
d="M392 664v-664h-140v469l-112 -48v123z" />
    <glyph glyph-name="two.tnum" horiz-adv-x="580" 
d="M493 0h-426v76l269 319c20 23 35 49 35 74c0 35 -30 65 -82 65c-50 0 -85 -39 -93 -91l-128 22c20 125 105 203 229 203c116 0 214 -81 214 -199c0 -63 -29 -121 -69 -166l-151 -171h202v-132z" />
    <glyph glyph-name="three.tnum" horiz-adv-x="580" 
d="M272 284h-69v120h69c69 0 64 68 64 71c0 20 -17 63 -66 63c-34 0 -57 -16 -69 -36l-113 69c39 62 116 102 204 97c114 -6 197 -90 194 -184c0 -54 -36 -101 -84 -128c72 -26 118 -108 112 -178c-11 -112 -127 -195 -258 -186c-92 6 -173 61 -209 137l123 61
c14 -31 60 -61 97 -63c50 -3 90 36 94 70c1 12 10 91 -89 87z" />
    <glyph glyph-name="four.tnum" horiz-adv-x="580" 
d="M199 265h122v204zM545 147h-83v-147h-141v147h-313l306 508h148v-390h83v-118z" />
    <glyph glyph-name="five.tnum" horiz-adv-x="580" 
d="M399 231c0 73 -53 107 -121 107c-39 0 -107 -14 -144 -72l-77 40l54 349h384v-128h-273l-17 -106c26 23 77 34 120 34c118 0 214 -78 214 -224c0 -139 -105 -241 -270 -241c-91 0 -182 54 -232 132l118 76c26 -40 73 -68 114 -68c76 0 130 48 130 101z" />
    <glyph glyph-name="six.tnum" horiz-adv-x="580" 
d="M329 422c93 0 201 -70 201 -221c0 -126 -95 -211 -238 -211c-124 0 -223 89 -235 228c-16 202 19 458 265 450c78 -3 154 -27 202 -127l-131 -56c-18 38 -46 52 -76 52c-96 0 -123 -101 -120 -189c8 23 50 74 132 74zM385 209c0 47 -39 86 -86 86s-86 -39 -86 -86
s39 -86 86 -86s86 39 86 86z" />
    <glyph glyph-name="seven.tnum" horiz-adv-x="580" 
d="M58 655h494l-289 -655h-159l231 526h-277v129z" />
    <glyph glyph-name="eight.tnum" horiz-adv-x="580" 
d="M88 485c0 101 91 183 202 183s203 -82 203 -183c0 -46 -18 -83 -48 -110c57 -33 94 -94 94 -165c0 -125 -112 -220 -249 -220s-249 95 -249 220c0 72 37 132 94 165c-29 28 -47 65 -47 110zM181 217c0 -55 51 -97 109 -97s109 42 109 97c0 50 -37 98 -110 98
c-71 0 -108 -48 -108 -98zM223 481c0 -33 22 -63 67 -63s67 30 67 63c0 32 -24 61 -67 61s-67 -29 -67 -61z" />
    <glyph glyph-name="nine.tnum" horiz-adv-x="580" 
d="M250 236c-93 0 -201 70 -201 221c0 126 95 211 238 211c124 0 223 -89 235 -228c16 -202 -19 -458 -265 -450c-78 3 -154 27 -202 127l131 56c18 -38 46 -52 76 -52c96 0 123 101 120 189c-8 -23 -34 -74 -132 -74zM194 449c0 -47 39 -86 86 -86s86 39 86 86
s-39 86 -86 86s-86 -39 -86 -86z" />
    <glyph glyph-name="zero.taboldstyle" horiz-adv-x="580" 
d="M289 -8c-134 0 -256 105 -256 264c0 162 122 264 256 264c137 0 257 -102 257 -264c0 -159 -120 -264 -257 -264zM289 122c64 0 126 53 126 134c0 82 -62 133 -126 133c-63 0 -124 -51 -124 -133c0 -81 61 -134 124 -134z" />
    <glyph glyph-name="one.taboldstyle" horiz-adv-x="580" 
d="M407 517v-517h-140v314l-130 -51v132z" />
    <glyph glyph-name="two.taboldstyle" horiz-adv-x="580" 
d="M496 0h-419v80l235 232c19 18 32 33 32 47c0 22 -19 43 -56 43s-67 -17 -72 -59l-136 16c13 100 83 171 209 171c125 0 208 -78 208 -163c0 -46 -25 -90 -62 -121l-136 -124h197v-122z" />
    <glyph glyph-name="six.taboldstyle" horiz-adv-x="580" 
d="M329 422c93 0 201 -70 201 -221c0 -126 -95 -211 -238 -211c-124 0 -223 89 -235 228c-16 202 19 458 265 450c78 -3 154 -27 202 -127l-131 -56c-18 38 -46 52 -76 52c-96 0 -123 -101 -120 -189c8 23 50 74 132 74zM385 209c0 47 -39 86 -86 86s-86 -39 -86 -86
s39 -86 86 -86s86 39 86 86z" />
    <glyph glyph-name="eight.taboldstyle" horiz-adv-x="580" 
d="M88 485c0 101 91 183 202 183s203 -82 203 -183c0 -46 -18 -83 -48 -110c57 -33 94 -94 94 -165c0 -125 -112 -220 -249 -220s-249 95 -249 220c0 72 37 132 94 165c-29 28 -47 65 -47 110zM181 217c0 -55 51 -97 109 -97s109 42 109 97c0 50 -37 98 -110 98
c-71 0 -108 -48 -108 -98zM223 481c0 -33 22 -63 67 -63s67 30 67 63c0 32 -24 61 -67 61s-67 -29 -67 -61z" />
    <glyph glyph-name="three.taboldstyle" horiz-adv-x="580" 
d="M274 93h-69v120h69c69 0 64 68 64 71c0 20 -17 63 -66 63c-34 0 -57 -16 -69 -36l-113 69c39 62 116 102 204 97c114 -6 197 -90 194 -184c0 -54 -36 -101 -84 -128c72 -26 118 -108 112 -178c-11 -112 -127 -195 -258 -186c-92 6 -173 61 -209 137l123 61
c14 -31 60 -61 97 -63c50 -3 90 36 94 70c1 12 10 91 -89 87z" />
    <glyph glyph-name="four.taboldstyle" horiz-adv-x="580" 
d="M200 76h122v204zM546 -42h-83v-147h-141v147h-313l306 508h148v-390h83v-118z" />
    <glyph glyph-name="five.taboldstyle" horiz-adv-x="580" 
d="M399 43c0 73 -53 107 -121 107c-39 0 -107 -14 -144 -72l-77 40l54 349h384v-128h-273l-17 -106c26 23 77 34 120 34c118 0 214 -78 214 -224c0 -139 -105 -241 -270 -241c-91 0 -182 54 -232 132l118 76c26 -40 73 -68 114 -68c76 0 130 48 130 101z" />
    <glyph glyph-name="seven.taboldstyle" horiz-adv-x="580" 
d="M59 467h494l-289 -655h-159l231 526h-277v129z" />
    <glyph glyph-name="nine.taboldstyle" horiz-adv-x="580" 
d="M253 45c-93 0 -201 70 -201 221c0 126 95 211 238 211c124 0 223 -89 235 -228c16 -202 -19 -458 -265 -450c-78 3 -154 27 -202 127l131 56c18 -38 46 -52 76 -52c96 0 123 101 120 189c-8 -23 -34 -74 -132 -74zM197 258c0 -47 39 -86 86 -86s86 39 86 86
s-39 86 -86 86s-86 -39 -86 -86z" />
    <glyph glyph-name="zero.oldstyle" horiz-adv-x="631" 
d="M315 -8c-134 0 -256 105 -256 264c0 162 122 264 256 264c137 0 257 -102 257 -264c0 -159 -120 -264 -257 -264zM315 122c64 0 126 53 126 134c0 82 -62 133 -126 133c-63 0 -124 -51 -124 -133c0 -81 61 -134 124 -134z" />
    <glyph glyph-name="one.oldstyle" horiz-adv-x="387" 
d="M311 517v-517h-140v314l-130 -51v132z" />
    <glyph glyph-name="two.oldstyle" horiz-adv-x="542" 
d="M477 0h-419v80l235 232c19 18 32 33 32 47c0 22 -19 43 -56 43s-67 -17 -72 -59l-136 16c13 100 83 171 209 171c125 0 208 -78 208 -163c0 -46 -25 -90 -62 -121l-136 -124h197v-122z" />
    <glyph glyph-name="three.oldstyle" horiz-adv-x="531" 
d="M250 93h-69v120h69c69 0 64 68 64 71c0 20 -17 63 -66 63c-34 0 -57 -16 -69 -36l-113 69c39 62 116 102 204 97c114 -6 197 -90 194 -184c0 -54 -36 -101 -84 -128c72 -26 118 -108 112 -178c-11 -112 -127 -195 -258 -186c-92 6 -173 61 -209 137l123 61
c14 -31 60 -61 97 -63c50 -3 90 36 94 70c1 12 10 91 -89 87z" />
    <glyph glyph-name="four.oldstyle" horiz-adv-x="587" 
d="M204 76h122v204zM550 -42h-83v-147h-141v147h-313l306 508h148v-390h83v-118z" />
    <glyph glyph-name="five.oldstyle" horiz-adv-x="577" 
d="M398 42c0 73 -53 107 -121 107c-39 0 -107 -14 -144 -72l-77 40l54 349h384v-128h-273l-17 -106c26 23 77 34 120 34c118 0 214 -78 214 -224c0 -139 -105 -241 -270 -241c-91 0 -182 54 -232 132l118 76c26 -40 73 -68 114 -68c76 0 130 48 130 101z" />
    <glyph glyph-name="six.oldstyle" horiz-adv-x="586" 
d="M332 422c93 0 201 -70 201 -221c0 -126 -95 -211 -238 -211c-124 0 -223 89 -235 228c-16 202 19 458 265 450c78 -3 154 -27 202 -127l-131 -56c-18 38 -46 52 -76 52c-96 0 -123 -101 -120 -189c8 23 50 74 132 74zM388 209c0 47 -39 86 -86 86s-86 -39 -86 -86
s39 -86 86 -86s86 39 86 86z" />
    <glyph glyph-name="seven.oldstyle" horiz-adv-x="528" 
d="M33 467h494l-289 -655h-159l231 526h-277v129z" />
    <glyph glyph-name="eight.oldstyle" horiz-adv-x="596" 
d="M96 485c0 101 91 183 202 183s203 -82 203 -183c0 -46 -18 -83 -48 -110c57 -33 94 -94 94 -165c0 -125 -112 -220 -249 -220s-249 95 -249 220c0 72 37 132 94 165c-29 28 -47 65 -47 110zM189 217c0 -55 51 -97 109 -97s109 42 109 97c0 50 -37 98 -110 98
c-71 0 -108 -48 -108 -98zM231 481c0 -33 22 -63 67 -63s67 30 67 63c0 32 -24 61 -67 61s-67 -29 -67 -61z" />
    <glyph glyph-name="nine.oldstyle" horiz-adv-x="566" 
d="M246 45c-93 0 -201 70 -201 221c0 126 95 211 238 211c124 0 223 -89 235 -228c16 -202 -19 -458 -265 -450c-78 3 -154 27 -202 127l131 56c18 -38 46 -52 76 -52c96 0 123 101 120 189c-8 -23 -34 -74 -132 -74zM190 258c0 -47 39 -86 86 -86s86 39 86 86
s-39 86 -86 86s-86 -39 -86 -86z" />
    <glyph glyph-name="Edieresis" unicode="&#xcb;" horiz-adv-x="576" 
d="M81 689v-689h445v129h-299v147h254v127h-254v157h290v129h-436zM123 860c0 38 33 68 73 68c39 0 71 -30 71 -68c0 -39 -32 -69 -71 -69c-40 0 -73 30 -73 69zM300 860c0 38 33 68 73 68c39 0 71 -30 71 -68c0 -39 -32 -69 -71 -69c-40 0 -73 30 -73 69z" />
    <glyph glyph-name="Lslash.sc" horiz-adv-x="435" 
d="M211 398l75 47v-78l-75 -47v-208h209v-112h-336v240l-59 -36v78l59 37v247h127v-168z" />
    <glyph glyph-name="Zcaron.sc" horiz-adv-x="516" 
d="M198 760l63 -70l64 70h88l-93 -142h-118l-92 142h88zM47 95l254 360h-243v111h406v-94l-255 -360h255v-112h-417v95z" />
    <glyph glyph-name="exclam.sc" horiz-adv-x="289" 
d="M79 566h130l-16 -399h-97zM71 61c0 41 33 70 73 70s73 -29 73 -70s-33 -71 -73 -71s-73 30 -73 71z" />
    <glyph glyph-name="ampersand.sc" horiz-adv-x="590" 
d="M355 205v42h-68c-80 0 -101 -28 -106 -61c-4 -47 36 -78 82 -78c24 0 71 16 87 64c3 10 5 22 5 33zM266 344h89v64h112v-64h65v-97h-65v-80c0 -61 14 -70 76 -70v-105c-88 1 -141 6 -163 65c-23 -44 -88 -67 -134 -67c-111 0 -195 70 -195 168c0 69 29 120 86 143
c-39 15 -64 54 -64 112c0 79 74 160 167 160c84 0 130 -32 165 -76l-101 -63c-13 13 -25 22 -45 22c-40 0 -55 -28 -55 -52c0 -1 -1 -60 62 -60z" />
    <glyph glyph-name="question.sc" horiz-adv-x="427" 
d="M154 401h-114l-3 -3c0 106 70 173 175 173c103 0 174 -63 174 -162c0 -80 -47 -137 -111 -156c-33 -10 -35 -25 -39 -57l-3 -28h-117l-1 20c0 88 22 137 98 167c47 19 52 30 52 55c0 21 -22 40 -53 40c-33 0 -55 -21 -58 -49zM103 61c0 42 34 71 73 71
c41 0 75 -29 75 -71c0 -41 -34 -71 -75 -71c-39 0 -73 30 -73 71z" />
    <glyph glyph-name="A.sc" 
d="M379 132h-189l-50 -132h-133l210 566h134l210 -566h-133zM338 242l-55 182l-52 -182h107z" />
    <glyph glyph-name="B.sc" horiz-adv-x="550" 
d="M475 407c0 -37 -15 -80 -71 -104c71 -22 100 -83 100 -128c0 -95 -69 -175 -182 -175h-244v566h228c103 0 169 -61 169 -159zM204 346h90c29 0 49 22 49 54s-17 54 -50 54h-89v-108zM313 240h-109v-128h111c37 0 57 33 57 66c0 29 -20 62 -59 62z" />
    <glyph glyph-name="C.sc" horiz-adv-x="599" 
d="M467 188l102 -71c-50 -78 -138 -127 -240 -127c-162 0 -285 130 -285 289c0 162 123 292 285 292c102 0 186 -50 238 -124l-103 -70c-31 46 -79 75 -135 75c-91 0 -158 -77 -158 -173c0 -93 67 -170 158 -170c57 0 108 31 138 79z" />
    <glyph glyph-name="D.sc" horiz-adv-x="604" 
d="M300 0h-222v566h222c164 0 257 -123 257 -285c0 -160 -93 -281 -257 -281zM204 115h96c87 0 131 78 131 166c0 91 -44 170 -131 170h-96v-336z" />
    <glyph glyph-name="E.sc" horiz-adv-x="499" 
d="M78 566h361v-112h-236v-120h207v-110h-207v-112h243v-112h-368v566z" />
    <glyph glyph-name="F.sc" horiz-adv-x="466" 
d="M78 566h357v-112h-231v-120h183v-111h-183v-223h-126v566z" />
    <glyph glyph-name="G.sc" horiz-adv-x="641" 
d="M458 397h-4c-29 34 -73 56 -120 56c-92 0 -164 -78 -164 -174c0 -93 72 -173 164 -173c57 0 129 33 131 89h-150v103h295c0 -213 -113 -308 -276 -308s-290 130 -290 289c0 162 127 292 290 292c87 0 165 -37 215 -95z" />
    <glyph glyph-name="H.sc" horiz-adv-x="600" 
d="M522 566v-566h-127v225h-192v-225h-125v566h125v-228h192v228h127z" />
    <glyph glyph-name="I.sc" horiz-adv-x="281" 
d="M203 566v-566h-125v566h125z" />
    <glyph glyph-name="J.sc" horiz-adv-x="282" 
d="M-69 -177l11 114c27 -9 70 -10 75 -10c44 0 61 34 61 74v565h126v-565c0 -105 -50 -193 -187 -193c-14 0 -53 6 -86 15z" />
    <glyph glyph-name="K.sc" horiz-adv-x="528" 
d="M267 286l265 -286h-164l-163 185v-185h-127v566h127v-175l128 175h148z" />
    <glyph glyph-name="L.sc" horiz-adv-x="428" 
d="M78 566h126v-454h209v-112h-335v566z" />
    <glyph glyph-name="M.sc" horiz-adv-x="772" 
d="M386 210l165 356h106l68 -566h-126l-38 326l-126 -262h-96l-127 262l-39 -326h-126l69 566h104z" />
    <glyph glyph-name="N.sc" horiz-adv-x="582" 
d="M504 0h-111l-190 329v-329h-125v566h114l186 -324v324h126v-566z" />
    <glyph glyph-name="O.sc" horiz-adv-x="662" 
d="M44 279c0 162 126 292 286 292c162 0 288 -130 288 -292c0 -159 -126 -289 -288 -289c-160 0 -286 130 -286 289zM169 279c0 -90 71 -164 161 -164c91 0 163 74 163 164c0 92 -72 167 -163 167c-90 0 -161 -75 -161 -167z" />
    <glyph glyph-name="P.sc" horiz-adv-x="529" 
d="M78 566h233c130 0 189 -94 189 -187c0 -95 -59 -185 -189 -185h-107v-194h-126v566zM309 454h-105v-150h101c44 0 68 40 68 75c0 34 -22 75 -64 75z" />
    <glyph glyph-name="Q.sc" horiz-adv-x="667" 
d="M504 45l54 -90l-90 -55l-61 99c-23 -6 -48 -9 -73 -9c-163 0 -290 130 -290 289c0 162 127 292 290 292c164 0 290 -130 290 -292c0 -95 -46 -180 -120 -234zM386 238l54 -88c32 30 58 79 58 129c0 96 -73 173 -164 173c-92 0 -164 -77 -164 -173c0 -80 53 -146 128 -162
c14 -4 28 -5 42 -5l-28 44l-17 28z" />
    <glyph glyph-name="R.sc" horiz-adv-x="550" 
d="M362 199l141 -199h-153l-125 194h-21v-194h-126v566h233c128 0 190 -94 190 -187c0 -79 -46 -157 -139 -180zM305 454h-101v-150h97c45 0 68 40 68 75c0 34 -21 75 -64 75z" />
    <glyph glyph-name="S.sc" horiz-adv-x="500" 
d="M46 169h126c2 -36 29 -66 80 -66c46 0 78 20 79 55c0 24 -9 45 -65 60l-68 20c-125 37 -146 112 -146 163c0 103 86 171 195 171c111 0 193 -66 193 -178h-125c0 37 -24 63 -68 63c-40 0 -70 -22 -70 -52c0 -14 5 -39 58 -55l67 -20c129 -36 156 -116 156 -172
c0 -115 -106 -168 -206 -168c-124 0 -206 75 -206 179z" />
    <glyph glyph-name="T.sc" horiz-adv-x="471" 
d="M21 566h429v-114h-150v-452h-128v452h-151v114z" />
    <glyph glyph-name="U.sc" horiz-adv-x="584" 
d="M293 109c48 0 93 37 93 92v365h126v-365c0 -129 -102 -211 -219 -211s-221 82 -221 211v365h128v-365c0 -55 45 -92 93 -92z" />
    <glyph glyph-name="V.sc" horiz-adv-x="505" 
d="M155 566l97 -355l97 355h132l-173 -566h-111l-173 566h131z" />
    <glyph glyph-name="W.sc" horiz-adv-x="759" 
d="M610 566h136l-193 -566h-98l-76 284l-75 -284h-99l-191 566h136l106 -343l72 264h103l71 -263z" />
    <glyph glyph-name="X.sc" horiz-adv-x="573" 
d="M360 302l198 -302h-149l-123 198l-121 -198h-149l195 302l-178 264h152l101 -164l103 164h150z" />
    <glyph glyph-name="Y.sc" horiz-adv-x="575" 
d="M351 0h-128v256l-219 310h150l133 -206l133 206h152l-221 -311v-255z" />
    <glyph glyph-name="Z.sc" horiz-adv-x="516" 
d="M47 95l254 360h-243v111h406v-94l-255 -360h255v-112h-417v95z" />
    <glyph glyph-name="Scaron.sc" horiz-adv-x="500" 
d="M189 760l62 -71l65 71h87l-92 -142h-118l-93 142h89zM46 169h126c2 -36 29 -66 80 -66c46 0 78 20 79 55c0 24 -9 45 -65 60l-68 20c-125 37 -146 112 -146 163c0 103 86 171 195 171c111 0 193 -66 193 -178h-125c0 37 -24 63 -68 63c-40 0 -70 -22 -70 -52
c0 -14 5 -39 58 -55l67 -20c129 -36 156 -116 156 -172c0 -115 -106 -168 -206 -168c-124 0 -206 75 -206 179z" />
    <glyph glyph-name="OE.sc" horiz-adv-x="916" 
d="M495 566h361v-111h-235v-121h205v-110h-205v-112h242v-112h-368v48c-46 -37 -103 -58 -163 -58c-161 0 -288 130 -288 289c0 162 127 292 288 292c60 0 117 -17 163 -59v54zM170 279c0 -90 71 -164 162 -164c90 0 162 74 162 164c0 91 -72 167 -162 167
c-91 0 -162 -75 -162 -167z" />
    <glyph glyph-name="Ydieresis.sc" horiz-adv-x="575" 
d="M351 0h-128v256l-219 310h150l133 -206l133 206h152l-221 -311v-255zM154 703c0 33 28 58 62 58s60 -25 60 -58c0 -35 -26 -59 -60 -59s-62 24 -62 59zM298 703c0 33 28 58 62 58s60 -25 60 -58c0 -35 -26 -59 -60 -59s-62 24 -62 59z" />
    <glyph glyph-name="exclamdown.sc" horiz-adv-x="287" 
d="M208 0h-130l17 399h97zM70 505c0 41 33 71 73 71s73 -30 73 -71s-33 -70 -73 -70s-73 29 -73 70z" />
    <glyph glyph-name="questiondown.sc" horiz-adv-x="430" 
d="M275 160h114l3 3c0 -106 -70 -173 -175 -173c-103 0 -174 63 -174 162c0 80 47 137 111 156c33 10 35 25 39 57l3 28h117l1 -20c0 -88 -22 -137 -98 -167c-47 -19 -52 -30 -52 -55c0 -21 22 -40 53 -40c33 0 55 21 58 49zM326 500c0 -42 -34 -71 -73 -71
c-41 0 -75 29 -75 71c0 41 34 71 75 71c39 0 73 -30 73 -71z" />
    <glyph glyph-name="Agrave.sc" 
d="M261 619l-125 142h121l93 -142h-89zM379 132h-189l-50 -132h-133l210 566h134l210 -566h-133zM338 242l-55 182l-52 -182h107z" />
    <glyph glyph-name="Aacute.sc" 
d="M436 761l-125 -142h-89l94 142h120zM379 132h-189l-50 -132h-133l210 566h134l210 -566h-133zM338 242l-55 182l-52 -182h107z" />
    <glyph glyph-name="Acircumflex.sc" 
d="M346 622l-63 70l-63 -70h-88l92 143h117l93 -143h-88zM379 132h-189l-50 -132h-133l210 566h134l210 -566h-133zM338 242l-55 182l-52 -182h107z" />
    <glyph glyph-name="Atilde.sc" 
d="M379 132h-189l-50 -132h-133l210 566h134l210 -566h-133zM338 242l-55 182l-52 -182h107zM248 673c-5 0 -17 -9 -17 -34h-68c4 83 50 111 85 111c30 0 45 -33 71 -33c4 0 17 7 18 33h67c-3 -85 -51 -110 -85 -110c-28 0 -45 33 -71 33z" />
    <glyph glyph-name="Adieresis.sc" 
d="M139 703c0 33 29 58 63 58s60 -25 60 -58c0 -35 -26 -59 -60 -59s-63 24 -63 59zM283 703c0 33 29 58 63 58s61 -25 61 -58c0 -35 -27 -59 -61 -59s-63 24 -63 59zM379 132h-189l-50 -132h-133l210 566h134l210 -566h-133zM338 242l-55 182l-52 -182h107z" />
    <glyph glyph-name="Aring.sc" 
d="M182 720c0 58 44 103 101 103s102 -45 102 -103c0 -57 -45 -101 -102 -101s-101 44 -101 101zM241 720c0 -24 19 -42 42 -42c24 0 44 18 44 42s-20 44 -44 44c-23 0 -42 -20 -42 -44zM379 132h-189l-50 -132h-133l210 566h134l210 -566h-133zM338 242l-55 182l-52 -182
h107z" />
    <glyph glyph-name="AE.sc" horiz-adv-x="796" 
d="M229 128l-81 -128h-151l358 566h380v-111h-235v-121h206v-110h-206v-112h243v-112h-369v128h-145zM301 250h73v140z" />
    <glyph glyph-name="Ccedilla.sc" horiz-adv-x="601" 
d="M286 -97c3 -13 17 -19 28 -14c13 5 14 20 11 31l-27 73c-147 16 -253 139 -253 288c0 162 123 292 285 292c102 0 186 -50 238 -124l-103 -70c-31 46 -79 75 -135 75c-91 0 -158 -77 -158 -173c0 -93 67 -170 158 -170c57 0 108 31 138 79l102 -72
c-45 -69 -118 -116 -208 -125c7 -14 17 -30 24 -43c7 -14 8 -30 8 -41c0 -48 -40 -87 -90 -87c-46 0 -89 37 -87 107l67 -3s0 -15 2 -23z" />
    <glyph glyph-name="Egrave.sc" horiz-adv-x="499" 
d="M78 566h361v-112h-236v-120h207v-110h-207v-112h243v-112h-368v566zM244 619l-126 142h121l94 -142h-89z" />
    <glyph glyph-name="Eacute.sc" horiz-adv-x="499" 
d="M397 761l-126 -142h-89l94 142h121zM439 566h-361v-566h368v112h-243v112h207v110h-207v120h236v112z" />
    <glyph glyph-name="Ecircumflex.sc" horiz-adv-x="499" 
d="M78 566h361v-112h-236v-120h207v-110h-207v-112h243v-112h-368v566zM309 622l-63 70l-64 -70h-87l91 143h118l93 -143h-88z" />
    <glyph glyph-name="Edieresis.sc" horiz-adv-x="499" 
d="M112 703c0 33 28 58 63 58c33 0 60 -25 60 -58c0 -35 -27 -59 -60 -59c-35 0 -63 24 -63 59zM256 703c0 33 28 58 63 58c33 0 60 -25 60 -58c0 -35 -27 -59 -60 -59c-35 0 -63 24 -63 59zM439 566h-361v-566h368v112h-243v112h207v110h-207v120h236v112z" />
    <glyph glyph-name="Igrave.sc" horiz-adv-x="281" 
d="M116 619l-125 142h120l94 -142h-89zM203 566v-566h-125v566h125z" />
    <glyph glyph-name="Iacute.sc" horiz-adv-x="281" 
d="M169 766h125l-130 -132h-92zM203 566v-566h-125v566h125z" />
    <glyph glyph-name="Icircumflex.sc" horiz-adv-x="281" 
d="M204 622l-63 70l-62 -70h-89l93 143h116l94 -143h-89zM203 566v-566h-125v566h125z" />
    <glyph glyph-name="Idieresis.sc" horiz-adv-x="281" 
d="M203 566v-566h-125v566h125zM5 703c0 33 28 58 63 58c33 0 60 -25 60 -58c0 -35 -27 -59 -60 -59c-35 0 -63 24 -63 59zM149 703c0 33 28 58 63 58c33 0 60 -25 60 -58c0 -35 -27 -59 -60 -59c-35 0 -63 24 -63 59z" />
    <glyph glyph-name="Eth.sc" horiz-adv-x="613" 
d="M310 0h-223v234h-76v79h76v253h223c163 0 256 -123 256 -285c0 -160 -93 -281 -256 -281zM213 313h99v-79h-99v-119h97c87 0 130 78 130 166c0 91 -43 170 -130 170h-97v-138z" />
    <glyph glyph-name="Ntilde.sc" horiz-adv-x="582" 
d="M504 0h-111l-190 329v-329h-125v566h114l186 -324v324h126v-566zM255 673c-5 0 -17 -9 -17 -34h-68c4 83 50 111 85 111c30 0 45 -33 71 -33c4 0 17 7 18 33h67c-3 -85 -51 -110 -85 -110c-28 0 -45 33 -71 33z" />
    <glyph glyph-name="Ograve.sc" horiz-adv-x="662" 
d="M306 619l-126 142h120l94 -142h-88zM44 279c0 162 126 292 286 292c162 0 288 -130 288 -292c0 -159 -126 -289 -288 -289c-160 0 -286 130 -286 289zM169 279c0 -90 71 -164 161 -164c91 0 163 74 163 164c0 92 -72 167 -163 167c-90 0 -161 -75 -161 -167z" />
    <glyph glyph-name="Oacute.sc" horiz-adv-x="662" 
d="M486 761l-126 -142h-88l93 142h121zM44 279c0 -159 126 -289 286 -289c162 0 288 130 288 289c0 162 -126 292 -288 292c-160 0 -286 -130 -286 -292zM169 279c0 92 71 167 161 167c91 0 163 -75 163 -167c0 -90 -72 -164 -163 -164c-90 0 -161 74 -161 164z" />
    <glyph glyph-name="Ocircumflex.sc" horiz-adv-x="662" 
d="M394 622l-64 71l-62 -71h-88l92 143h117l93 -143h-88zM44 279c0 162 126 292 286 292c162 0 288 -130 288 -292c0 -159 -126 -289 -288 -289c-160 0 -286 130 -286 289zM169 279c0 -90 71 -164 161 -164c91 0 163 74 163 164c0 92 -72 167 -163 167
c-90 0 -161 -75 -161 -167z" />
    <glyph glyph-name="Otilde.sc" horiz-adv-x="662" 
d="M44 279c0 162 126 292 286 292c162 0 288 -130 288 -292c0 -159 -126 -289 -288 -289c-160 0 -286 130 -286 289zM169 279c0 -90 71 -164 161 -164c91 0 163 74 163 164c0 92 -72 167 -163 167c-90 0 -161 -75 -161 -167zM295 673c-5 0 -17 -9 -17 -34h-68
c4 83 50 111 85 111c30 0 45 -33 71 -33c4 0 17 7 18 33h67c-3 -85 -51 -110 -85 -110c-28 0 -45 33 -71 33z" />
    <glyph glyph-name="Odieresis.sc" horiz-adv-x="662" 
d="M197 703c0 33 28 58 63 58c33 0 60 -25 60 -58c0 -35 -27 -59 -60 -59c-35 0 -63 24 -63 59zM341 703c0 33 28 58 63 58c34 0 60 -25 60 -58c0 -35 -26 -59 -60 -59c-35 0 -63 24 -63 59zM44 279c0 -159 126 -289 286 -289c162 0 288 130 288 289
c0 162 -126 292 -288 292c-160 0 -286 -130 -286 -292zM169 279c0 92 71 167 161 167c91 0 163 -75 163 -167c0 -90 -72 -164 -163 -164c-90 0 -161 74 -161 164z" />
    <glyph glyph-name="Oslash.sc" horiz-adv-x="661" 
d="M152 51l-66 -67l-42 42l65 67c-41 51 -66 115 -66 186c0 162 126 292 286 292c69 0 132 -24 182 -66l64 67l42 -42l-65 -66c41 -51 65 -116 65 -185c0 -159 -126 -289 -288 -289c-67 0 -128 24 -177 61zM168 279c0 -35 11 -70 29 -96l226 233c-26 18 -59 30 -94 30
c-90 0 -161 -75 -161 -167zM329 115c91 0 163 74 163 164c0 36 -11 69 -29 94l-224 -232c25 -17 55 -26 90 -26z" />
    <glyph glyph-name="Ugrave.sc" horiz-adv-x="584" 
d="M274 619l-125 142h121l92 -142h-88zM293 109c48 0 93 37 93 92v365h126v-365c0 -129 -102 -211 -219 -211s-221 82 -221 211v365h128v-365c0 -55 45 -92 93 -92z" />
    <glyph glyph-name="Uacute.sc" horiz-adv-x="584" 
d="M435 761l-125 -142h-89l94 142h120zM293 109c48 0 93 37 93 92v365h126v-365c0 -129 -102 -211 -219 -211s-221 82 -221 211v365h128v-365c0 -55 45 -92 93 -92z" />
    <glyph glyph-name="Ucircumflex.sc" horiz-adv-x="584" 
d="M355 622l-64 71l-62 -71h-89l93 143h117l93 -143h-88zM293 109c48 0 93 37 93 92v365h126v-365c0 -129 -102 -211 -219 -211s-221 82 -221 211v365h128v-365c0 -55 45 -92 93 -92z" />
    <glyph glyph-name="Udieresis.sc" horiz-adv-x="584" 
d="M158 703c0 33 29 58 63 58s60 -25 60 -58c0 -35 -26 -59 -60 -59s-63 24 -63 59zM302 703c0 33 29 58 63 58s61 -25 61 -58c0 -35 -27 -59 -61 -59s-63 24 -63 59zM293 109c48 0 93 37 93 92v365h126v-365c0 -129 -102 -211 -219 -211s-221 82 -221 211v365h128v-365
c0 -55 45 -92 93 -92z" />
    <glyph glyph-name="Yacute.sc" horiz-adv-x="575" 
d="M351 0h-128v256l-219 310h150l133 -206l133 206h152l-221 -311v-255zM434 761l-126 -142h-88l93 142h121z" />
    <glyph glyph-name="Thorn.sc" horiz-adv-x="492" 
d="M278 103h-75v-103h-125v566h125v-91h75c104 0 185 -71 185 -185c0 -113 -81 -187 -185 -187zM203 209h70c32 0 66 29 66 77c0 52 -33 82 -65 82h-71v-159z" />
    <glyph glyph-name="Amacron.sc" 
d="M168 734h232v-75h-232v75zM379 132h-189l-50 -132h-133l210 566h134l210 -566h-133zM338 242l-55 182l-52 -182h107z" />
    <glyph glyph-name="Abreve.sc" 
d="M171 746h75c0 -27 11 -42 37 -42c27 0 36 20 36 42h77c0 -68 -47 -111 -113 -111c-77 0 -112 55 -112 111zM379 132h-189l-50 -132h-133l210 566h134l210 -566h-133zM338 242l-55 182l-52 -182h107z" />
    <glyph glyph-name="Cacute.sc" horiz-adv-x="599" 
d="M492 761l-126 -142h-89l94 142h121zM569 117l-102 71c-30 -48 -81 -79 -138 -79c-91 0 -158 77 -158 170c0 96 67 173 158 173c56 0 104 -29 135 -75l103 70c-52 74 -136 124 -238 124c-162 0 -285 -130 -285 -292c0 -159 123 -289 285 -289c102 0 190 49 240 127z" />
    <glyph glyph-name="Ccircumflex.sc" horiz-adv-x="599" 
d="M389 622l-63 70l-63 -70h-88l92 143h117l93 -143h-88zM467 188l102 -71c-50 -78 -138 -127 -240 -127c-162 0 -285 130 -285 289c0 162 123 292 285 292c102 0 186 -50 238 -124l-103 -70c-31 46 -79 75 -135 75c-91 0 -158 -77 -158 -173c0 -93 67 -170 158 -170
c57 0 108 31 138 79z" />
    <glyph glyph-name="Cdotaccent.sc" horiz-adv-x="599" 
d="M260 708c0 36 28 63 66 63c36 0 66 -27 66 -63c0 -38 -30 -64 -66 -64c-38 0 -66 26 -66 64zM569 117l-102 71c-30 -48 -81 -79 -138 -79c-91 0 -158 77 -158 170c0 96 67 173 158 173c56 0 104 -29 135 -75l103 70c-52 74 -136 124 -238 124c-162 0 -285 -130 -285 -292
c0 -159 123 -289 285 -289c102 0 190 49 240 127z" />
    <glyph glyph-name="Ccaron.sc" horiz-adv-x="599" 
d="M257 760l62 -70l63 70h89l-94 -142h-116l-93 142h89zM467 188l102 -71c-50 -78 -138 -127 -240 -127c-162 0 -285 130 -285 289c0 162 123 292 285 292c102 0 186 -50 238 -124l-103 -70c-31 46 -79 75 -135 75c-91 0 -158 -77 -158 -173c0 -93 67 -170 158 -170
c57 0 108 31 138 79z" />
    <glyph glyph-name="Dcaron.sc" horiz-adv-x="608" 
d="M303 0h-225v570h225c164 0 258 -124 258 -287c0 -161 -94 -283 -258 -283zM208 451v-332h95c85 0 129 77 129 164c0 90 -44 168 -129 168h-95zM231 760l63 -70c21 23 44 48 64 70h89l-94 -142h-118l-92 142h88z" />
    <glyph glyph-name="Aogonek.sc" 
d="M484 0l-25 -80c-3 -11 -2 -26 11 -31c11 -5 25 1 28 14c2 8 2 23 2 23l67 3c2 -70 -41 -107 -87 -107c-50 0 -90 39 -90 87c0 11 1 27 8 41c7 13 22 39 29 53l-48 129h-189c-8 -21 -16 -43 -50 -132h-133l210 566h134l210 -566h-77zM284 423l-53 -181h108z" />
    <glyph glyph-name="Emacron.sc" horiz-adv-x="499" 
d="M78 566h361v-112h-236v-120h207v-110h-207v-112h243v-112h-368v566zM129 734h232v-75h-232v75z" />
    <glyph glyph-name="Ebreve.sc" horiz-adv-x="499" 
d="M133 746h75c0 -27 11 -42 38 -42c26 0 35 20 35 42h77c0 -68 -46 -111 -112 -111c-77 0 -113 55 -113 111zM439 566h-361v-566h368v112h-243v112h207v110h-207v120h236v112z" />
    <glyph glyph-name="Edotaccent.sc" horiz-adv-x="499" 
d="M187 708c0 36 29 63 67 63c36 0 65 -27 65 -63c0 -38 -29 -64 -65 -64c-38 0 -67 26 -67 64zM439 566h-361v-566h368v112h-243v112h207v110h-207v120h236v112z" />
    <glyph glyph-name="Ecaron.sc" horiz-adv-x="499" 
d="M182 760l64 -70l63 70h88l-93 -142h-118l-91 142h87zM78 566h361v-112h-236v-120h207v-110h-207v-112h243v-112h-368v566z" />
    <glyph glyph-name="Gcircumflex.sc" horiz-adv-x="641" 
d="M386 622l-63 70l-62 -70h-89l93 143h116l94 -143h-89zM458 397c-33 34 -77 56 -124 56c-92 0 -164 -78 -164 -174c0 -93 72 -173 164 -173c57 0 129 33 131 89h-150v103h295c0 -213 -113 -308 -276 -308s-290 130 -290 289c0 162 127 292 290 292c87 0 165 -37 215 -95z
" />
    <glyph glyph-name="Gbreve.sc" horiz-adv-x="641" 
d="M458 397c-33 34 -77 56 -124 56c-92 0 -164 -78 -164 -174c0 -93 72 -173 164 -173c57 0 129 33 131 89h-150v103h295c0 -213 -113 -308 -276 -308s-290 130 -290 289c0 162 127 292 290 292c87 0 165 -37 215 -95zM211 746h75c0 -27 11 -42 37 -42c27 0 36 20 36 42h77
c0 -68 -47 -111 -113 -111c-77 0 -112 55 -112 111z" />
    <glyph glyph-name="Eogonek.sc" horiz-adv-x="499" 
d="M383 0h-305v566h361v-112h-236v-120h207v-110h-207v-112h243v-110l-32 -82c-3 -11 -2 -26 11 -31c11 -5 25 1 28 14c2 8 2 23 2 23l67 3c2 -70 -41 -107 -87 -107c-50 0 -90 39 -90 87c0 11 1 27 8 41z" />
    <glyph glyph-name="Dcroat.sc" horiz-adv-x="613" 
d="M310 0h-223v234h-76v79h76v253h223c163 0 256 -123 256 -285c0 -160 -93 -281 -256 -281zM213 313h99v-79h-99v-119h97c87 0 130 78 130 166c0 91 -43 170 -130 170h-97v-138z" />
    <glyph glyph-name="Gdotaccent.sc" horiz-adv-x="641" 
d="M458 397h-4c-29 34 -73 56 -120 56c-92 0 -164 -78 -164 -174c0 -93 72 -173 164 -173c57 0 129 33 131 89h-150v103h295c0 -213 -113 -308 -276 -308s-290 130 -290 289c0 162 127 292 290 292c87 0 165 -37 215 -95zM266 708c0 36 28 63 66 63c36 0 66 -27 66 -63
c0 -38 -30 -64 -66 -64c-38 0 -66 26 -66 64z" />
    <glyph glyph-name="Hcircumflex.sc" horiz-adv-x="600" 
d="M522 566v-566h-127v225h-192v-225h-125v566h125v-228h192v228h127zM363 622l-63 70l-63 -70h-88l92 143h117l93 -143h-88z" />
    <glyph glyph-name="Hbar.sc" horiz-adv-x="611" 
d="M528 486h59v-65h-59v-421h-127v225h-192v-225h-126v421h-58v65h58v80h126v-80h192v80h127v-80zM209 338h192v83h-192v-83z" />
    <glyph glyph-name="Itilde.sc" horiz-adv-x="269" 
d="M191 -8h-113v582h113v-582zM99 673c-5 0 -17 -9 -17 -34h-68c4 83 50 111 85 111c30 0 45 -33 71 -33c4 0 17 7 18 33h67c-3 -85 -51 -110 -85 -110c-28 0 -45 33 -71 33z" />
    <glyph glyph-name="Imacron.sc" horiz-adv-x="281" 
d="M25 734h232v-75h-232v75zM203 566v-566h-125v566h125z" />
    <glyph glyph-name="Iogonek.sc" horiz-adv-x="281" 
d="M78 4v562h125v-566h-63l-30 -80c-3 -11 -2 -26 11 -31c11 -5 25 1 28 14c2 8 2 23 2 23l67 3c2 -70 -41 -107 -87 -107c-50 0 -90 39 -90 87c0 11 1 27 8 41z" />
    <glyph glyph-name="IJ.sc" horiz-adv-x="563" 
d="M203 566v-566h-125v566h125zM212 -177l11 114c27 -9 70 -10 75 -10c44 0 61 34 61 74v565h126v-565c0 -105 -50 -193 -187 -193c-14 0 -53 6 -86 15z" />
    <glyph glyph-name="Jcircumflex.sc" horiz-adv-x="270" 
d="M198 622l-63 70l-63 -70h-88l92 143h117l94 -143h-89zM-68 -173l11 101c24 -7 64 -7 69 -7c47 0 66 36 66 80v559h114v-559c0 -101 -48 -187 -180 -187c-14 0 -51 6 -80 13z" />
    <glyph glyph-name="Lacute.sc" horiz-adv-x="428" 
d="M291 761l-126 -142h-88l92 142h122zM204 566h-126v-566h335v112h-209v454z" />
    <glyph glyph-name="Lcaron.sc" horiz-adv-x="442" 
d="M326 347l-75 24c26 37 48 82 58 132c4 19 6 41 6 64h100c-8 -109 -51 -188 -89 -220zM204 566h-126v-566h335v112h-209v454z" />
    <glyph glyph-name="Ldot.sc" horiz-adv-x="429" 
d="M78 566h126v-454h209v-112h-335v566zM261 254c0 32 27 57 61 57c33 0 60 -25 60 -57c0 -35 -27 -59 -60 -59c-34 0 -61 24 -61 59z" />
    <glyph glyph-name="Nacute.sc" horiz-adv-x="582" 
d="M450 761l-126 -142h-88l94 142h120zM393 0h111v566h-126v-324l-186 324h-114v-566h125v329z" />
    <glyph glyph-name="Ncaron.sc" horiz-adv-x="582" 
d="M504 0h-111l-190 329v-329h-125v566h114l186 -324v324h126v-566zM221 760l64 -70l63 70h88l-93 -142h-118l-91 142h87z" />
    <glyph glyph-name="Omacron.sc" horiz-adv-x="662" 
d="M214 734h232v-75h-232v75zM44 279c0 162 126 292 286 292c162 0 288 -130 288 -292c0 -159 -126 -289 -288 -289c-160 0 -286 130 -286 289zM169 279c0 -90 71 -164 161 -164c91 0 163 74 163 164c0 92 -72 167 -163 167c-90 0 -161 -75 -161 -167z" />
    <glyph glyph-name="Obreve.sc" horiz-adv-x="662" 
d="M218 746h75c0 -27 11 -42 37 -42c27 0 36 20 36 42h77c0 -68 -46 -111 -113 -111c-76 0 -112 55 -112 111zM44 279c0 -159 126 -289 286 -289c162 0 288 130 288 289c0 162 -126 292 -288 292c-160 0 -286 -130 -286 -292zM169 279c0 92 71 167 161 167
c91 0 163 -75 163 -167c0 -90 -72 -164 -163 -164c-90 0 -161 74 -161 164z" />
    <glyph glyph-name="Ohungarumlaut.sc" horiz-adv-x="662" 
d="M450 760h100l-112 -142h-93zM319 760h99l-104 -142h-89zM44 279c0 162 126 292 286 292c162 0 288 -130 288 -292c0 -159 -126 -289 -288 -289c-160 0 -286 130 -286 289zM169 279c0 -90 71 -164 161 -164c91 0 163 74 163 164c0 92 -72 167 -163 167
c-90 0 -161 -75 -161 -167z" />
    <glyph glyph-name="Racute.sc" horiz-adv-x="550" 
d="M412 761l-126 -142h-89l94 142h121zM503 0l-141 199c93 23 139 101 139 180c0 93 -62 187 -190 187h-233v-566h126v194h21l125 -194h153zM204 454h101c43 0 64 -41 64 -75c0 -35 -23 -75 -68 -75h-97v150z" />
    <glyph glyph-name="Rcaron.sc" horiz-adv-x="550" 
d="M208 760l62 -70l64 70h89l-93 -142h-118l-93 142h89zM362 199l141 -199h-153l-125 194h-21v-194h-126v566h233c128 0 190 -94 190 -187c0 -79 -46 -157 -139 -180zM305 454h-101v-150h97c45 0 68 40 68 75c0 34 -21 75 -64 75z" />
    <glyph glyph-name="Sacute.sc" horiz-adv-x="500" 
d="M406 761l-125 -142h-89l94 142h120zM172 169h-126c0 -104 82 -179 206 -179c100 0 206 53 206 168c0 56 -27 136 -156 172l-67 20c-53 16 -58 41 -58 55c0 30 30 52 70 52c44 0 68 -26 68 -63h125c0 112 -82 178 -193 178c-109 0 -195 -68 -195 -171
c0 -51 21 -126 146 -163l68 -20c56 -15 65 -36 65 -60c-1 -35 -33 -55 -79 -55c-51 0 -78 30 -80 66z" />
    <glyph glyph-name="Scircumflex.sc" horiz-adv-x="500" 
d="M316 622l-64 70l-63 -70h-88l92 143h118l92 -143h-87zM46 169h126c2 -36 29 -66 80 -66c46 0 78 20 79 55c0 24 -9 45 -65 60l-68 20c-125 37 -146 112 -146 163c0 103 86 171 195 171c111 0 193 -66 193 -178h-125c0 37 -24 63 -68 63c-40 0 -70 -22 -70 -52
c0 -14 5 -39 58 -55l67 -20c129 -36 156 -116 156 -172c0 -115 -106 -168 -206 -168c-124 0 -206 75 -206 179z" />
    <glyph glyph-name="Scedilla.sc" horiz-adv-x="499" 
d="M289 -7c7 -14 17 -30 24 -43c7 -14 8 -30 8 -41c0 -48 -40 -87 -90 -87c-46 0 -89 37 -87 107l67 -3s0 -15 2 -23c3 -13 17 -19 28 -14c13 5 14 20 11 31l-27 72c-108 10 -178 81 -178 178h125c1 -36 29 -67 80 -67c46 0 78 20 79 55c1 24 -10 45 -65 60l-67 19
c-125 38 -146 113 -146 164c0 101 86 170 194 170c110 0 192 -66 192 -177h-124c0 36 -24 62 -69 62c-39 0 -70 -21 -70 -52c0 -14 6 -40 59 -54l66 -21c128 -40 157 -118 155 -171c-1 -102 -82 -155 -167 -165z" />
    <glyph glyph-name="Utilde.sc" horiz-adv-x="584" 
d="M293 109c48 0 93 37 93 92v365h126v-365c0 -129 -102 -211 -219 -211s-221 82 -221 211v365h128v-365c0 -55 45 -92 93 -92zM257 673c-5 0 -17 -9 -17 -34h-68c4 83 50 111 85 111c30 0 45 -33 71 -33c4 0 17 7 18 33h67c-3 -85 -51 -110 -85 -110c-28 0 -45 33 -71 33z
" />
    <glyph glyph-name="Umacron.sc" horiz-adv-x="584" 
d="M176 734h233v-75h-233v75zM293 109c48 0 93 37 93 92v365h126v-365c0 -129 -102 -211 -219 -211s-221 82 -221 211v365h128v-365c0 -55 45 -92 93 -92z" />
    <glyph glyph-name="Ubreve.sc" horiz-adv-x="584" 
d="M180 746h75c0 -27 10 -42 36 -42c27 0 37 20 37 42h77c0 -68 -48 -111 -114 -111c-76 0 -111 55 -111 111zM293 109c48 0 93 37 93 92v365h126v-365c0 -129 -102 -211 -219 -211s-221 82 -221 211v365h128v-365c0 -55 45 -92 93 -92z" />
    <glyph glyph-name="Uring.sc" horiz-adv-x="584" 
d="M191 720c0 58 44 103 100 103c58 0 103 -45 103 -103c0 -57 -45 -101 -103 -101c-56 0 -100 44 -100 101zM250 720c0 -24 19 -42 41 -42c25 0 44 18 44 42s-19 44 -44 44c-22 0 -41 -20 -41 -44zM293 109c48 0 93 37 93 92v365h126v-365c0 -129 -102 -211 -219 -211
s-221 82 -221 211v365h128v-365c0 -55 45 -92 93 -92z" />
    <glyph glyph-name="Uhungarumlaut.sc" horiz-adv-x="584" 
d="M293 109c48 0 93 37 93 92v365h126v-365c0 -129 -102 -211 -219 -211s-221 82 -221 211v365h128v-365c0 -55 45 -92 93 -92zM390 760h100l-112 -142h-93zM259 760h99l-104 -142h-89z" />
    <glyph glyph-name="Uogonek.sc" horiz-adv-x="584" 
d="M229 -50l23 46c-99 17 -180 94 -180 207v363h128v-363c0 -55 45 -92 93 -92s93 37 93 92v363h126v-363c0 -120 -88 -200 -195 -210l-27 -73c-3 -11 -2 -26 11 -31c11 -5 25 1 28 14c2 8 2 23 2 23l67 3c2 -70 -41 -107 -87 -107c-50 0 -90 39 -90 87c0 11 1 27 8 41z" />
    <glyph glyph-name="Wcircumflex.sc" horiz-adv-x="759" 
d="M443 622l-63 70l-64 -70h-87l92 143h117l94 -143h-89zM610 566h136l-193 -566h-98l-76 284l-75 -284h-99l-191 566h136l106 -343l72 264h103l71 -263z" />
    <glyph glyph-name="Ycircumflex.sc" horiz-adv-x="575" 
d="M350 622l-63 70l-63 -70h-88l92 143h117l93 -143h-88zM351 0h-128v256l-219 310h150l133 -206l133 206h152l-221 -311v-255z" />
    <glyph glyph-name="Tcaron.sc" horiz-adv-x="490" 
d="M20 452v114h450v-114h-159v-452h-132v452h-159zM182 760l64 -70l63 70h88l-93 -142h-118l-91 142h87z" />
    <glyph glyph-name="Tbar.sc" horiz-adv-x="471" 
d="M95 244v75h78v132h-151v113h427v-113h-150v-132h77v-75h-77v-244h-126v244h-78z" />
    <glyph glyph-name="Zacute.sc" horiz-adv-x="516" 
d="M47 95l254 360h-243v111h406v-94l-255 -360h255v-112h-417v95zM408 761l-127 -142h-88l94 142h121z" />
    <glyph glyph-name="Zdotaccent.sc" horiz-adv-x="516" 
d="M47 95l254 360h-243v111h406v-94l-255 -360h255v-112h-417v95zM203 708c0 36 29 63 66 63s66 -27 66 -63c0 -38 -29 -64 -66 -64s-66 26 -66 64z" />
    <glyph glyph-name="Wgrave.sc" horiz-adv-x="759" 
d="M349 619l-125 142h120l94 -142h-89zM610 566h136l-193 -566h-98l-76 284l-75 -284h-99l-191 566h136l106 -343l72 264h103l71 -263z" />
    <glyph glyph-name="Wacute.sc" horiz-adv-x="759" 
d="M535 761l-126 -142h-89l94 142h121zM746 566h-136l-108 -342l-71 263h-103l-72 -264l-106 343h-136l191 -566h99l75 284l76 -284h98z" />
    <glyph glyph-name="Wdieresis.sc" horiz-adv-x="759" 
d="M246 703c0 33 28 58 63 58c33 0 61 -25 61 -58c0 -35 -28 -59 -61 -59c-35 0 -63 24 -63 59zM390 703c0 33 28 58 63 58c33 0 61 -25 61 -58c0 -35 -28 -59 -61 -59c-35 0 -63 24 -63 59zM746 566h-136l-108 -342l-71 263h-103l-72 -264l-106 343h-136l191 -566h99
l75 284l76 -284h98z" />
    <glyph glyph-name="Aringacute.sc" 
d="M440 911l-99 -112c27 -18 46 -50 46 -87c0 -56 -46 -101 -104 -101c-33 0 -62 16 -81 43c-12 16 -19 37 -19 58c0 46 33 86 73 100l65 99h119zM243 712c0 -23 18 -42 41 -42c25 0 44 19 44 42c0 26 -19 44 -44 44c-23 0 -41 -18 -41 -44zM379 132h-189l-50 -132h-133
l210 566h134l210 -566h-133zM338 242l-55 182l-52 -182h107z" />
    <glyph glyph-name="AEacute.sc" horiz-adv-x="796" 
d="M592 761l-127 -142h-87l93 142h121zM148 0l81 128h145v-128h369v112h-243v112h206v110h-206v121h235v111h-380l-358 -566h151zM374 250h-73l73 140v-140z" />
    <glyph glyph-name="Oslashacute.sc" horiz-adv-x="661" 
d="M500 761l-127 -142h-87l93 142h121zM86 -16l66 67c49 -37 110 -61 177 -61c162 0 288 130 288 289c0 69 -24 134 -65 185l65 66l-42 42l-64 -67c-50 42 -113 66 -182 66c-160 0 -286 -130 -286 -292c0 -71 25 -135 66 -186l-65 -67zM168 279c0 92 71 167 161 167
c35 0 68 -12 94 -30l-226 -233c-18 26 -29 61 -29 96zM329 115c-35 0 -65 9 -90 26l224 232c18 -25 29 -58 29 -94c0 -90 -72 -164 -163 -164z" />
    <glyph glyph-name="Ibreve.sc" horiz-adv-x="281" 
d="M203 566v-566h-125v566h125zM25 746h75c0 -27 11 -42 37 -42c27 0 36 20 36 42h77c0 -68 -47 -111 -113 -111c-77 0 -112 55 -112 111z" />
    <glyph glyph-name="Eng.sc" horiz-adv-x="583" 
d="M379 15l-175 314v-329h-126v566h115l185 -333v333h127v-552c0 -106 -50 -197 -185 -197c-32 0 -56 7 -87 15l13 122c35 -11 71 -12 76 -12c38 2 55 38 57 73z" />
    <glyph glyph-name="Ygrave.sc" horiz-adv-x="575" 
d="M265 619l-125 142h121l93 -142h-89zM351 0h-128v256l-219 310h150l133 -206l133 206h152l-221 -311v-255z" />
    <glyph glyph-name="Gcommaaccent.sc" horiz-adv-x="641" 
d="M458 397c-33 34 -77 56 -124 56c-92 0 -164 -78 -164 -174c0 -93 72 -173 164 -173c57 0 129 33 131 89h-150v103h295c0 -213 -113 -308 -276 -308s-290 130 -290 289c0 162 127 292 290 292c87 0 165 -37 215 -95zM310 -222l-51 28c32 42 34 87 34 155h90
c0 -100 -37 -152 -73 -183z" />
    <glyph glyph-name="Kcommaaccent.sc" horiz-adv-x="528" 
d="M267 286l265 -286h-164l-163 185v-185h-127v566h127v-175l128 175h148zM260 -222l-51 28c32 42 34 87 34 155h90c0 -100 -37 -152 -73 -183z" />
    <glyph glyph-name="Lcommaaccent.sc" horiz-adv-x="428" 
d="M78 566h126v-454h209v-112h-335v566zM209 -222l-51 28c32 42 34 87 34 155h90c0 -100 -37 -152 -73 -183z" />
    <glyph glyph-name="Ncommaaccent.sc" horiz-adv-x="582" 
d="M504 0h-111l-190 324v-324h-125v566h114l186 -319v319h126v-566zM271 -222l-51 28c32 42 34 87 34 155h90c0 -100 -37 -152 -73 -183z" />
    <glyph glyph-name="Rcommaaccent.sc" horiz-adv-x="550" 
d="M362 199l141 -199h-153l-125 194h-21v-194h-126v566h233c128 0 190 -94 190 -187c0 -79 -46 -157 -139 -180zM305 454h-101v-150h97c45 0 68 40 68 75c0 34 -21 75 -64 75zM260 -222l-51 28c32 42 34 87 34 155h90c0 -100 -37 -152 -73 -183z" />
    <glyph glyph-name="Tcommaaccent.sc" horiz-adv-x="471" 
d="M21 566h429v-114h-150v-452h-128v452h-151v114zM205 -222l-51 28c32 42 34 87 34 155h90c0 -100 -37 -152 -73 -183z" />
    <glyph glyph-name="Scommaaccent.sc" horiz-adv-x="500" 
d="M46 169h126c2 -36 29 -66 80 -66c46 0 78 20 79 55c0 24 -9 45 -65 60l-68 20c-125 37 -146 112 -146 163c0 103 86 171 195 171c111 0 193 -66 193 -178h-125c0 37 -24 63 -68 63c-40 0 -70 -22 -70 -52c0 -14 5 -39 58 -55l67 -20c129 -36 156 -116 156 -172
c0 -115 -106 -168 -206 -168c-124 0 -206 75 -206 179zM226 -222l-51 28c32 42 34 87 34 155h90c0 -100 -37 -152 -73 -183z" />
    <glyph glyph-name="Idotaccent.sc" horiz-adv-x="281" 
d="M203 566v-566h-125v566h125zM66 699c0 41 33 70 73 70s73 -29 73 -70s-33 -71 -73 -71s-73 30 -73 71z" />
    <glyph glyph-name="zero.numr" horiz-adv-x="351" 
d="M34 465c0 110 31 197 142 197s141 -87 141 -197c0 -108 -30 -196 -141 -196s-142 88 -142 196zM114 465c0 -64 15 -118 62 -118s61 54 61 118c0 65 -14 119 -61 119s-62 -54 -62 -119z" />
    <glyph glyph-name="one.numr" horiz-adv-x="216" 
d="M86 548l-65 -27v70l145 69v-385h-80v273z" />
    <glyph glyph-name="two.numr" horiz-adv-x="318" 
d="M30 318l156 185c12 14 20 29 20 44c0 21 -17 38 -48 38c-29 0 -50 -22 -54 -53l-74 13c12 72 61 117 133 117c67 0 124 -47 124 -115c0 -37 -17 -70 -40 -96c-42 -47 -44 -49 -88 -100h118v-76h-247v43z" />
    <glyph glyph-name="three.numr" horiz-adv-x="317" 
d="M104 566c0 1 -64 40 -64 40c22 36 67 59 118 56c66 -4 114 -52 112 -106c0 -32 -20 -59 -49 -75c42 -15 69 -62 65 -103c-6 -65 -73 -113 -149 -108c-53 4 -100 36 -121 80c1 0 70 35 70 35c11 -20 33 -34 57 -37c29 -2 52 20 55 40c0 3 2 17 -3 29c-6 13 -20 24 -49 23
h-40v69h40c40 0 38 39 38 42c0 14 -12 37 -39 37c-20 0 -33 -10 -41 -22z" />
    <glyph glyph-name="four.numr" horiz-adv-x="345" 
d="M272 360v-85h-81v85h-182l179 295h84v-227h48v-68h-48zM119 428h72v119z" />
    <glyph glyph-name="five.numr" horiz-adv-x="341" 
d="M92 389c15 -23 42 -40 66 -40c45 0 76 28 76 60c0 42 -31 62 -70 62c-23 0 -62 -8 -84 -41l-44 23l31 202h222v-74h-158l-11 -63c16 14 45 20 70 20c69 0 124 -45 124 -129c0 -81 -60 -140 -156 -140c-53 0 -105 32 -134 77c1 0 67 43 68 43z" />
    <glyph glyph-name="six.numr" horiz-adv-x="339" 
d="M125 396c0 -28 22 -50 50 -50s51 22 51 50s-23 51 -51 51s-50 -23 -50 -51zM305 589l-75 -32c-10 22 -27 30 -44 30c-56 0 -72 -58 -70 -110c5 14 34 43 76 43c55 0 117 -41 117 -128c0 -73 -56 -123 -138 -123c-72 0 -128 51 -135 132c-4 44 -4 93 6 136
c16 72 58 128 147 125c45 -2 89 -15 116 -73z" />
    <glyph glyph-name="seven.numr" horiz-adv-x="314" 
d="M309 655l-169 -380h-91l135 306h-161v74h286z" />
    <glyph glyph-name="eight.numr" horiz-adv-x="346" 
d="M134 554c0 -19 13 -37 39 -37s39 18 39 37s-14 36 -39 36s-39 -17 -39 -36zM109 402c0 -32 30 -58 64 -58s64 26 64 58c0 29 -27 56 -58 56h-13c-32 0 -57 -27 -57 -56zM56 556c0 59 53 106 117 106s117 -47 117 -106c0 -26 -10 -48 -28 -63c33 -20 55 -52 55 -93
c0 -72 -65 -131 -144 -131s-144 59 -144 131c0 42 22 73 55 93c-17 16 -28 37 -28 63z" />
    <glyph glyph-name="nine.numr" horiz-adv-x="339" 
d="M214 535c0 28 -22 51 -50 51s-51 -23 -51 -51s23 -50 51 -50s50 22 50 50zM34 343l75 32c10 -22 27 -31 44 -31c56 0 72 59 70 111c-5 -14 -33 -43 -76 -43c-55 0 -117 41 -117 128c0 73 56 122 138 122c72 0 129 -51 136 -132c9 -117 -12 -266 -154 -261
c-45 2 -89 16 -116 74z" />
    <glyph glyph-name="zerosuperior" unicode="&#x2070;" horiz-adv-x="351" 
d="M34 624c0 110 31 197 142 197s141 -87 141 -197c0 -108 -30 -196 -141 -196s-142 88 -142 196zM114 624c0 -64 15 -118 62 -118s61 54 61 118c0 65 -14 119 -61 119s-62 -54 -62 -119z" />
    <glyph glyph-name="foursuperior" unicode="&#x2074;" horiz-adv-x="342" 
d="M269 519v-85h-81v85h-182l179 295h84v-227h48v-68h-48zM116 587h72v119z" />
    <glyph glyph-name="fivesuperior" unicode="&#x2075;" horiz-adv-x="342" 
d="M92 548c15 -23 42 -40 66 -40c45 0 76 28 76 60c0 42 -31 62 -70 62c-23 0 -62 -8 -84 -41l-44 23l31 202h222v-74h-158l-11 -63c16 14 45 20 70 20c69 0 124 -45 124 -129c0 -81 -60 -140 -156 -140c-53 0 -105 32 -134 77c1 0 67 43 68 43z" />
    <glyph glyph-name="sixsuperior" unicode="&#x2076;" horiz-adv-x="339" 
d="M125 555c0 -28 22 -50 50 -50s51 22 51 50s-23 51 -51 51s-50 -23 -50 -51zM305 748l-75 -32c-10 22 -27 30 -44 30c-56 0 -72 -58 -70 -110c5 14 34 43 76 43c55 0 117 -41 117 -128c0 -73 -56 -123 -138 -123c-72 0 -128 51 -135 132c-4 44 -4 93 6 136
c16 72 58 128 147 125c45 -2 89 -15 116 -73z" />
    <glyph glyph-name="sevensuperior" unicode="&#x2077;" horiz-adv-x="324" 
d="M313 814l-169 -380h-91l135 306h-161v74h286z" />
    <glyph glyph-name="eightsuperior" unicode="&#x2078;" horiz-adv-x="346" 
d="M134 713c0 -19 13 -37 39 -37s39 18 39 37s-14 36 -39 36s-39 -17 -39 -36zM109 561c0 -32 30 -58 64 -58s64 26 64 58c0 29 -27 56 -58 56h-13c-32 0 -57 -27 -57 -56zM56 715c0 59 53 106 117 106s117 -47 117 -106c0 -26 -10 -48 -28 -63c33 -20 55 -52 55 -93
c0 -72 -65 -131 -144 -131s-144 59 -144 131c0 42 22 73 55 93c-17 16 -28 37 -28 63z" />
    <glyph glyph-name="ninesuperior" unicode="&#x2079;" horiz-adv-x="339" 
d="M214 694c0 28 -22 51 -50 51s-51 -23 -51 -51s23 -50 51 -50s50 22 50 50zM34 502l75 32c10 -22 27 -31 44 -31c56 0 72 59 70 111c-5 -14 -33 -43 -76 -43c-55 0 -117 41 -117 128c0 73 56 122 138 122c72 0 129 -51 136 -132c9 -117 -12 -266 -154 -261
c-45 2 -89 16 -116 74z" />
    <glyph glyph-name="zeroinferior" unicode="&#x2080;" horiz-adv-x="350" 
d="M34 40c0 110 31 197 142 197s141 -87 141 -197c0 -108 -30 -196 -141 -196s-142 88 -142 196zM114 40c0 -64 15 -118 62 -118s61 54 61 118c0 65 -14 119 -61 119s-62 -54 -62 -119z" />
    <glyph glyph-name="oneinferior" unicode="&#x2081;" horiz-adv-x="215" 
d="M86 123l-65 -27v70l145 69v-385h-80v273z" />
    <glyph glyph-name="twoinferior" unicode="&#x2082;" horiz-adv-x="320" 
d="M31 -107l156 185c12 14 20 29 20 44c0 21 -17 38 -48 38c-29 0 -50 -22 -54 -53l-74 13c12 72 61 117 133 117c67 0 124 -47 124 -115c0 -37 -17 -70 -40 -96c-42 -47 -44 -49 -88 -100h118v-76h-247v43z" />
    <glyph glyph-name="threeinferior" unicode="&#x2083;" horiz-adv-x="317" 
d="M104 141c0 1 -64 40 -64 40c22 36 67 59 118 56c66 -4 114 -52 112 -106c0 -32 -20 -59 -49 -75c42 -15 69 -62 65 -103c-6 -65 -73 -113 -149 -108c-53 4 -100 36 -121 80c1 0 70 35 70 35c11 -20 33 -34 57 -37c29 -2 52 20 55 40c0 3 2 17 -3 29c-6 13 -20 24 -49 23
h-40v69h40c40 0 38 39 38 42c0 14 -12 37 -39 37c-20 0 -33 -10 -41 -22z" />
    <glyph glyph-name="fourinferior" unicode="&#x2084;" horiz-adv-x="344" 
d="M271 -65v-85h-81v85h-182l179 295h84v-227h48v-68h-48zM118 3h72v119z" />
    <glyph glyph-name="fiveinferior" unicode="&#x2085;" horiz-adv-x="339" 
d="M91 -36c15 -23 42 -40 66 -40c45 0 76 28 76 60c0 42 -31 62 -70 62c-23 0 -62 -8 -84 -41l-44 23l31 202h222v-74h-158l-11 -63c16 14 45 20 70 20c69 0 124 -45 124 -129c0 -81 -60 -140 -156 -140c-53 0 -105 32 -134 77c1 0 67 43 68 43z" />
    <glyph glyph-name="sixinferior" unicode="&#x2086;" horiz-adv-x="339" 
d="M125 -29c0 -28 22 -50 50 -50s51 22 51 50s-23 51 -51 51s-50 -23 -50 -51zM305 164l-75 -32c-10 22 -27 30 -44 30c-56 0 -72 -58 -70 -110c5 14 34 43 76 43c55 0 117 -41 117 -128c0 -73 -56 -123 -138 -123c-72 0 -128 51 -135 132c-4 44 -4 93 6 136
c16 72 58 128 147 125c45 -2 89 -15 116 -73z" />
    <glyph glyph-name="seveninferior" unicode="&#x2087;" horiz-adv-x="311" 
d="M309 230l-169 -380h-91l135 306h-161v74h286z" />
    <glyph glyph-name="eightinferior" unicode="&#x2088;" horiz-adv-x="346" 
d="M134 129c0 -19 13 -37 39 -37s39 18 39 37s-14 36 -39 36s-39 -17 -39 -36zM109 -23c0 -32 30 -58 64 -58s64 26 64 58c0 29 -27 56 -58 56h-13c-32 0 -57 -27 -57 -56zM56 131c0 59 53 106 117 106s117 -47 117 -106c0 -26 -10 -48 -28 -63c33 -20 55 -52 55 -93
c0 -72 -65 -131 -144 -131s-144 59 -144 131c0 42 22 73 55 93c-17 16 -28 37 -28 63z" />
    <glyph glyph-name="nineinferior" unicode="&#x2089;" horiz-adv-x="339" 
d="M214 110c0 28 -22 51 -50 51s-51 -23 -51 -51s23 -50 51 -50s50 22 50 50zM34 -82l75 32c10 -22 27 -31 44 -31c56 0 72 59 70 111c-5 -14 -33 -43 -76 -43c-55 0 -117 41 -117 128c0 73 56 122 138 122c72 0 129 -51 136 -132c9 -117 -12 -266 -154 -261
c-45 2 -89 16 -116 74z" />
    <glyph glyph-name="zero.dnom" horiz-adv-x="351" 
d="M34 190c0 110 31 197 142 197s141 -87 141 -197c0 -108 -30 -196 -141 -196s-142 88 -142 196zM114 190c0 -64 15 -118 62 -118s61 54 61 118c0 65 -14 119 -61 119s-62 -54 -62 -119z" />
    <glyph glyph-name="one.dnom" horiz-adv-x="216" 
d="M86 273l-65 -27v70l145 69v-385h-80v273z" />
    <glyph glyph-name="two.dnom" horiz-adv-x="318" 
d="M30 43l156 185c12 14 20 29 20 44c0 21 -17 38 -48 38c-29 0 -50 -22 -54 -53l-74 13c12 72 61 117 133 117c67 0 124 -47 124 -115c0 -37 -17 -70 -40 -96c-42 -47 -44 -49 -88 -100h118v-76h-247v43z" />
    <glyph glyph-name="three.dnom" horiz-adv-x="318" 
d="M105 291c0 1 -64 40 -64 40c22 36 67 59 118 56c66 -4 114 -52 112 -106c0 -32 -20 -59 -49 -75c42 -15 69 -62 65 -103c-6 -65 -73 -113 -149 -108c-53 4 -100 36 -121 80c1 0 70 35 70 35c11 -20 33 -34 57 -37c29 -2 52 20 55 40c0 3 2 17 -3 29c-6 13 -20 24 -49 23
h-40v69h40c40 0 38 39 38 42c0 14 -12 37 -39 37c-20 0 -33 -10 -41 -22z" />
    <glyph glyph-name="four.dnom" horiz-adv-x="344" 
d="M272 85v-85h-81v85h-182l179 295h84v-227h48v-68h-48zM119 153h72v119z" />
    <glyph glyph-name="five.dnom" horiz-adv-x="340" 
d="M91 114c15 -23 42 -40 66 -40c45 0 76 28 76 60c0 42 -31 62 -70 62c-23 0 -62 -8 -84 -41l-44 23l31 202h222v-74h-158l-11 -63c16 14 45 20 70 20c69 0 124 -45 124 -129c0 -81 -60 -140 -156 -140c-53 0 -105 32 -134 77c1 0 67 43 68 43z" />
    <glyph glyph-name="six.dnom" horiz-adv-x="339" 
d="M125 121c0 -28 22 -50 50 -50s51 22 51 50s-23 51 -51 51s-50 -23 -50 -51zM305 314l-75 -32c-10 22 -27 30 -44 30c-56 0 -72 -58 -70 -110c5 14 34 43 76 43c55 0 117 -41 117 -128c0 -73 -56 -123 -138 -123c-72 0 -128 51 -135 132c-4 44 -4 93 6 136
c16 72 58 128 147 125c45 -2 89 -15 116 -73z" />
    <glyph glyph-name="seven.dnom" horiz-adv-x="315" 
d="M309 380l-169 -380h-91l135 306h-161v74h286z" />
    <glyph glyph-name="eight.dnom" horiz-adv-x="346" 
d="M134 279c0 -19 13 -37 39 -37s39 18 39 37s-14 36 -39 36s-39 -17 -39 -36zM109 127c0 -32 30 -58 64 -58s64 26 64 58c0 29 -27 56 -58 56h-13c-32 0 -57 -27 -57 -56zM56 281c0 59 53 106 117 106s117 -47 117 -106c0 -26 -10 -48 -28 -63c33 -20 55 -52 55 -93
c0 -72 -65 -131 -144 -131s-144 59 -144 131c0 42 22 73 55 93c-17 16 -28 37 -28 63z" />
    <glyph glyph-name="nine.dnom" horiz-adv-x="340" 
d="M214 260c0 28 -22 51 -50 51s-51 -23 -51 -51s23 -50 51 -50s50 22 50 50zM34 68l75 32c10 -22 27 -31 44 -31c56 0 72 59 70 111c-5 -14 -33 -43 -76 -43c-55 0 -117 41 -117 128c0 73 56 122 138 122c72 0 129 -51 136 -132c9 -117 -12 -266 -154 -261
c-45 2 -89 16 -116 74z" />
    <glyph glyph-name="twosuperior" unicode="&#xb2;" horiz-adv-x="317" 
d="M29 477l156 185c12 14 20 29 20 44c0 21 -17 38 -48 38c-29 0 -50 -22 -54 -53l-74 13c12 72 61 117 133 117c67 0 124 -47 124 -115c0 -37 -17 -70 -40 -96c-42 -47 -44 -49 -88 -100h118v-76h-247v43z" />
    <glyph glyph-name="threesuperior" unicode="&#xb3;" horiz-adv-x="317" 
d="M104 725c0 1 -64 40 -64 40c22 36 67 59 118 56c66 -4 114 -52 112 -106c0 -32 -20 -59 -49 -75c42 -15 69 -62 65 -103c-6 -65 -73 -113 -149 -108c-53 4 -100 36 -121 80c1 0 70 35 70 35c11 -20 33 -34 57 -37c29 -2 52 20 55 40c0 3 2 17 -3 29c-6 13 -20 24 -49 23
h-40v69h40c40 0 38 39 38 42c0 14 -12 37 -39 37c-20 0 -33 -10 -41 -22z" />
    <glyph glyph-name="onesuperior" unicode="&#xb9;" horiz-adv-x="215" 
d="M86 707l-65 -27v70l145 69v-385h-80v273z" />
    <glyph glyph-name="onequarter" unicode="&#xbc;" horiz-adv-x="783" 
d="M104 548l-65 -27v70l145 69v-385h-80v273zM698 85v-85h-81v85h-182l179 295h84v-227h48v-68h-48zM545 153h72v119zM627 668l-451 -678h-83l452 678h82z" />
    <glyph glyph-name="threequarters" unicode="&#xbe;" horiz-adv-x="830" 
d="M744 85v-85h-81v85h-182l179 295h84v-227h48v-68h-48zM591 153h72v119zM124 566c0 1 -64 40 -64 40c22 36 67 59 118 56c66 -4 114 -52 112 -106c0 -32 -20 -59 -49 -75c42 -15 69 -62 65 -103c-6 -65 -73 -113 -149 -108c-53 4 -100 36 -121 80c1 0 70 35 70 35
c11 -20 33 -34 57 -37c29 -2 52 20 55 40c0 3 2 17 -3 29c-6 13 -20 24 -49 23h-40v69h40c40 0 38 39 38 42c0 14 -12 37 -39 37c-20 0 -33 -10 -41 -22zM691 668l-451 -678h-83l452 678h82z" />
    <glyph glyph-name="onehalf" unicode="&#xbd;" horiz-adv-x="791" 
d="M104 548l-65 -27v70l145 69v-385h-80v273zM493 43l156 185c12 14 20 29 20 44c0 21 -17 38 -48 38c-29 0 -50 -22 -54 -53l-74 13c12 72 61 117 133 117c67 0 124 -47 124 -115c0 -37 -17 -70 -40 -96c-42 -47 -44 -49 -88 -100h118v-76h-247v43zM621 668l-451 -678h-83
l452 678h82z" />
    <glyph glyph-name="ordfeminine" unicode="&#xaa;" horiz-adv-x="468" 
d="M317 323v45c-23 -32 -65 -52 -103 -52c-91 0 -168 68 -168 173c0 106 77 173 168 173c39 0 77 -15 103 -50v43h76v-332h-76zM317 490c0 63 -51 96 -98 96c-53 0 -95 -38 -95 -96s42 -98 95 -98c52 0 98 36 98 98zM77 212v53h315v-53h-315z" />
    <glyph glyph-name="ordmasculine" unicode="&#xba;" horiz-adv-x="454" 
d="M223 316c-94 0 -173 69 -173 175c0 104 79 171 173 171s174 -67 174 -171c0 -106 -80 -175 -174 -175zM223 392c53 0 97 39 97 99c0 58 -44 95 -97 95s-97 -37 -97 -95c0 -60 44 -99 97 -99zM72 212v53h315v-53h-315z" />
    <glyph glyph-name="l.alt1" horiz-adv-x="316" 
d="M311 126v-126h-75c-132 0 -177 79 -177 203v518h140v-521c-1 -33 10 -74 61 -74h51z" />
    <glyph glyph-name="a.alt1" horiz-adv-x="539" 
d="M232 95c31 0 92 11 110 69c-26 24 -70 27 -90 27c-59 0 -79 -25 -79 -49c0 -25 20 -47 59 -47zM132 311l-74 78c63 88 160 88 205 88c116 0 218 -59 218 -200v-277h-138v47c-35 -41 -89 -57 -135 -57c-107 0 -177 62 -177 151c0 75 54 137 200 137c23 0 80 -6 112 -25
c0 59 -25 104 -96 104c-20 0 -69 0 -115 -46z" />
    <glyph glyph-name="y.alt1" horiz-adv-x="509" 
d="M152 -30l30 70l-176 427h147l103 -263l103 263h148l-230 -550c-46 -106 -91 -150 -192 -150c-7 0 -32 0 -66 12v121c41 -7 40 -7 54 -7c47 0 60 32 79 77z" />
    <glyph glyph-name="lslash.alt1" horiz-adv-x="345" 
d="M338 126v-126h-75c-132 0 -177 79 -177 203v75l-77 -48v95l77 48v348h140v-261l95 60v-95l-95 -60v-165c-1 -33 10 -74 61 -74h51z" />
    <glyph glyph-name="lacute.alt1" horiz-adv-x="316" 
d="M170 939h138l-148 -168h-100zM311 0v126h-51c-51 0 -62 41 -61 74v521h-140v-518c0 -124 45 -203 177 -203h75z" />
    <glyph glyph-name="lcommaaccent.alt1" horiz-adv-x="316" 
d="M182 -287l-68 35c42 59 59 105 58 196h117c-10 -129 -61 -193 -107 -231zM311 126v-126h-75c-132 0 -177 79 -177 203v518h140v-521c-1 -33 10 -74 61 -74h51z" />
    <glyph glyph-name="lcaron.alt1" horiz-adv-x="321" 
d="M313 460l-84 29c42 59 75 141 74 232h117c-10 -129 -61 -223 -107 -261zM311 0v126h-51c-51 0 -62 41 -61 74v521h-140v-518c0 -124 45 -203 177 -203h75z" />
    <glyph glyph-name="aacute.alt1" horiz-adv-x="539" 
d="M297 707h138l-148 -168h-100zM232 95c31 0 92 11 110 69c-26 24 -70 27 -90 27c-59 0 -79 -25 -79 -49c0 -25 20 -47 59 -47zM132 311l-74 78c63 88 160 88 205 88c116 0 218 -59 218 -200v-277h-138v47c-35 -41 -89 -57 -135 -57c-107 0 -177 62 -177 151
c0 75 54 137 200 137c23 0 80 -6 112 -25c0 59 -25 104 -96 104c-20 0 -69 0 -115 -46z" />
    <glyph glyph-name="agrave.alt1" horiz-adv-x="539" 
d="M70 707h138l110 -168h-100zM232 95c31 0 92 11 110 69c-26 24 -70 27 -90 27c-59 0 -79 -25 -79 -49c0 -25 20 -47 59 -47zM132 311l-74 78c63 88 160 88 205 88c116 0 218 -59 218 -200v-277h-138v47c-35 -41 -89 -57 -135 -57c-107 0 -177 62 -177 151
c0 75 54 137 200 137c23 0 80 -6 112 -25c0 59 -25 104 -96 104c-20 0 -69 0 -115 -46z" />
    <glyph glyph-name="acircumflex.alt1" horiz-adv-x="539" 
d="M192 711h138l110 -168h-100l-79 89l-78 -89h-100zM232 95c31 0 92 11 110 69c-26 24 -70 27 -90 27c-59 0 -79 -25 -79 -49c0 -25 20 -47 59 -47zM132 311l-74 78c63 88 160 88 205 88c116 0 218 -59 218 -200v-277h-138v47c-35 -41 -89 -57 -135 -57
c-107 0 -177 62 -177 151c0 75 54 137 200 137c23 0 80 -6 112 -25c0 59 -25 104 -96 104c-20 0 -69 0 -115 -46z" />
    <glyph glyph-name="adieresis.alt1" horiz-adv-x="539" 
d="M103 638c0 38 33 68 73 68c39 0 71 -30 71 -68c0 -39 -32 -69 -71 -69c-40 0 -73 30 -73 69zM280 638c0 38 33 68 73 68c39 0 71 -30 71 -68c0 -39 -32 -69 -71 -69c-40 0 -73 30 -73 69zM232 95c31 0 92 11 110 69c-26 24 -70 27 -90 27c-59 0 -79 -25 -79 -49
c0 -25 20 -47 59 -47zM132 311l-74 78c63 88 160 88 205 88c116 0 218 -59 218 -200v-277h-138v47c-35 -41 -89 -57 -135 -57c-107 0 -177 62 -177 151c0 75 54 137 200 137c23 0 80 -6 112 -25c0 59 -25 104 -96 104c-20 0 -69 0 -115 -46z" />
    <glyph glyph-name="atilde.alt1" horiz-adv-x="539" 
d="M207 606c-7 0 -25 -11 -26 -43h-75c5 98 59 130 101 130s63 -41 87 -41c7 0 25 9 26 41h75c-4 -98 -61 -128 -101 -128c-39 0 -64 41 -87 41zM232 95c31 0 92 11 110 69c-26 24 -70 27 -90 27c-59 0 -79 -25 -79 -49c0 -25 20 -47 59 -47zM132 311l-74 78
c63 88 160 88 205 88c116 0 218 -59 218 -200v-277h-138v47c-35 -41 -89 -57 -135 -57c-107 0 -177 62 -177 151c0 75 54 137 200 137c23 0 80 -6 112 -25c0 59 -25 104 -96 104c-20 0 -69 0 -115 -46z" />
    <glyph glyph-name="aring.alt1" horiz-adv-x="539" 
d="M141 659c0 69 53 123 120 123c68 0 122 -54 122 -123c0 -67 -54 -120 -122 -120c-67 0 -120 53 -120 120zM206 659c0 -31 24 -55 55 -55c32 0 57 24 57 55c0 33 -25 58 -57 58c-31 0 -55 -25 -55 -58zM232 95c31 0 92 11 110 69c-26 24 -70 27 -90 27
c-59 0 -79 -25 -79 -49c0 -25 20 -47 59 -47zM132 311l-74 78c63 88 160 88 205 88c116 0 218 -59 218 -200v-277h-138v47c-35 -41 -89 -57 -135 -57c-107 0 -177 62 -177 151c0 75 54 137 200 137c23 0 80 -6 112 -25c0 59 -25 104 -96 104c-20 0 -69 0 -115 -46z" />
    <glyph glyph-name="amacron.alt1" horiz-adv-x="539" 
d="M127 587v85h278v-85h-278zM232 95c31 0 92 11 110 69c-26 24 -70 27 -90 27c-59 0 -79 -25 -79 -49c0 -25 20 -47 59 -47zM132 311l-74 78c63 88 160 88 205 88c116 0 218 -59 218 -200v-277h-138v47c-35 -41 -89 -57 -135 -57c-107 0 -177 62 -177 151
c0 75 54 137 200 137c23 0 80 -6 112 -25c0 59 -25 104 -96 104c-20 0 -69 0 -115 -46z" />
    <glyph glyph-name="abreve.alt1" horiz-adv-x="538" 
d="M132 689h85c0 -34 14 -53 49 -53s48 25 48 53h87c0 -79 -56 -131 -135 -131c-92 0 -134 65 -134 131zM231 95c31 0 92 11 110 69c-26 24 -70 27 -90 27c-59 0 -79 -25 -79 -49c0 -25 20 -47 59 -47zM131 311l-74 78c63 88 160 88 205 88c116 0 218 -59 218 -200v-277
h-138v47c-35 -41 -89 -57 -135 -57c-107 0 -177 62 -177 151c0 75 54 137 200 137c23 0 80 -6 112 -25c0 59 -25 104 -96 104c-20 0 -69 0 -115 -46z" />
    <glyph glyph-name="aogonek.alt1" horiz-adv-x="539" 
d="M132 311l-74 78c63 88 160 88 205 88c116 0 218 -59 218 -200v-277h-68l-37 -101c-6 -17 -1 -35 15 -42c16 -4 33 3 39 19c3 13 1 26 1 26l77 4c1 -33 -1 -43 -8 -59c-18 -41 -56 -65 -95 -65c-58 0 -107 47 -107 103c0 14 0 30 10 49l35 66v47c-35 -41 -89 -57 -135 -57
c-107 0 -177 62 -177 151c0 75 54 137 200 137c23 0 80 -6 112 -25c0 59 -25 104 -96 104c-20 0 -69 0 -115 -46zM232 95c31 0 92 11 110 69c-26 24 -70 27 -90 27c-59 0 -79 -25 -79 -49c0 -25 20 -47 59 -47z" />
    <glyph glyph-name="yacute.alt1" horiz-adv-x="509" 
d="M305 707h138l-148 -168h-100zM182 40l-30 -70c-19 -45 -32 -77 -79 -77c-14 0 -13 0 -54 7v-121c34 -12 59 -12 66 -12c101 0 146 44 192 150l230 550h-148l-103 -263l-103 263h-147z" />
    <glyph glyph-name="ydieresis.alt1" horiz-adv-x="509" 
d="M100 638c0 38 33 68 73 68c39 0 71 -30 71 -68c0 -39 -32 -69 -71 -69c-40 0 -73 30 -73 69zM277 638c0 38 33 68 73 68c39 0 71 -30 71 -68c0 -39 -32 -69 -71 -69c-40 0 -73 30 -73 69zM182 40l-30 -70c-19 -45 -32 -77 -79 -77c-14 0 -13 0 -54 7v-121
c34 -12 59 -12 66 -12c101 0 146 44 192 150l230 550h-148l-103 -263l-103 263h-147z" />
    <glyph glyph-name="ae.alt1" horiz-adv-x="869" 
d="M142 310l-85 79c63 88 160 88 205 88c65 0 127 -19 167 -61c44 39 103 61 168 61c133 0 239 -95 239 -242c0 -12 -1 -31 -2 -43h-342c7 -54 51 -82 115 -82c42 0 88 17 108 54l102 -67c-44 -79 -137 -107 -220 -107c-43 0 -140 0 -184 75c-50 -75 -170 -75 -206 -75
c-107 0 -177 62 -177 151c0 75 55 143 211 143c23 0 69 -8 101 -27c0 54 -28 100 -89 100c-20 0 -74 -2 -111 -47zM494 282h202c-7 57 -59 73 -98 73s-92 -14 -104 -73zM231 106c25 0 99 5 110 63c-30 18 -82 25 -100 25c-59 0 -69 -28 -69 -47c0 -18 18 -41 59 -41z" />
    <glyph glyph-name="aeacute.alt1" horiz-adv-x="868" 
d="M492 707h138l-148 -168h-100zM142 310l-85 79c63 88 160 88 205 88c65 0 127 -19 167 -61c44 39 103 61 168 61c133 0 239 -95 239 -242c0 -12 -1 -31 -2 -43h-342c7 -54 51 -82 115 -82c42 0 88 17 108 54l102 -67c-44 -79 -137 -107 -220 -107c-43 0 -140 0 -184 75
c-50 -75 -170 -75 -206 -75c-107 0 -177 62 -177 151c0 75 55 143 211 143c23 0 69 -8 101 -27c0 54 -28 100 -89 100c-20 0 -74 -2 -111 -47zM494 282h202c-7 57 -59 73 -98 73s-92 -14 -104 -73zM231 106c25 0 99 5 110 63c-30 18 -82 25 -100 25c-59 0 -69 -28 -69 -47
c0 -18 18 -41 59 -41z" />
    <glyph glyph-name="ycircumflex.alt1" horiz-adv-x="509" 
d="M188 711h138l110 -168h-100l-79 89l-78 -89h-100zM152 -30l30 70l-176 427h147l103 -263l103 263h148l-230 -550c-46 -106 -91 -150 -192 -150c-7 0 -32 0 -66 12v121c41 -7 40 -7 54 -7c47 0 60 32 79 77z" />
    <glyph glyph-name="ldot.alt1" horiz-adv-x="404" 
d="M241 307c0 42 34 74 77 74s77 -32 77 -74c0 -44 -34 -75 -77 -75s-77 31 -77 75zM311 126v-126h-75c-132 0 -177 79 -177 203v518h140v-521c-1 -33 10 -74 61 -74h51z" />
    <glyph glyph-name="t.alt1" horiz-adv-x="391" 
d="M107 357h-85v110h85v98l140 45v-143h96v-110h-96v-167c-1 -33 10 -64 61 -64h41v-126h-65c-132 0 -177 69 -177 193v164z" />
    <glyph glyph-name="tcaron.alt1" horiz-adv-x="391" 
d="M356 522l-68 35c42 59 59 105 58 196h117c-10 -129 -61 -193 -107 -231zM107 357h-85v110h85v98l140 45v-143h96v-110h-96v-167c-1 -33 10 -64 61 -64h41v-126h-65c-132 0 -177 69 -177 193v164z" />
    <glyph glyph-name="tbar.alt1" horiz-adv-x="392" 
d="M316 193h-68v-3c0 -33 10 -64 61 -64h41v-126h-65c-132 0 -177 69 -177 193h-53v77h53v87h-85v110h85v98l140 45v-143h96v-110h-96v-87h68v-77z" />
    <glyph glyph-name="tcommaaccent.alt1" horiz-adv-x="391" 
d="M216 -287l-68 35c42 59 59 105 58 196h117c-10 -129 -61 -193 -107 -231zM107 357h-85v110h85v98l140 45v-143h96v-110h-96v-167c-1 -33 10 -64 61 -64h41v-126h-65c-132 0 -177 69 -177 193v164z" />
    <glyph glyph-name="T.sc.alt1" horiz-adv-x="471" 
d="M21 566h429v-114h-150v-452h-128v452h-151v114z" />
    <glyph glyph-name="Tcaron.sc.alt1" horiz-adv-x="490" 
d="M20 452v114h450v-114h-159v-452h-132v452h-159zM182 760l64 -70l63 70h88l-93 -142h-118l-91 142h87z" />
    <glyph glyph-name="Tbar.sc.alt1" horiz-adv-x="471" 
d="M95 244v75h78v132h-151v113h427v-113h-150v-132h77v-75h-77v-244h-126v244h-78z" />
    <glyph glyph-name="Tcommaaccent.sc.alt1" horiz-adv-x="471" 
d="M21 566h429v-114h-150v-452h-128v452h-151v114zM205 -222l-51 28c32 42 34 87 34 155h90c0 -100 -37 -152 -73 -183z" />
    <glyph glyph-name="aringacute.alt1" horiz-adv-x="539" 
d="M323 900h138l-120 -136c35 -22 58 -60 58 -105c0 -67 -54 -120 -122 -120c-67 0 -120 53 -120 120c0 56 36 103 85 118zM222 659c0 -31 24 -55 55 -55c32 0 57 24 57 55c0 33 -25 58 -57 58c-31 0 -55 -25 -55 -58zM232 95c31 0 92 11 110 69c-26 24 -70 27 -90 27
c-59 0 -79 -25 -79 -49c0 -25 20 -47 59 -47zM132 311l-74 78c63 88 160 88 205 88c116 0 218 -59 218 -200v-277h-138v47c-35 -41 -89 -57 -135 -57c-107 0 -177 62 -177 151c0 75 54 137 200 137c23 0 80 -6 112 -25c0 59 -25 104 -96 104c-20 0 -69 0 -115 -46z" />
    </font>
</defs>
</svg>
